<svg width="38" height="38" viewBox="0 0 38 38" fill="none" xmlns="http://www.w3.org/2000/svg">
<path d="M34.5252 15.899H33.2498V15.8333H18.9998V22.1667H27.948C26.6426 25.8534 23.1347 28.5 18.9998 28.5C13.7535 28.5 9.49984 24.2464 9.49984 19C9.49984 13.7536 13.7535 9.49999 18.9998 9.49999C21.4215 9.49999 23.6248 10.4136 25.3023 11.9059L29.7808 7.42741C26.9529 4.79195 23.1703 3.16666 18.9998 3.16666C10.2559 3.16666 3.1665 10.256 3.1665 19C3.1665 27.7439 10.2559 34.8333 18.9998 34.8333C27.7438 34.8333 34.8332 27.7439 34.8332 19C34.8332 17.9384 34.7239 16.9021 34.5252 15.899Z" fill="#FFC107"/>
<path d="M4.99219 11.6304L10.1942 15.4454C11.6018 11.9605 15.0107 9.49999 18.9999 9.49999C21.4216 9.49999 23.6249 10.4136 25.3024 11.9059L29.7809 7.42741C26.953 4.79195 23.1704 3.16666 18.9999 3.16666C12.9184 3.16666 7.64427 6.60011 4.99219 11.6304Z" fill="#FF3D00"/>
<path d="M18.9999 34.8333C23.0897 34.8333 26.8058 33.2682 29.6154 30.723L24.715 26.5762C23.0719 27.8258 21.0642 28.5016 18.9999 28.5C14.8817 28.5 11.3849 25.874 10.0675 22.2094L4.9043 26.1875C7.52471 31.3152 12.8463 34.8333 18.9999 34.8333Z" fill="#4CAF50"/>
<path d="M34.5254 15.8991H33.25V15.8333H19V22.1667H27.9482C27.3237 23.9213 26.1989 25.4546 24.7127 26.5771L24.715 26.5755L29.6155 30.7222C29.2687 31.0373 34.8333 26.9167 34.8333 19C34.8333 17.9384 34.7241 16.9021 34.5254 15.8991Z" fill="#1976D2"/>
</svg>
