<svg width="38" height="38" viewBox="0 0 38 38" fill="none" xmlns="http://www.w3.org/2000/svg">
<path d="M34.5255 15.9975H33.2501V15.9321H19.0001V22.2372H27.9483C26.6428 25.9076 23.135 28.5423 19.0001 28.5423C13.7537 28.5423 9.50008 24.3076 9.50008 19.0846C9.50008 13.8616 13.7537 9.62695 19.0001 9.62695C21.4218 9.62695 23.625 10.5365 25.3025 12.0221L29.781 7.56359C26.9532 4.93988 23.1706 3.32182 19.0001 3.32182C10.2561 3.32182 3.16675 10.3796 3.16675 19.0846C3.16675 27.7896 10.2561 34.8474 19.0001 34.8474C27.744 34.8474 34.8334 27.7896 34.8334 19.0846C34.8334 18.0277 34.7242 16.9961 34.5255 15.9975Z" fill="#FFC107"/>
<path d="M4.99219 11.7478L10.1942 15.5459C11.6018 12.0765 15.0107 9.62695 18.9999 9.62695C21.4216 9.62695 23.6249 10.5365 25.3024 12.0221L29.7809 7.56359C26.953 4.93988 23.1704 3.32182 18.9999 3.32182C12.9184 3.32182 7.64427 6.73999 4.99219 11.7478Z" fill="#FF3D00"/>
<path d="M18.9999 34.8474C23.0897 34.8474 26.8058 33.2893 29.6154 30.7554L24.715 26.6271C23.0719 27.8711 21.0642 28.5439 18.9999 28.5423C14.8817 28.5423 11.3849 25.9281 10.0675 22.2798L4.9043 26.2402C7.52471 31.3449 12.8463 34.8474 18.9999 34.8474Z" fill="#4CAF50"/>
<path d="M34.5254 15.9975H33.25V15.9321H19V22.2372H27.9482C27.3237 23.984 26.1989 25.5105 24.7127 26.6279L24.715 26.6263L29.6155 30.7546C29.2687 31.0683 34.8333 26.966 34.8333 19.0846C34.8333 18.0277 34.7241 16.9961 34.5254 15.9975Z" fill="#1976D2"/>
</svg>
