<svg width="17" height="17" viewBox="0 0 17 17" fill="none" xmlns="http://www.w3.org/2000/svg">
<path d="M2.0282 7.36914H15.7172C15.8987 7.36914 16.0728 7.45207 16.2012 7.59968C16.3295 7.74729 16.4017 7.94749 16.4017 8.15624C16.4017 8.36499 16.3295 8.5652 16.2012 8.71281C16.0728 8.86042 15.8987 8.94334 15.7172 8.94334H2.0282C1.84667 8.94334 1.67258 8.86042 1.54422 8.71281C1.41586 8.5652 1.34375 8.36499 1.34375 8.15624C1.34375 7.94749 1.41586 7.74729 1.54422 7.59968C1.67258 7.45207 1.84667 7.36914 2.0282 7.36914Z" fill="#717171"/>
<path d="M2.31364 8.15619L7.99048 14.6828C8.119 14.8306 8.19121 15.0311 8.19121 15.2401C8.19121 15.4491 8.119 15.6496 7.99048 15.7974C7.86196 15.9452 7.68765 16.0282 7.50589 16.0282C7.32413 16.0282 7.14982 15.9452 7.0213 15.7974L0.861239 8.71345C0.797499 8.64034 0.746928 8.55348 0.712423 8.45786C0.677918 8.36223 0.660156 8.25972 0.660156 8.15619C0.660156 8.05266 0.677918 7.95014 0.712423 7.85452C0.746928 7.75889 0.797499 7.67203 0.861239 7.59892L7.0213 0.515007C7.14982 0.367211 7.32413 0.28418 7.50589 0.28418C7.68765 0.28418 7.86196 0.367211 7.99048 0.515007C8.119 0.662804 8.19121 0.863259 8.19121 1.07228C8.19121 1.28129 8.119 1.48175 7.99048 1.62954L2.31364 8.15619Z" fill="#717171"/>
</svg>
