<svg width="17" height="17" viewBox="0 0 17 17" fill="none" xmlns="http://www.w3.org/2000/svg">
<path d="M15.0851 7.61914H1.39607C1.21454 7.61914 1.04045 7.70207 0.912091 7.84968C0.783731 7.99729 0.711621 8.19749 0.711621 8.40624C0.711621 8.61499 0.783731 8.8152 0.912091 8.96281C1.04045 9.11042 1.21454 9.19334 1.39607 9.19334H15.0851C15.2666 9.19334 15.4407 9.11042 15.5691 8.96281C15.6974 8.8152 15.7695 8.61499 15.7695 8.40624C15.7695 8.19749 15.6974 7.99729 15.5691 7.84968C15.4407 7.70207 15.2666 7.61914 15.0851 7.61914Z" fill="#717171"/>
<path d="M14.7996 8.40619L9.1228 14.9328C8.99428 15.0806 8.92208 15.2811 8.92208 15.4901C8.92208 15.6991 8.99428 15.8996 9.1228 16.0474C9.25132 16.1952 9.42563 16.2782 9.60739 16.2782C9.78915 16.2782 9.96346 16.1952 10.092 16.0474L16.252 8.96345C16.3158 8.89034 16.3664 8.80348 16.4009 8.70786C16.4354 8.61223 16.4531 8.50972 16.4531 8.40619C16.4531 8.30266 16.4354 8.20014 16.4009 8.10452C16.3664 8.00889 16.3158 7.92203 16.252 7.84892L10.092 0.765007C9.96346 0.617211 9.78915 0.53418 9.60739 0.53418C9.42563 0.53418 9.25132 0.617211 9.1228 0.765007C8.99428 0.912804 8.92208 1.11326 8.92208 1.32228C8.92208 1.53129 8.99428 1.73175 9.1228 1.87954L14.7996 8.40619Z" fill="#717171"/>
</svg>
