<svg width="21" height="21" viewBox="0 0 21 21" fill="none" xmlns="http://www.w3.org/2000/svg">
<path d="M3.6276 18.4421H16.9609C17.403 18.4421 17.8269 18.2665 18.1394 17.9539C18.452 17.6413 18.6276 17.2174 18.6276 16.7754V3.44206C18.6276 3.00003 18.452 2.57611 18.1394 2.26355C17.8269 1.95099 17.403 1.77539 16.9609 1.77539H6.96094C6.51891 1.77539 6.09499 1.95099 5.78243 2.26355C5.46987 2.57611 5.29427 3.00003 5.29427 3.44206V16.7754C5.29427 17.2174 5.11868 17.6413 4.80612 17.9539C4.49355 18.2665 4.06963 18.4421 3.6276 18.4421ZM3.6276 18.4421C3.18558 18.4421 2.76165 18.2665 2.44909 17.9539C2.13653 17.6413 1.96094 17.2174 1.96094 16.7754V9.27539C1.96094 8.35872 2.71094 7.60872 3.6276 7.60872H5.29427" stroke="#3F3F46" stroke-width="1.66667" stroke-linecap="round" stroke-linejoin="round"/>
<path d="M15.2917 11.7754H8.625" stroke="#3F3F46" stroke-width="1.66667" stroke-linecap="round" stroke-linejoin="round"/>
<path d="M12.7917 15.1084H8.625" stroke="#3F3F46" stroke-width="1.66667" stroke-linecap="round" stroke-linejoin="round"/>
<path d="M8.625 5.1084H15.2917V8.44173H8.625V5.1084Z" stroke="#3F3F46" stroke-width="1.66667" stroke-linecap="round" stroke-linejoin="round"/>
</svg>
