<svg width="21" height="21" viewBox="0 0 21 21" fill="none" xmlns="http://www.w3.org/2000/svg">
<path d="M4.05827 18.3522H17.3916C17.8336 18.3522 18.2576 18.1766 18.5701 17.8641C18.8827 17.5515 19.0583 17.1276 19.0583 16.6855V3.35221C19.0583 2.91019 18.8827 2.48626 18.5701 2.1737C18.2576 1.86114 17.8336 1.68555 17.3916 1.68555H7.3916C6.94957 1.68555 6.52565 1.86114 6.21309 2.1737C5.90053 2.48626 5.72493 2.91019 5.72493 3.35221V16.6855C5.72493 17.1276 5.54934 17.5515 5.23678 17.8641C4.92422 18.1766 4.5003 18.3522 4.05827 18.3522ZM4.05827 18.3522C3.61624 18.3522 3.19232 18.1766 2.87976 17.8641C2.5672 17.5515 2.3916 17.1276 2.3916 16.6855V9.18555C2.3916 8.26888 3.1416 7.51888 4.05827 7.51888H5.72493" stroke="#3F3F46" stroke-width="1.66667" stroke-linecap="round" stroke-linejoin="round"/>
<path d="M15.7253 11.6855H9.05859" stroke="#3F3F46" stroke-width="1.66667" stroke-linecap="round" stroke-linejoin="round"/>
<path d="M13.2253 15.0195H9.05859" stroke="#3F3F46" stroke-width="1.66667" stroke-linecap="round" stroke-linejoin="round"/>
<path d="M9.05859 5.01953H15.7253V8.35286H9.05859V5.01953Z" stroke="#3F3F46" stroke-width="1.66667" stroke-linecap="round" stroke-linejoin="round"/>
</svg>
