<svg width="41" height="41" viewBox="0 0 41 41" fill="none" xmlns="http://www.w3.org/2000/svg">
<g opacity="0.5">
<path d="M1.28906 6.85742C1.28906 3.81986 3.7515 1.35742 6.78906 1.35742H34.7891C37.8266 1.35742 40.2891 3.81986 40.2891 6.85742V34.8574C40.2891 37.895 37.8266 40.3574 34.7891 40.3574H6.78906C3.7515 40.3574 1.28906 37.895 1.28906 34.8574V6.85742Z" fill="white"/>
<path d="M1.28906 6.85742C1.28906 3.81986 3.7515 1.35742 6.78906 1.35742H34.7891C37.8266 1.35742 40.2891 3.81986 40.2891 6.85742V34.8574C40.2891 37.895 37.8266 40.3574 34.7891 40.3574H6.78906C3.7515 40.3574 1.28906 37.895 1.28906 34.8574V6.85742Z" stroke="#E2E8F0"/>
<path d="M20.1224 24.1906L16.7891 20.8573L20.1224 17.5239" stroke="#020817" stroke-width="2" stroke-linecap="round" stroke-linejoin="round"/>
<path d="M24.7884 24.1906L21.4551 20.8573L24.7884 17.5239" stroke="#020817" stroke-width="2" stroke-linecap="round" stroke-linejoin="round"/>
</g>
</svg>
