<svg width="16" height="17" viewBox="0 0 16 17" fill="none" xmlns="http://www.w3.org/2000/svg">
<g clip-path="url(#clip0_381_1310)">
<path d="M4.06442 6.35982H3.07347C2.63544 6.35982 2.21535 6.18581 1.90561 5.87608C1.59588 5.56635 1.42188 5.14626 1.42188 4.70823C1.42188 4.2702 1.59588 3.85011 1.90561 3.54038C2.21535 3.23065 2.63544 3.05664 3.07347 3.05664H4.06442" stroke="#92400E" stroke-width="1.98191" stroke-linecap="round" stroke-linejoin="round"/>
<path d="M11.9922 6.35982H12.9831C13.4212 6.35982 13.8413 6.18581 14.151 5.87608C14.4607 5.56635 14.6347 5.14626 14.6347 4.70823C14.6347 4.2702 14.4607 3.85011 14.151 3.54038C13.8413 3.23065 13.4212 3.05664 12.9831 3.05664H11.9922" stroke="#92400E" stroke-width="1.98191" stroke-linecap="round" stroke-linejoin="round"/>
<path d="M2.74219 14.9482H13.3124" stroke="#92400E" stroke-width="1.98191" stroke-linecap="round" stroke-linejoin="round"/>
<path d="M6.70652 10.0986V11.6445C6.70652 12.0079 6.39602 12.2919 6.0657 12.4439C5.28615 12.8006 4.72461 13.785 4.72461 14.9477" stroke="#92400E" stroke-width="1.98191" stroke-linecap="round" stroke-linejoin="round"/>
<path d="M9.34961 10.0986V11.6445C9.34961 12.0079 9.66011 12.2919 9.99043 12.4439C10.77 12.8006 11.3315 13.785 11.3315 14.9477" stroke="#92400E" stroke-width="1.98191" stroke-linecap="round" stroke-linejoin="round"/>
<path d="M11.9921 1.73535H4.06445V6.3598C4.06445 7.41107 4.48207 8.41928 5.22543 9.16264C5.96879 9.906 6.977 10.3236 8.02827 10.3236C9.07954 10.3236 10.0878 9.906 10.8311 9.16264C11.5745 8.41928 11.9921 7.41107 11.9921 6.3598V1.73535Z" stroke="#92400E" stroke-width="1.98191" stroke-linecap="round" stroke-linejoin="round"/>
</g>
<defs>
<clipPath id="clip0_381_1310">
<rect width="15.8553" height="15.8553" fill="white" transform="translate(0.101562 0.414062)"/>
</clipPath>
</defs>
</svg>
