<svg width="40" height="40" viewBox="0 0 40 40" fill="none" xmlns="http://www.w3.org/2000/svg">
<rect x="0.699219" y="0.75" width="38.6" height="38.6" rx="5.5" fill="white"/>
<rect x="0.699219" y="0.75" width="38.6" height="38.6" rx="5.5" stroke="#D4D4D8"/>
<path d="M10.834 25.5498H12.1173C13.309 25.5498 14.409 24.9998 15.1423 23.9915L20.734 16.1081C21.3757 15.0998 22.5673 14.5498 23.759 14.5498H29.1673" stroke="#595959" stroke-width="1.83333" stroke-linecap="round" stroke-linejoin="round"/>
<path d="M25.5 10.8828L29.1667 14.5495L25.5 18.2161" stroke="#595959" stroke-width="1.83333" stroke-linecap="round" stroke-linejoin="round"/>
<path d="M10.834 14.5498H12.5757C13.9507 14.5498 15.234 15.3748 15.8757 16.5665" stroke="#595959" stroke-width="1.83333" stroke-linecap="round" stroke-linejoin="round"/>
<path d="M29.1671 25.5493H23.7587C22.5671 25.5493 21.3754 24.9077 20.7337 23.8994L20.2754 23.166" stroke="#595959" stroke-width="1.83333" stroke-linecap="round" stroke-linejoin="round"/>
<path d="M25.5 21.8828L29.1667 25.5495L25.5 29.2161" stroke="#595959" stroke-width="1.83333" stroke-linecap="round" stroke-linejoin="round"/>
</svg>
