<svg width="419" height="506" viewBox="0 0 419 506" fill="none" xmlns="http://www.w3.org/2000/svg">
<g filter="url(#filter0_d_1090_1543)">
<rect x="15.9" y="17.9" width="397.2" height="472.2" rx="13.1" stroke="black" stroke-width="2.2" shape-rendering="crispEdges"/>
<rect x="17" y="19" width="395" height="470" rx="12" fill="white"/>
<path d="M69.84 66.344C69.92 66.248 70.016 66.2 70.128 66.2H71.952C72.112 66.2 72.192 66.28 72.192 66.44V82.76C72.192 82.92 72.112 83 71.952 83H70.128C69.968 83 69.888 82.92 69.888 82.76V70.472C69.888 70.424 69.872 70.392 69.84 70.376C69.808 70.36 69.784 70.376 69.768 70.424L66.336 75.656C66.272 75.752 66.176 75.8 66.048 75.8H65.136C65.024 75.8 64.928 75.752 64.848 75.656L61.392 70.472C61.376 70.424 61.352 70.408 61.32 70.424C61.288 70.44 61.272 70.472 61.272 70.52V82.76C61.272 82.92 61.192 83 61.032 83H59.208C59.048 83 58.968 82.92 58.968 82.76V66.44C58.968 66.28 59.048 66.2 59.208 66.2H61.032C61.16 66.2 61.256 66.248 61.32 66.344L65.52 72.632C65.536 72.648 65.56 72.656 65.592 72.656C65.624 72.656 65.648 72.648 65.664 72.632L69.84 66.344ZM74.4763 87.776C74.3643 87.776 74.3083 87.696 74.3083 87.536V86.12C74.3083 85.96 74.3883 85.88 74.5483 85.88H74.5963C75.2363 85.864 75.7403 85.784 76.1083 85.64C76.4763 85.496 76.7803 85.224 77.0203 84.824C77.2603 84.44 77.4923 83.856 77.7163 83.072C77.7323 83.056 77.7323 83.032 77.7163 83C77.7163 82.952 77.7163 82.928 77.7163 82.928L73.7083 71.048L73.6843 70.952C73.6843 70.84 73.7563 70.784 73.9003 70.784H75.8443C75.9883 70.784 76.0843 70.848 76.1323 70.976L78.8443 80.024C78.8603 80.056 78.8843 80.072 78.9163 80.072C78.9483 80.072 78.9723 80.056 78.9883 80.024L81.6763 70.976C81.7243 70.848 81.8203 70.784 81.9643 70.784H83.8603C84.0363 70.784 84.1003 70.872 84.0523 71.048L79.6843 83.84C79.3163 84.944 78.9483 85.76 78.5803 86.288C78.2123 86.832 77.7323 87.216 77.1403 87.44C76.5483 87.664 75.7163 87.776 74.6443 87.776H74.4763ZM95.919 66.176C96.895 66.176 97.751 66.384 98.487 66.8C99.239 67.2 99.815 67.768 100.215 68.504C100.631 69.24 100.839 70.088 100.839 71.048C100.839 72.008 100.631 72.848 100.215 73.568C99.799 74.288 99.207 74.848 98.439 75.248C97.687 75.648 96.815 75.848 95.823 75.848H91.599C91.535 75.848 91.503 75.88 91.503 75.944V82.76C91.503 82.92 91.423 83 91.263 83H89.439C89.279 83 89.199 82.92 89.199 82.76V66.416C89.199 66.256 89.279 66.176 89.439 66.176H95.919ZM95.607 73.976C96.487 73.976 97.191 73.712 97.719 73.184C98.263 72.656 98.535 71.96 98.535 71.096C98.535 70.216 98.263 69.512 97.719 68.984C97.191 68.44 96.487 68.168 95.607 68.168H91.599C91.535 68.168 91.503 68.2 91.503 68.264V73.88C91.503 73.944 91.535 73.976 91.599 73.976H95.607ZM107.634 70.664C108.146 70.664 108.61 70.768 109.026 70.976C109.138 71.024 109.178 71.12 109.146 71.264L108.762 73.064C108.746 73.208 108.65 73.256 108.474 73.208C108.202 73.096 107.882 73.04 107.514 73.04L107.178 73.064C106.426 73.096 105.802 73.36 105.306 73.856C104.826 74.336 104.586 74.968 104.586 75.752V82.76C104.586 82.92 104.506 83 104.346 83H102.522C102.362 83 102.282 82.92 102.282 82.76V71.024C102.282 70.864 102.362 70.784 102.522 70.784H104.346C104.506 70.784 104.586 70.864 104.586 71.024V72.296C104.586 72.344 104.594 72.376 104.61 72.392C104.642 72.392 104.666 72.376 104.682 72.344C105.402 71.224 106.386 70.664 107.634 70.664ZM114.992 83.192C113.808 83.192 112.776 82.896 111.896 82.304C111.016 81.696 110.4 80.856 110.048 79.784C109.76 78.92 109.616 77.944 109.616 76.856C109.616 75.72 109.752 74.76 110.024 73.976C110.376 72.92 110.992 72.096 111.872 71.504C112.752 70.896 113.8 70.592 115.016 70.592C116.168 70.592 117.168 70.896 118.016 71.504C118.88 72.096 119.496 72.912 119.864 73.952C120.152 74.768 120.296 75.728 120.296 76.832C120.296 77.952 120.152 78.936 119.864 79.784C119.512 80.856 118.904 81.696 118.04 82.304C117.176 82.896 116.16 83.192 114.992 83.192ZM114.992 81.2C115.632 81.2 116.192 81.024 116.672 80.672C117.152 80.304 117.496 79.792 117.704 79.136C117.88 78.528 117.968 77.776 117.968 76.88C117.968 75.984 117.888 75.24 117.728 74.648C117.52 73.992 117.176 73.488 116.696 73.136C116.216 72.768 115.632 72.584 114.944 72.584C114.288 72.584 113.72 72.768 113.24 73.136C112.76 73.488 112.416 73.992 112.208 74.648C112.032 75.208 111.944 75.952 111.944 76.88C111.944 77.808 112.032 78.56 112.208 79.136C112.4 79.792 112.736 80.304 113.216 80.672C113.712 81.024 114.304 81.2 114.992 81.2ZM129.825 71.024C129.825 70.864 129.905 70.784 130.065 70.784H131.889C132.049 70.784 132.129 70.864 132.129 71.024V82.376C132.129 84.312 131.577 85.696 130.473 86.528C129.385 87.36 127.921 87.776 126.081 87.776C125.825 87.776 125.425 87.76 124.881 87.728C124.721 87.712 124.641 87.624 124.641 87.464L124.713 85.808C124.713 85.744 124.737 85.688 124.785 85.64C124.833 85.592 124.897 85.576 124.977 85.592C125.201 85.608 125.529 85.616 125.961 85.616C127.321 85.616 128.305 85.36 128.913 84.848C129.521 84.352 129.825 83.504 129.825 82.304V81.872C129.825 81.84 129.809 81.816 129.777 81.8C129.761 81.784 129.737 81.792 129.705 81.824C129.033 82.608 128.049 83 126.753 83C125.713 83 124.769 82.728 123.921 82.184C123.089 81.64 122.513 80.84 122.193 79.784C121.985 79.08 121.881 78.104 121.881 76.856C121.881 75.528 122.001 74.504 122.241 73.784C122.545 72.824 123.081 72.056 123.849 71.48C124.633 70.888 125.553 70.592 126.609 70.592C127.921 70.592 128.953 70.992 129.705 71.792C129.737 71.824 129.761 71.84 129.777 71.84C129.809 71.824 129.825 71.8 129.825 71.768V71.024ZM129.681 79.088C129.729 78.832 129.761 78.56 129.777 78.272C129.809 77.984 129.825 77.504 129.825 76.832C129.825 76.16 129.809 75.688 129.777 75.416C129.761 75.128 129.721 74.856 129.657 74.6C129.529 74.008 129.241 73.528 128.793 73.16C128.345 72.776 127.785 72.584 127.113 72.584C126.441 72.584 125.881 72.776 125.433 73.16C124.985 73.528 124.665 74.008 124.473 74.6C124.297 75.08 124.209 75.824 124.209 76.832C124.209 77.936 124.289 78.688 124.449 79.088C124.609 79.68 124.921 80.168 125.385 80.552C125.865 80.92 126.441 81.104 127.113 81.104C127.817 81.104 128.385 80.92 128.817 80.552C129.265 80.168 129.553 79.68 129.681 79.088ZM139.696 70.664C140.208 70.664 140.672 70.768 141.088 70.976C141.2 71.024 141.24 71.12 141.208 71.264L140.824 73.064C140.808 73.208 140.712 73.256 140.536 73.208C140.264 73.096 139.944 73.04 139.576 73.04L139.24 73.064C138.488 73.096 137.864 73.36 137.368 73.856C136.888 74.336 136.648 74.968 136.648 75.752V82.76C136.648 82.92 136.568 83 136.408 83H134.584C134.424 83 134.344 82.92 134.344 82.76V71.024C134.344 70.864 134.424 70.784 134.584 70.784H136.408C136.568 70.784 136.648 70.864 136.648 71.024V72.296C136.648 72.344 136.656 72.376 136.672 72.392C136.704 72.392 136.728 72.376 136.744 72.344C137.464 71.224 138.448 70.664 139.696 70.664ZM151.951 75.368C152.015 76.024 152.039 76.76 152.023 77.576C152.023 77.736 151.943 77.816 151.783 77.816H144.127C144.063 77.816 144.031 77.848 144.031 77.912C144.031 78.456 144.079 78.872 144.175 79.16C144.351 79.8 144.703 80.304 145.231 80.672C145.775 81.024 146.455 81.2 147.271 81.2C148.455 81.2 149.367 80.712 150.007 79.736C150.087 79.576 150.191 79.552 150.319 79.664L151.687 80.576C151.799 80.672 151.823 80.776 151.759 80.888C151.311 81.608 150.671 82.176 149.839 82.592C149.023 83.008 148.095 83.216 147.055 83.216C145.887 83.216 144.903 82.96 144.103 82.448C143.303 81.936 142.703 81.208 142.303 80.264C141.919 79.32 141.727 78.176 141.727 76.832C141.727 75.664 141.815 74.776 141.991 74.168C142.279 73.064 142.855 72.192 143.719 71.552C144.583 70.912 145.631 70.592 146.863 70.592C148.479 70.592 149.687 71 150.487 71.816C151.287 72.616 151.775 73.8 151.951 75.368ZM146.863 72.584C146.175 72.584 145.607 72.76 145.159 73.112C144.711 73.448 144.407 73.904 144.247 74.48C144.135 74.832 144.063 75.28 144.031 75.824C144.031 75.888 144.063 75.92 144.127 75.92H149.623C149.687 75.92 149.719 75.888 149.719 75.824C149.687 75.296 149.639 74.904 149.575 74.648C149.415 74.024 149.095 73.528 148.615 73.16C148.151 72.776 147.567 72.584 146.863 72.584ZM158.039 83.144C157.079 83.144 156.231 83 155.495 82.712C154.775 82.424 154.215 82.032 153.815 81.536C153.415 81.024 153.215 80.464 153.215 79.856V79.592C153.215 79.432 153.295 79.352 153.455 79.352H155.183C155.343 79.352 155.423 79.432 155.423 79.592V79.712C155.423 80.16 155.663 80.552 156.143 80.888C156.639 81.224 157.263 81.392 158.015 81.392C158.735 81.392 159.319 81.24 159.767 80.936C160.215 80.616 160.439 80.216 160.439 79.736C160.439 79.272 160.231 78.928 159.815 78.704C159.399 78.464 158.727 78.216 157.799 77.96C156.887 77.704 156.119 77.448 155.495 77.192C154.887 76.92 154.367 76.544 153.935 76.064C153.519 75.568 153.311 74.936 153.311 74.168C153.311 73.096 153.727 72.248 154.559 71.624C155.407 70.984 156.527 70.664 157.919 70.664C158.847 70.664 159.663 70.816 160.367 71.12C161.087 71.408 161.639 71.816 162.023 72.344C162.407 72.872 162.599 73.464 162.599 74.12V74.192C162.599 74.352 162.519 74.432 162.359 74.432H160.679C160.519 74.432 160.439 74.352 160.439 74.192V74.12C160.439 73.656 160.207 73.272 159.743 72.968C159.295 72.648 158.679 72.488 157.895 72.488C157.191 72.488 156.615 72.624 156.167 72.896C155.735 73.168 155.519 73.536 155.519 74C155.519 74.464 155.727 74.816 156.143 75.056C156.575 75.296 157.263 75.552 158.207 75.824C159.135 76.08 159.903 76.336 160.511 76.592C161.135 76.832 161.663 77.2 162.095 77.696C162.527 78.176 162.743 78.808 162.743 79.592C162.743 80.68 162.311 81.544 161.447 82.184C160.599 82.824 159.463 83.144 158.039 83.144ZM168.453 83.144C167.493 83.144 166.645 83 165.909 82.712C165.189 82.424 164.629 82.032 164.229 81.536C163.829 81.024 163.629 80.464 163.629 79.856V79.592C163.629 79.432 163.709 79.352 163.869 79.352H165.597C165.757 79.352 165.837 79.432 165.837 79.592V79.712C165.837 80.16 166.077 80.552 166.557 80.888C167.053 81.224 167.677 81.392 168.429 81.392C169.149 81.392 169.733 81.24 170.181 80.936C170.629 80.616 170.853 80.216 170.853 79.736C170.853 79.272 170.645 78.928 170.229 78.704C169.813 78.464 169.141 78.216 168.213 77.96C167.301 77.704 166.533 77.448 165.909 77.192C165.301 76.92 164.781 76.544 164.349 76.064C163.933 75.568 163.725 74.936 163.725 74.168C163.725 73.096 164.141 72.248 164.973 71.624C165.821 70.984 166.941 70.664 168.333 70.664C169.261 70.664 170.077 70.816 170.781 71.12C171.501 71.408 172.053 71.816 172.437 72.344C172.821 72.872 173.013 73.464 173.013 74.12V74.192C173.013 74.352 172.933 74.432 172.773 74.432H171.093C170.933 74.432 170.853 74.352 170.853 74.192V74.12C170.853 73.656 170.621 73.272 170.157 72.968C169.709 72.648 169.093 72.488 168.309 72.488C167.605 72.488 167.029 72.624 166.581 72.896C166.149 73.168 165.933 73.536 165.933 74C165.933 74.464 166.141 74.816 166.557 75.056C166.989 75.296 167.677 75.552 168.621 75.824C169.549 76.08 170.317 76.336 170.925 76.592C171.549 76.832 172.077 77.2 172.509 77.696C172.941 78.176 173.157 78.808 173.157 79.592C173.157 80.68 172.725 81.544 171.861 82.184C171.013 82.824 169.877 83.144 168.453 83.144Z" fill="#9437D0"/>
<path d="M199.751 118.337V116.905L208.24 112.788V114.738L201.976 117.595L202.033 117.48V117.755L201.976 117.646L208.24 120.497V122.453L199.751 118.337ZM228.094 114.348C228.026 113.743 227.744 113.274 227.25 112.942C226.756 112.605 226.134 112.437 225.384 112.437C224.847 112.437 224.382 112.522 223.99 112.692C223.598 112.859 223.293 113.089 223.076 113.383C222.863 113.673 222.756 114.003 222.756 114.374C222.756 114.685 222.829 114.953 222.974 115.179C223.123 115.405 223.317 115.594 223.555 115.748C223.798 115.897 224.058 116.023 224.335 116.125C224.612 116.223 224.879 116.304 225.134 116.368L226.413 116.7C226.83 116.803 227.259 116.941 227.697 117.116C228.136 117.29 228.543 117.521 228.918 117.806C229.293 118.092 229.596 118.445 229.826 118.867C230.06 119.289 230.178 119.794 230.178 120.382C230.178 121.124 229.986 121.782 229.602 122.357C229.223 122.933 228.671 123.386 227.947 123.719C227.227 124.051 226.355 124.217 225.332 124.217C224.352 124.217 223.504 124.062 222.788 123.751C222.072 123.44 221.512 122.999 221.107 122.428C220.702 121.852 220.479 121.17 220.436 120.382H222.418C222.456 120.855 222.609 121.249 222.878 121.565C223.151 121.876 223.498 122.108 223.92 122.261C224.346 122.411 224.812 122.485 225.32 122.485C225.878 122.485 226.374 122.398 226.809 122.223C227.248 122.044 227.593 121.797 227.844 121.482C228.096 121.162 228.222 120.789 228.222 120.363C228.222 119.975 228.111 119.658 227.889 119.411C227.672 119.163 227.376 118.959 227.001 118.797C226.63 118.635 226.21 118.492 225.741 118.369L224.195 117.947C223.146 117.661 222.315 117.241 221.702 116.688C221.092 116.134 220.788 115.401 220.788 114.489C220.788 113.734 220.992 113.076 221.401 112.513C221.81 111.951 222.364 111.514 223.063 111.203C223.762 110.888 224.55 110.73 225.428 110.73C226.315 110.73 227.097 110.886 227.774 111.197C228.456 111.508 228.993 111.936 229.385 112.482C229.777 113.023 229.982 113.645 229.999 114.348H228.094ZM236.616 124.198C235.649 124.198 234.816 123.991 234.117 123.578C233.422 123.161 232.885 122.575 232.506 121.82C232.131 121.062 231.943 120.173 231.943 119.155C231.943 118.149 232.131 117.263 232.506 116.496C232.885 115.729 233.414 115.13 234.091 114.7C234.773 114.269 235.57 114.054 236.482 114.054C237.036 114.054 237.573 114.146 238.093 114.329C238.612 114.512 239.079 114.8 239.492 115.192C239.906 115.584 240.232 116.093 240.47 116.719C240.709 117.342 240.828 118.098 240.828 118.989V119.666H233.024V118.234H238.955C238.955 117.732 238.853 117.286 238.649 116.898C238.444 116.506 238.156 116.197 237.786 115.972C237.419 115.746 236.989 115.633 236.494 115.633C235.958 115.633 235.489 115.765 235.088 116.029C234.692 116.289 234.385 116.63 234.168 117.052C233.955 117.469 233.848 117.923 233.848 118.413V119.532C233.848 120.188 233.963 120.746 234.193 121.207C234.428 121.667 234.754 122.018 235.171 122.261C235.589 122.5 236.077 122.619 236.635 122.619C236.997 122.619 237.328 122.568 237.626 122.466C237.924 122.359 238.182 122.202 238.399 121.993C238.617 121.784 238.783 121.526 238.898 121.219L240.707 121.545C240.562 122.078 240.302 122.545 239.927 122.945C239.556 123.342 239.09 123.651 238.527 123.872C237.969 124.089 237.332 124.198 236.616 124.198ZM242.949 127.682V114.182H244.815V115.773H244.975C245.086 115.569 245.246 115.332 245.455 115.064C245.663 114.795 245.953 114.561 246.324 114.361C246.695 114.156 247.185 114.054 247.794 114.054C248.587 114.054 249.294 114.254 249.916 114.655C250.538 115.055 251.026 115.633 251.38 116.387C251.738 117.141 251.917 118.049 251.917 119.11C251.917 120.171 251.74 121.081 251.386 121.839C251.033 122.594 250.547 123.175 249.929 123.585C249.311 123.989 248.606 124.192 247.813 124.192C247.217 124.192 246.729 124.092 246.349 123.891C245.974 123.691 245.68 123.457 245.467 123.188C245.254 122.92 245.09 122.681 244.975 122.472H244.86V127.682H242.949ZM244.822 119.091C244.822 119.781 244.922 120.386 245.122 120.906C245.322 121.426 245.612 121.833 245.991 122.127C246.371 122.417 246.835 122.562 247.385 122.562C247.956 122.562 248.433 122.411 248.817 122.108C249.2 121.801 249.49 121.386 249.686 120.862C249.886 120.337 249.987 119.747 249.987 119.091C249.987 118.443 249.888 117.862 249.692 117.346C249.501 116.83 249.211 116.423 248.823 116.125C248.44 115.827 247.96 115.678 247.385 115.678C246.831 115.678 246.362 115.82 245.979 116.106C245.599 116.391 245.312 116.79 245.116 117.301C244.92 117.812 244.822 118.409 244.822 119.091ZM258.641 114.182V115.716H253.278V114.182H258.641ZM254.717 111.83H256.628V121.117C256.628 121.488 256.683 121.767 256.794 121.955C256.905 122.138 257.048 122.263 257.222 122.332C257.401 122.396 257.595 122.428 257.804 122.428C257.957 122.428 258.092 122.417 258.207 122.396C258.322 122.374 258.411 122.357 258.475 122.344L258.82 123.923C258.71 123.966 258.552 124.009 258.347 124.051C258.143 124.098 257.887 124.124 257.58 124.128C257.077 124.136 256.609 124.047 256.174 123.859C255.739 123.672 255.388 123.382 255.119 122.99C254.851 122.598 254.717 122.106 254.717 121.513V111.83ZM279.238 119.564L270.749 123.68V121.724L277.014 118.874L276.95 118.982V118.707L277.014 118.822L270.749 115.965V114.016L279.238 118.132V119.564ZM287.501 118.337V116.905L295.99 112.788V114.738L289.726 117.595L289.783 117.48V117.755L289.726 117.646L295.99 120.497V122.453L287.501 118.337ZM308.525 124V122.568L312.955 117.979C313.428 117.48 313.817 117.043 314.124 116.668C314.435 116.289 314.668 115.929 314.821 115.588C314.974 115.247 315.051 114.885 315.051 114.501C315.051 114.067 314.949 113.692 314.744 113.376C314.54 113.057 314.261 112.812 313.907 112.641C313.553 112.467 313.155 112.379 312.712 112.379C312.243 112.379 311.834 112.475 311.484 112.667C311.135 112.859 310.866 113.129 310.679 113.479C310.491 113.828 310.398 114.237 310.398 114.706H308.512C308.512 113.909 308.695 113.212 309.062 112.616C309.428 112.019 309.931 111.557 310.57 111.229C311.21 110.896 311.936 110.73 312.75 110.73C313.572 110.73 314.297 110.894 314.923 111.222C315.554 111.546 316.046 111.989 316.4 112.552C316.754 113.11 316.93 113.741 316.93 114.444C316.93 114.93 316.839 115.405 316.656 115.869C316.477 116.334 316.163 116.852 315.716 117.423C315.268 117.989 314.646 118.678 313.849 119.487L311.248 122.21V122.306H317.141V124H308.525ZM324.121 124.217C323.112 124.213 322.249 123.947 321.533 123.418C320.817 122.89 320.269 122.121 319.89 121.111C319.511 120.101 319.321 118.884 319.321 117.461C319.321 116.042 319.511 114.83 319.89 113.824C320.273 112.818 320.823 112.051 321.539 111.523C322.259 110.994 323.12 110.73 324.121 110.73C325.123 110.73 325.982 110.996 326.697 111.529C327.413 112.058 327.961 112.825 328.34 113.83C328.724 114.832 328.915 116.042 328.915 117.461C328.915 118.888 328.726 120.107 328.347 121.117C327.967 122.123 327.42 122.892 326.704 123.425C325.988 123.953 325.127 124.217 324.121 124.217ZM324.121 122.511C325.008 122.511 325.7 122.078 326.199 121.213C326.702 120.348 326.953 119.097 326.953 117.461C326.953 116.374 326.838 115.456 326.608 114.706C326.382 113.952 326.056 113.381 325.63 112.993C325.208 112.601 324.705 112.405 324.121 112.405C323.239 112.405 322.547 112.839 322.044 113.709C321.541 114.578 321.288 115.829 321.283 117.461C321.283 118.552 321.396 119.474 321.622 120.229C321.852 120.979 322.178 121.548 322.6 121.935C323.022 122.319 323.529 122.511 324.121 122.511ZM331.183 124V122.568L335.613 117.979C336.086 117.48 336.476 117.043 336.782 116.668C337.094 116.289 337.326 115.929 337.479 115.588C337.633 115.247 337.709 114.885 337.709 114.501C337.709 114.067 337.607 113.692 337.403 113.376C337.198 113.057 336.919 112.812 336.565 112.641C336.211 112.467 335.813 112.379 335.37 112.379C334.901 112.379 334.492 112.475 334.143 112.667C333.793 112.859 333.525 113.129 333.337 113.479C333.15 113.828 333.056 114.237 333.056 114.706H331.17C331.17 113.909 331.354 113.212 331.72 112.616C332.086 112.019 332.589 111.557 333.229 111.229C333.868 110.896 334.594 110.73 335.408 110.73C336.231 110.73 336.955 110.894 337.581 111.222C338.212 111.546 338.704 111.989 339.058 112.552C339.412 113.11 339.589 113.741 339.589 114.444C339.589 114.93 339.497 115.405 339.314 115.869C339.135 116.334 338.822 116.852 338.374 117.423C337.927 117.989 337.305 118.678 336.508 119.487L333.906 122.21V122.306H339.8V124H331.183ZM341.666 121.443V119.845L347.323 110.909H348.582V113.261H347.783L343.737 119.666V119.768H351.491V121.443H341.666ZM347.873 124V120.957L347.885 120.229V110.909H349.758V124H347.873ZM372.226 118.337L363.738 122.453V120.497L370.002 117.646L369.938 117.755V117.48L370.002 117.595L363.738 114.738V112.788L372.226 116.905V118.337Z" fill="#AD73D2"/>
<rect x="100" y="174" width="30" height="30" rx="4" fill="#CA9DD8" fill-opacity="0.45"/>
<rect x="100" y="219" width="30" height="30" rx="4" fill="#AE37D3"/>
<rect x="100" y="264" width="30" height="30" rx="4" fill="#CA9DD8"/>
<rect x="100" y="304" width="30" height="30" rx="4" fill="#F3F4F6"/>
<rect x="100" y="347" width="30" height="30" rx="4" fill="#AE37D3"/>
<rect x="152" y="174" width="30" height="30" rx="4" fill="#F3F4F6"/>
<rect x="152" y="219" width="30" height="30" rx="4" fill="#F3F4F6"/>
<rect x="152" y="264" width="30" height="30" rx="4" fill="#CA9DD8"/>
<rect x="152" y="304" width="30" height="30" rx="4" fill="#CA9DD8"/>
<rect x="152" y="347" width="30" height="30" rx="4" fill="#CA9DD8" fill-opacity="0.45"/>
<rect x="206" y="174" width="30" height="30" rx="4" fill="#CA9DD8"/>
<rect x="206" y="219" width="30" height="30" rx="4" fill="#AE37D3"/>
<rect x="206" y="264" width="30" height="30" rx="4" fill="#AE37D3"/>
<rect x="206" y="304" width="30" height="30" rx="4" fill="#CA9DD8"/>
<rect x="206" y="347" width="30" height="30" rx="4" fill="#CA9DD8" fill-opacity="0.45"/>
<rect x="258" y="174" width="30" height="30" rx="4" fill="#CA9DD8"/>
<rect x="258" y="219" width="30" height="30" rx="4" fill="#CA9DD8" fill-opacity="0.45"/>
<rect x="258" y="264" width="30" height="30" rx="4" fill="#AE37D3"/>
<rect x="258" y="304" width="30" height="30" rx="4" fill="#CA9DD8" fill-opacity="0.45"/>
<rect x="258" y="347" width="30" height="30" rx="4" fill="#CA9DD8"/>
<rect x="307" y="174" width="30" height="30" rx="4" fill="#CA9DD8"/>
<rect x="307" y="219" width="30" height="30" rx="4" fill="#CA9DD8"/>
<rect x="307" y="264" width="30" height="30" rx="4" fill="#F3F4F6"/>
<rect x="307" y="304" width="30" height="30" rx="4" fill="#CA9DD8" fill-opacity="0.45"/>
<rect x="307" y="347" width="30" height="30" rx="4" fill="#CA9DD8"/>
<rect x="357" y="219" width="30" height="30" rx="4" fill="#F3F4F6"/>
<rect x="357" y="264" width="30" height="30" rx="4" fill="#F3F4F6"/>
<rect x="357" y="304" width="30" height="30" rx="4" fill="#AE37D3"/>
<rect x="357" y="347" width="30" height="30" rx="4" fill="#AE37D3"/>
<rect x="47" y="174" width="30" height="30" rx="4" fill="#F3F4F6"/>
<rect x="47" y="219" width="30" height="30" rx="4" fill="#CA9DD8"/>
<rect x="47" y="264" width="30" height="30" rx="4" fill="#F3F4F6"/>
<rect x="47" y="304" width="30" height="30" rx="4" fill="#F3F4F6"/>
<rect x="47" y="347" width="30" height="30" rx="4" fill="#F3F4F6"/>
<rect x="357" y="174" width="30" height="30" rx="4" fill="#AE37D3"/>
<path d="M55.7727 147.273C55.7045 146.697 55.428 146.25 54.9432 145.932C54.4583 145.614 53.8636 145.455 53.1591 145.455C52.6439 145.455 52.1932 145.538 51.8068 145.705C51.4242 145.871 51.125 146.1 50.9091 146.392C50.697 146.684 50.5909 147.015 50.5909 147.386C50.5909 147.697 50.6648 147.964 50.8125 148.188C50.964 148.407 51.1572 148.591 51.392 148.739C51.6269 148.883 51.8731 149.002 52.1307 149.097C52.3883 149.187 52.625 149.261 52.8409 149.318L54.0227 149.636C54.3258 149.716 54.6629 149.826 55.0341 149.966C55.4091 150.106 55.767 150.297 56.108 150.54C56.4527 150.778 56.7367 151.085 56.9602 151.46C57.1837 151.835 57.2955 152.295 57.2955 152.841C57.2955 153.47 57.1307 154.038 56.8011 154.545C56.4754 155.053 55.9981 155.456 55.3693 155.756C54.7443 156.055 53.9848 156.205 53.0909 156.205C52.2576 156.205 51.536 156.07 50.9261 155.801C50.3201 155.532 49.8428 155.157 49.4943 154.676C49.1496 154.195 48.9545 153.636 48.9091 153H50.3636C50.4015 153.439 50.5492 153.803 50.8068 154.091C51.0682 154.375 51.3977 154.587 51.7955 154.727C52.197 154.864 52.6288 154.932 53.0909 154.932C53.6288 154.932 54.1117 154.845 54.5398 154.67C54.9678 154.492 55.3068 154.246 55.5568 153.932C55.8068 153.614 55.9318 153.242 55.9318 152.818C55.9318 152.432 55.8239 152.117 55.608 151.875C55.392 151.633 55.108 151.436 54.7557 151.284C54.4034 151.133 54.0227 151 53.6136 150.886L52.1818 150.477C51.2727 150.216 50.553 149.843 50.0227 149.358C49.4924 148.873 49.2273 148.239 49.2273 147.455C49.2273 146.803 49.4034 146.235 49.7557 145.75C50.1117 145.261 50.589 144.883 51.1875 144.614C51.7898 144.341 52.4621 144.205 53.2045 144.205C53.9545 144.205 54.6212 144.339 55.2045 144.608C55.7879 144.873 56.25 145.237 56.5909 145.699C56.9356 146.161 57.1174 146.686 57.1364 147.273H55.7727ZM64.9304 152.432V147.273H66.2713V156H64.9304V154.523H64.8395C64.6349 154.966 64.3168 155.343 63.8849 155.653C63.4531 155.96 62.9077 156.114 62.2486 156.114C61.7031 156.114 61.2183 155.994 60.794 155.756C60.3698 155.513 60.0365 155.15 59.794 154.665C59.5516 154.176 59.4304 153.561 59.4304 152.818V147.273H60.7713V152.727C60.7713 153.364 60.9493 153.871 61.3054 154.25C61.6652 154.629 62.1236 154.818 62.6804 154.818C63.0137 154.818 63.3527 154.733 63.6974 154.562C64.0459 154.392 64.3376 154.131 64.5724 153.778C64.8111 153.426 64.9304 152.977 64.9304 152.432ZM70.0682 150.75V156H68.7273V147.273H70.0227V148.636H70.1364C70.3409 148.193 70.6515 147.837 71.0682 147.568C71.4848 147.295 72.0227 147.159 72.6818 147.159C73.2727 147.159 73.7898 147.28 74.233 147.523C74.6761 147.761 75.0208 148.125 75.267 148.614C75.5133 149.098 75.6364 149.712 75.6364 150.455V156H74.2955V150.545C74.2955 149.86 74.1174 149.326 73.7614 148.943C73.4053 148.557 72.9167 148.364 72.2955 148.364C71.8674 148.364 71.4848 148.456 71.1477 148.642C70.8144 148.828 70.5511 149.098 70.358 149.455C70.1648 149.811 70.0682 150.242 70.0682 150.75Z" fill="black"/>
<path d="M99.4091 144.364H101.091L105.045 154.023H105.182L109.136 144.364H110.818V156H109.5V147.159H109.386L105.75 156H104.477L100.841 147.159H100.727V156H99.4091V144.364ZM117.007 156.182C116.219 156.182 115.528 155.994 114.933 155.619C114.342 155.244 113.88 154.72 113.547 154.045C113.217 153.371 113.053 152.583 113.053 151.682C113.053 150.773 113.217 149.979 113.547 149.301C113.88 148.623 114.342 148.097 114.933 147.722C115.528 147.347 116.219 147.159 117.007 147.159C117.795 147.159 118.484 147.347 119.075 147.722C119.67 148.097 120.132 148.623 120.462 149.301C120.795 149.979 120.962 150.773 120.962 151.682C120.962 152.583 120.795 153.371 120.462 154.045C120.132 154.72 119.67 155.244 119.075 155.619C118.484 155.994 117.795 156.182 117.007 156.182ZM117.007 154.977C117.606 154.977 118.098 154.824 118.484 154.517C118.871 154.21 119.157 153.807 119.342 153.307C119.528 152.807 119.621 152.265 119.621 151.682C119.621 151.098 119.528 150.555 119.342 150.051C119.157 149.547 118.871 149.14 118.484 148.83C118.098 148.519 117.606 148.364 117.007 148.364C116.409 148.364 115.916 148.519 115.53 148.83C115.143 149.14 114.857 149.547 114.672 150.051C114.486 150.555 114.393 151.098 114.393 151.682C114.393 152.265 114.486 152.807 114.672 153.307C114.857 153.807 115.143 154.21 115.53 154.517C115.916 154.824 116.409 154.977 117.007 154.977ZM124.349 150.75V156H123.009V147.273H124.304V148.636H124.418C124.622 148.193 124.933 147.837 125.349 147.568C125.766 147.295 126.304 147.159 126.963 147.159C127.554 147.159 128.071 147.28 128.514 147.523C128.957 147.761 129.302 148.125 129.548 148.614C129.795 149.098 129.918 149.712 129.918 150.455V156H128.577V150.545C128.577 149.86 128.399 149.326 128.043 148.943C127.687 148.557 127.198 148.364 126.577 148.364C126.149 148.364 125.766 148.456 125.429 148.642C125.096 148.828 124.832 149.098 124.639 149.455C124.446 149.811 124.349 150.242 124.349 150.75Z" fill="black"/>
<path d="M153.773 145.614V144.364H162.5V145.614H158.841V156H157.432V145.614H153.773ZM168.805 152.432V147.273H170.146V156H168.805V154.523H168.714C168.51 154.966 168.192 155.343 167.76 155.653C167.328 155.96 166.783 156.114 166.124 156.114C165.578 156.114 165.093 155.994 164.669 155.756C164.245 155.513 163.911 155.15 163.669 154.665C163.427 154.176 163.305 153.561 163.305 152.818V147.273H164.646V152.727C164.646 153.364 164.824 153.871 165.18 154.25C165.54 154.629 165.999 154.818 166.555 154.818C166.889 154.818 167.228 154.733 167.572 154.562C167.921 154.392 168.213 154.131 168.447 153.778C168.686 153.426 168.805 152.977 168.805 152.432ZM176.261 156.182C175.42 156.182 174.695 155.996 174.085 155.625C173.479 155.25 173.011 154.727 172.682 154.057C172.356 153.383 172.193 152.598 172.193 151.705C172.193 150.811 172.356 150.023 172.682 149.341C173.011 148.655 173.47 148.121 174.057 147.739C174.648 147.352 175.337 147.159 176.125 147.159C176.58 147.159 177.028 147.235 177.472 147.386C177.915 147.538 178.318 147.784 178.682 148.125C179.045 148.462 179.335 148.909 179.551 149.466C179.767 150.023 179.875 150.708 179.875 151.523V152.091H173.148V150.932H178.511C178.511 150.439 178.413 150 178.216 149.614C178.023 149.227 177.746 148.922 177.386 148.699C177.03 148.475 176.61 148.364 176.125 148.364C175.591 148.364 175.129 148.496 174.739 148.761C174.352 149.023 174.055 149.364 173.847 149.784C173.638 150.205 173.534 150.655 173.534 151.136V151.909C173.534 152.568 173.648 153.127 173.875 153.585C174.106 154.04 174.426 154.386 174.835 154.625C175.244 154.86 175.72 154.977 176.261 154.977C176.614 154.977 176.932 154.928 177.216 154.83C177.504 154.727 177.752 154.576 177.96 154.375C178.169 154.17 178.33 153.917 178.443 153.614L179.739 153.977C179.602 154.417 179.373 154.803 179.051 155.136C178.729 155.466 178.331 155.723 177.858 155.909C177.384 156.091 176.852 156.182 176.261 156.182Z" fill="black"/>
<path d="M207.523 156L204.341 144.364H205.773L208.205 153.841H208.318L210.795 144.364H212.386L214.864 153.841H214.977L217.409 144.364H218.841L215.659 156H214.205L211.636 146.727H211.545L208.977 156H207.523ZM223.261 156.182C222.42 156.182 221.695 155.996 221.085 155.625C220.479 155.25 220.011 154.727 219.682 154.057C219.356 153.383 219.193 152.598 219.193 151.705C219.193 150.811 219.356 150.023 219.682 149.341C220.011 148.655 220.47 148.121 221.057 147.739C221.648 147.352 222.337 147.159 223.125 147.159C223.58 147.159 224.028 147.235 224.472 147.386C224.915 147.538 225.318 147.784 225.682 148.125C226.045 148.462 226.335 148.909 226.551 149.466C226.767 150.023 226.875 150.708 226.875 151.523V152.091H220.148V150.932H225.511C225.511 150.439 225.413 150 225.216 149.614C225.023 149.227 224.746 148.922 224.386 148.699C224.03 148.475 223.61 148.364 223.125 148.364C222.591 148.364 222.129 148.496 221.739 148.761C221.352 149.023 221.055 149.364 220.847 149.784C220.638 150.205 220.534 150.655 220.534 151.136V151.909C220.534 152.568 220.648 153.127 220.875 153.585C221.106 154.04 221.426 154.386 221.835 154.625C222.244 154.86 222.72 154.977 223.261 154.977C223.614 154.977 223.932 154.928 224.216 154.83C224.504 154.727 224.752 154.576 224.96 154.375C225.169 154.17 225.33 153.917 225.443 153.614L226.739 153.977C226.602 154.417 226.373 154.803 226.051 155.136C225.729 155.466 225.331 155.723 224.858 155.909C224.384 156.091 223.852 156.182 223.261 156.182ZM232.21 156.182C231.483 156.182 230.841 155.998 230.284 155.631C229.727 155.259 229.292 154.737 228.977 154.062C228.663 153.384 228.506 152.583 228.506 151.659C228.506 150.742 228.663 149.947 228.977 149.273C229.292 148.598 229.729 148.078 230.29 147.71C230.85 147.343 231.498 147.159 232.233 147.159C232.801 147.159 233.25 147.254 233.58 147.443C233.913 147.629 234.167 147.841 234.341 148.08C234.519 148.314 234.657 148.508 234.756 148.659H234.869V144.364H236.21V156H234.915V154.659H234.756C234.657 154.818 234.517 155.019 234.335 155.261C234.153 155.5 233.894 155.714 233.557 155.903C233.22 156.089 232.771 156.182 232.21 156.182ZM232.392 154.977C232.93 154.977 233.384 154.837 233.756 154.557C234.127 154.273 234.409 153.881 234.602 153.381C234.795 152.877 234.892 152.295 234.892 151.636C234.892 150.985 234.797 150.415 234.608 149.926C234.419 149.434 234.138 149.051 233.767 148.778C233.396 148.502 232.938 148.364 232.392 148.364C231.824 148.364 231.35 148.509 230.972 148.801C230.597 149.089 230.314 149.481 230.125 149.977C229.939 150.47 229.847 151.023 229.847 151.636C229.847 152.258 229.941 152.822 230.131 153.33C230.324 153.833 230.608 154.235 230.983 154.534C231.362 154.83 231.831 154.977 232.392 154.977Z" fill="black"/>
<path d="M258.773 145.614V144.364H267.5V145.614H263.841V156H262.432V145.614H258.773ZM270.834 150.75V156H269.493V144.364H270.834V148.636H270.947C271.152 148.186 271.459 147.828 271.868 147.562C272.281 147.294 272.83 147.159 273.516 147.159C274.11 147.159 274.631 147.278 275.078 147.517C275.525 147.752 275.872 148.114 276.118 148.602C276.368 149.087 276.493 149.705 276.493 150.455V156H275.152V150.545C275.152 149.852 274.972 149.316 274.612 148.938C274.256 148.555 273.762 148.364 273.129 148.364C272.69 148.364 272.296 148.456 271.947 148.642C271.603 148.828 271.33 149.098 271.129 149.455C270.932 149.811 270.834 150.242 270.834 150.75ZM284.446 152.432V147.273H285.787V156H284.446V154.523H284.355C284.151 154.966 283.832 155.343 283.401 155.653C282.969 155.96 282.423 156.114 281.764 156.114C281.219 156.114 280.734 155.994 280.31 155.756C279.885 155.513 279.552 155.15 279.31 154.665C279.067 154.176 278.946 153.561 278.946 152.818V147.273H280.287V152.727C280.287 153.364 280.465 153.871 280.821 154.25C281.181 154.629 281.639 154.818 282.196 154.818C282.529 154.818 282.868 154.733 283.213 154.562C283.562 154.392 283.853 154.131 284.088 153.778C284.327 153.426 284.446 152.977 284.446 152.432Z" fill="black"/>
<path d="M313.409 156V144.364H320.386V145.614H314.818V149.545H319.864V150.795H314.818V156H313.409ZM322.524 156V147.273H323.82V148.591H323.911C324.07 148.159 324.357 147.809 324.774 147.54C325.191 147.271 325.661 147.136 326.183 147.136C326.282 147.136 326.405 147.138 326.553 147.142C326.7 147.146 326.812 147.152 326.888 147.159V148.523C326.842 148.511 326.738 148.494 326.575 148.472C326.416 148.445 326.248 148.432 326.07 148.432C325.645 148.432 325.267 148.521 324.933 148.699C324.604 148.873 324.342 149.116 324.149 149.426C323.96 149.733 323.865 150.083 323.865 150.477V156H322.524ZM328.477 156V147.273H329.818V156H328.477ZM329.159 145.818C328.898 145.818 328.672 145.729 328.483 145.551C328.297 145.373 328.205 145.159 328.205 144.909C328.205 144.659 328.297 144.445 328.483 144.267C328.672 144.089 328.898 144 329.159 144C329.42 144 329.644 144.089 329.83 144.267C330.019 144.445 330.114 144.659 330.114 144.909C330.114 145.159 330.019 145.373 329.83 145.551C329.644 145.729 329.42 145.818 329.159 145.818Z" fill="black"/>
<path d="M366.773 147.273C366.705 146.697 366.428 146.25 365.943 145.932C365.458 145.614 364.864 145.455 364.159 145.455C363.644 145.455 363.193 145.538 362.807 145.705C362.424 145.871 362.125 146.1 361.909 146.392C361.697 146.684 361.591 147.015 361.591 147.386C361.591 147.697 361.665 147.964 361.812 148.188C361.964 148.407 362.157 148.591 362.392 148.739C362.627 148.883 362.873 149.002 363.131 149.097C363.388 149.187 363.625 149.261 363.841 149.318L365.023 149.636C365.326 149.716 365.663 149.826 366.034 149.966C366.409 150.106 366.767 150.297 367.108 150.54C367.453 150.778 367.737 151.085 367.96 151.46C368.184 151.835 368.295 152.295 368.295 152.841C368.295 153.47 368.131 154.038 367.801 154.545C367.475 155.053 366.998 155.456 366.369 155.756C365.744 156.055 364.985 156.205 364.091 156.205C363.258 156.205 362.536 156.07 361.926 155.801C361.32 155.532 360.843 155.157 360.494 154.676C360.15 154.195 359.955 153.636 359.909 153H361.364C361.402 153.439 361.549 153.803 361.807 154.091C362.068 154.375 362.398 154.587 362.795 154.727C363.197 154.864 363.629 154.932 364.091 154.932C364.629 154.932 365.112 154.845 365.54 154.67C365.968 154.492 366.307 154.246 366.557 153.932C366.807 153.614 366.932 153.242 366.932 152.818C366.932 152.432 366.824 152.117 366.608 151.875C366.392 151.633 366.108 151.436 365.756 151.284C365.403 151.133 365.023 151 364.614 150.886L363.182 150.477C362.273 150.216 361.553 149.843 361.023 149.358C360.492 148.873 360.227 148.239 360.227 147.455C360.227 146.803 360.403 146.235 360.756 145.75C361.112 145.261 361.589 144.883 362.188 144.614C362.79 144.341 363.462 144.205 364.205 144.205C364.955 144.205 365.621 144.339 366.205 144.608C366.788 144.873 367.25 145.237 367.591 145.699C367.936 146.161 368.117 146.686 368.136 147.273H366.773ZM372.999 156.205C372.446 156.205 371.944 156.1 371.493 155.892C371.042 155.68 370.684 155.375 370.419 154.977C370.154 154.576 370.021 154.091 370.021 153.523C370.021 153.023 370.12 152.617 370.317 152.307C370.514 151.992 370.777 151.746 371.107 151.568C371.436 151.39 371.8 151.258 372.197 151.17C372.599 151.08 373.002 151.008 373.408 150.955C373.938 150.886 374.368 150.835 374.697 150.801C375.031 150.763 375.273 150.701 375.425 150.614C375.58 150.527 375.658 150.375 375.658 150.159V150.114C375.658 149.553 375.504 149.117 375.197 148.807C374.894 148.496 374.434 148.341 373.817 148.341C373.177 148.341 372.675 148.481 372.311 148.761C371.947 149.042 371.692 149.341 371.544 149.659L370.271 149.205C370.499 148.674 370.802 148.261 371.18 147.966C371.563 147.667 371.98 147.458 372.43 147.341C372.885 147.22 373.332 147.159 373.771 147.159C374.052 147.159 374.374 147.193 374.737 147.261C375.105 147.326 375.459 147.46 375.8 147.665C376.144 147.869 376.43 148.178 376.658 148.591C376.885 149.004 376.999 149.557 376.999 150.25V156H375.658V154.818H375.589C375.499 155.008 375.347 155.21 375.135 155.426C374.923 155.642 374.641 155.826 374.288 155.977C373.936 156.129 373.506 156.205 372.999 156.205ZM373.203 155C373.733 155 374.18 154.896 374.544 154.688C374.911 154.479 375.188 154.21 375.374 153.881C375.563 153.551 375.658 153.205 375.658 152.841V151.614C375.601 151.682 375.476 151.744 375.283 151.801C375.093 151.854 374.874 151.902 374.624 151.943C374.377 151.981 374.137 152.015 373.902 152.045C373.671 152.072 373.483 152.095 373.339 152.114C372.991 152.159 372.665 152.233 372.362 152.335C372.063 152.434 371.821 152.583 371.635 152.784C371.453 152.981 371.362 153.25 371.362 153.591C371.362 154.057 371.535 154.409 371.879 154.648C372.228 154.883 372.669 155 373.203 155ZM383.241 147.273V148.409H378.719V147.273H383.241ZM380.037 145.182H381.378V153.5C381.378 153.879 381.433 154.163 381.543 154.352C381.656 154.538 381.8 154.663 381.974 154.727C382.152 154.788 382.34 154.818 382.537 154.818C382.685 154.818 382.806 154.811 382.901 154.795C382.995 154.777 383.071 154.761 383.128 154.75L383.401 155.955C383.31 155.989 383.183 156.023 383.02 156.057C382.857 156.095 382.651 156.114 382.401 156.114C382.022 156.114 381.651 156.032 381.287 155.869C380.927 155.706 380.628 155.458 380.389 155.125C380.154 154.792 380.037 154.371 380.037 153.864V145.182Z" fill="black"/>
<path d="M55.4752 29.6751L58.8269 28.8011C59.2765 29.7134 59.8442 30.4699 60.5301 31.0705C61.2069 31.6734 61.9613 32.1309 62.7933 32.4432C63.6187 32.7668 64.4877 32.9444 65.4004 32.9758C66.3131 33.0072 67.2289 32.903 68.1479 32.6634C69.8237 32.2264 71.2315 31.407 72.3711 30.2053C73.5017 29.0059 74.2529 27.4773 74.6248 25.6194C74.9877 23.7638 74.8566 21.6378 74.2316 19.2412C73.6066 16.8446 72.6827 14.9253 71.4598 13.4833C70.228 12.0436 68.8259 11.0765 67.2536 10.5821C65.6723 10.0899 64.0437 10.0624 62.3679 10.4994C61.4489 10.7391 60.5988 11.0955 59.8177 11.5686C59.0366 12.0417 58.3637 12.6165 57.7992 13.293C57.228 13.9808 56.7943 14.7531 56.4981 15.6097C56.1953 16.4778 56.0693 17.4151 56.1201 18.4219L52.7685 19.2959C52.6519 17.8156 52.7812 16.4299 53.1566 15.1388C53.532 13.8477 54.113 12.681 54.8996 11.6387C55.6886 10.6054 56.6474 9.72512 57.776 8.99779C58.8956 8.2728 60.1537 7.72821 61.5502 7.36402C63.9108 6.74842 66.1604 6.77758 68.2991 7.45151C70.4379 8.12543 72.3116 9.38809 73.9202 11.2395C75.5289 13.0909 76.7138 15.4762 77.4751 18.3953C78.2364 21.3145 78.3672 23.9747 77.8676 26.3759C77.368 28.7771 76.3495 30.794 74.8123 32.4265C73.275 34.0591 71.3261 35.1832 68.9656 35.7988C67.5691 36.163 66.2053 36.3021 64.8742 36.2162C63.5342 36.1327 62.2664 35.8282 61.0709 35.3028C59.8778 34.7865 58.8022 34.0566 57.8441 33.1133C56.8884 32.1789 56.0987 31.0329 55.4752 29.6751Z" fill="black"/>
<path d="M92.7526 29.6751L96.1042 28.8011C96.5538 29.7134 97.1216 30.4699 97.8074 31.0705C98.4843 31.6734 99.2387 32.1309 100.071 32.4432C100.896 32.7668 101.765 32.9444 102.678 32.9758C103.59 33.0072 104.506 32.903 105.425 32.6634C107.101 32.2264 108.509 31.407 109.648 30.2053C110.779 29.0059 111.53 27.4773 111.902 25.6194C112.265 23.7638 112.134 21.6378 111.509 19.2412C110.884 16.8446 109.96 14.9253 108.737 13.4833C107.505 12.0436 106.103 11.0765 104.531 10.5821C102.95 10.0899 101.321 10.0624 99.6452 10.4994C98.7262 10.7391 97.8762 11.0955 97.095 11.5686C96.3139 12.0417 95.6411 12.6165 95.0766 13.293C94.5054 13.9808 94.0717 14.7531 93.7755 15.6097C93.4726 16.4778 93.3466 17.4151 93.3974 18.4219L90.0458 19.2959C89.9292 17.8156 90.0586 16.4299 90.4339 15.1388C90.8093 13.8477 91.3903 12.681 92.177 11.6387C92.966 10.6054 93.9248 9.72512 95.0534 8.99779C96.173 8.2728 97.431 7.72821 98.8275 7.36402C101.188 6.74842 103.438 6.77758 105.576 7.45151C107.715 8.12543 109.589 9.38809 111.198 11.2395C112.806 13.0909 113.991 15.4762 114.752 18.3953C115.514 21.3145 115.645 23.9747 115.145 26.3759C114.645 28.7771 113.627 30.794 112.09 32.4265C110.552 34.0591 108.603 35.1832 106.243 35.7988C104.846 36.163 103.483 36.3021 102.152 36.2162C100.812 36.1327 99.5437 35.8282 98.3482 35.3028C97.1551 34.7865 96.0795 34.0566 95.1214 33.1133C94.1657 32.1789 93.3761 31.0329 92.7526 29.6751Z" fill="black"/>
<path d="M130.03 29.6751L133.382 28.8011C133.831 29.7134 134.399 30.4699 135.085 31.0705C135.762 31.6734 136.516 32.1309 137.348 32.4432C138.173 32.7668 139.042 32.9444 139.955 32.9758C140.868 33.0072 141.784 32.903 142.703 32.6634C144.378 32.2264 145.786 31.407 146.926 30.2053C148.056 29.0059 148.808 27.4773 149.179 25.6194C149.542 23.7638 149.411 21.6378 148.786 19.2412C148.161 16.8446 147.237 14.9253 146.015 13.4833C144.783 12.0436 143.381 11.0765 141.808 10.5821C140.227 10.0899 138.598 10.0624 136.923 10.4994C136.004 10.7391 135.153 11.0955 134.372 11.5686C133.591 12.0417 132.918 12.6165 132.354 13.293C131.783 13.9808 131.349 14.7531 131.053 15.6097C130.75 16.4778 130.624 17.4151 130.675 18.4219L127.323 19.2959C127.207 17.8156 127.336 16.4299 127.711 15.1388C128.087 13.8477 128.668 12.681 129.454 11.6387C130.243 10.6054 131.202 9.72512 132.331 8.99779C133.45 8.2728 134.708 7.72821 136.105 7.36402C138.465 6.74842 140.715 6.77758 142.854 7.45151C144.993 8.12543 146.866 9.38809 148.475 11.2395C150.084 13.0909 151.269 15.4762 152.03 18.3953C152.791 21.3145 152.922 23.9747 152.422 26.3759C151.923 28.7771 150.904 30.794 149.367 32.4265C147.83 34.0591 145.881 35.1832 143.52 35.7988C142.124 36.163 140.76 36.3021 139.429 36.2162C138.089 36.1327 136.821 35.8282 135.626 35.3028C134.432 34.7865 133.357 34.0566 132.399 33.1133C131.443 32.1789 130.653 31.0329 130.03 29.6751Z" fill="black"/>
<path d="M167.307 29.6751L170.659 28.8011C171.109 29.7134 171.676 30.4699 172.362 31.0705C173.039 31.6734 173.793 32.1309 174.625 32.4432C175.451 32.7668 176.32 32.9444 177.232 32.9758C178.145 33.0072 179.061 32.903 179.98 32.6634C181.656 32.2264 183.063 31.407 184.203 30.2053C185.334 29.0059 186.085 27.4773 186.457 25.6194C186.82 23.7638 186.689 21.6378 186.064 19.2412C185.439 16.8446 184.515 14.9253 183.292 13.4833C182.06 12.0436 180.658 11.0765 179.086 10.5821C177.504 10.0899 175.876 10.0624 174.2 10.4994C173.281 10.7391 172.431 11.0955 171.65 11.5686C170.869 12.0417 170.196 12.6165 169.631 13.293C169.06 13.9808 168.626 14.7531 168.33 15.6097C168.027 16.4778 167.901 17.4151 167.952 18.4219L164.601 19.2959C164.484 17.8156 164.613 16.4299 164.989 15.1388C165.364 13.8477 165.945 12.681 166.732 11.6387C167.521 10.6054 168.479 9.72512 169.608 8.99779C170.728 8.2728 171.986 7.72821 173.382 7.36402C175.743 6.74842 177.992 6.77758 180.131 7.45151C182.27 8.12543 184.144 9.38809 185.752 11.2395C187.361 13.0909 188.546 15.4762 189.307 18.3953C190.068 21.3145 190.199 23.9747 189.7 26.3759C189.2 28.7771 188.182 30.794 186.644 32.4265C185.107 34.0591 183.158 35.1832 180.798 35.7988C179.401 36.163 178.037 36.3021 176.706 36.2162C175.366 36.1327 174.098 35.8282 172.903 35.3028C171.71 34.7865 170.634 34.0566 169.676 33.1133C168.72 32.1789 167.931 31.0329 167.307 29.6751Z" fill="black"/>
<path d="M204.585 29.6751L207.936 28.8011C208.386 29.7134 208.954 30.4699 209.639 31.0705C210.316 31.6734 211.071 32.1309 211.903 32.4432C212.728 32.7668 213.597 32.9444 214.51 32.9758C215.422 33.0072 216.338 32.903 217.257 32.6634C218.933 32.2264 220.341 31.407 221.48 30.2053C222.611 29.0059 223.362 27.4773 223.734 25.6194C224.097 23.7638 223.966 21.6378 223.341 19.2412C222.716 16.8446 221.792 14.9253 220.569 13.4833C219.337 12.0436 217.935 11.0765 216.363 10.5821C214.782 10.0899 213.153 10.0624 211.477 10.4994C210.558 10.7391 209.708 11.0955 208.927 11.5686C208.146 12.0417 207.473 12.6165 206.909 13.293C206.337 13.9808 205.904 14.7531 205.608 15.6097C205.305 16.4778 205.179 17.4151 205.229 18.4219L201.878 19.2959C201.761 17.8156 201.891 16.4299 202.266 15.1388C202.641 13.8477 203.222 12.681 204.009 11.6387C204.798 10.6054 205.757 9.72512 206.885 8.99779C208.005 8.2728 209.263 7.72821 210.66 7.36402C213.02 6.74842 215.27 6.77758 217.409 7.45151C219.547 8.12543 221.421 9.38809 223.03 11.2395C224.638 13.0909 225.823 15.4762 226.584 18.3953C227.346 21.3145 227.477 23.9747 226.977 26.3759C226.477 28.7771 225.459 30.794 223.922 32.4265C222.384 34.0591 220.436 35.1832 218.075 35.7988C216.678 36.163 215.315 36.3021 213.984 36.2162C212.644 36.1327 211.376 35.8282 210.18 35.3028C208.987 34.7865 207.912 34.0566 206.953 33.1133C205.998 32.1789 205.208 31.0329 204.585 29.6751Z" fill="black"/>
<path d="M241.862 29.6751L245.214 28.8011C245.663 29.7134 246.231 30.4699 246.917 31.0705C247.594 31.6734 248.348 32.1309 249.18 32.4432C250.005 32.7668 250.874 32.9444 251.787 32.9758C252.7 33.0072 253.616 32.903 254.535 32.6634C256.21 32.2264 257.618 31.407 258.758 30.2053C259.888 29.0059 260.64 27.4773 261.012 25.6194C261.374 23.7638 261.243 21.6378 260.618 19.2412C259.993 16.8446 259.069 14.9253 257.847 13.4833C256.615 12.0436 255.213 11.0765 253.64 10.5821C252.059 10.0899 250.43 10.0624 248.755 10.4994C247.836 10.7391 246.986 11.0955 246.204 11.5686C245.423 12.0417 244.75 12.6165 244.186 13.293C243.615 13.9808 243.181 14.7531 242.885 15.6097C242.582 16.4778 242.456 17.4151 242.507 18.4219L239.155 19.2959C239.039 17.8156 239.168 16.4299 239.543 15.1388C239.919 13.8477 240.5 12.681 241.286 11.6387C242.075 10.6054 243.034 9.72512 244.163 8.99779C245.282 8.2728 246.54 7.72821 247.937 7.36402C250.297 6.74842 252.547 6.77758 254.686 7.45151C256.825 8.12543 258.698 9.38809 260.307 11.2395C261.916 13.0909 263.101 15.4762 263.862 18.3953C264.623 21.3145 264.754 23.9747 264.254 26.3759C263.755 28.7771 262.736 30.794 261.199 32.4265C259.662 34.0591 257.713 35.1832 255.352 35.7988C253.956 36.163 252.592 36.3021 251.261 36.2162C249.921 36.1327 248.653 35.8282 247.458 35.3028C246.264 34.7865 245.189 34.0566 244.231 33.1133C243.275 32.1789 242.485 31.0329 241.862 29.6751Z" fill="black"/>
<path d="M279.139 29.6751L282.491 28.8011C282.941 29.7134 283.508 30.4699 284.194 31.0705C284.871 31.6734 285.625 32.1309 286.457 32.4432C287.283 32.7668 288.152 32.9444 289.064 32.9758C289.977 33.0072 290.893 32.903 291.812 32.6634C293.488 32.2264 294.896 31.407 296.035 30.2053C297.166 29.0059 297.917 27.4773 298.289 25.6194C298.652 23.7638 298.521 21.6378 297.896 19.2412C297.271 16.8446 296.347 14.9253 295.124 13.4833C293.892 12.0436 292.49 11.0765 290.918 10.5821C289.336 10.0899 287.708 10.0624 286.032 10.4994C285.113 10.7391 284.263 11.0955 283.482 11.5686C282.701 12.0417 282.028 12.6165 281.463 13.293C280.892 13.9808 280.458 14.7531 280.162 15.6097C279.859 16.4778 279.733 17.4151 279.784 18.4219L276.433 19.2959C276.316 17.8156 276.445 16.4299 276.821 15.1388C277.196 13.8477 277.777 12.681 278.564 11.6387C279.353 10.6054 280.312 9.72512 281.44 8.99779C282.56 8.2728 283.818 7.72821 285.214 7.36402C287.575 6.74842 289.824 6.77758 291.963 7.45151C294.102 8.12543 295.976 9.38809 297.584 11.2395C299.193 13.0909 300.378 15.4762 301.139 18.3953C301.9 21.3145 302.031 23.9747 301.532 26.3759C301.032 28.7771 300.014 30.794 298.476 32.4265C296.939 34.0591 294.99 35.1832 292.63 35.7988C291.233 36.163 289.869 36.3021 288.538 36.2162C287.198 36.1327 285.93 35.8282 284.735 35.3028C283.542 34.7865 282.466 34.0566 281.508 33.1133C280.552 32.1789 279.763 31.0329 279.139 29.6751Z" fill="black"/>
<path d="M316.417 29.6751L319.768 28.8011C320.218 29.7134 320.786 30.4699 321.471 31.0705C322.148 31.6734 322.903 32.1309 323.735 32.4432C324.56 32.7668 325.429 32.9444 326.342 32.9758C327.254 33.0072 328.17 32.903 329.089 32.6634C330.765 32.2264 332.173 31.407 333.312 30.2053C334.443 29.0059 335.194 27.4773 335.566 25.6194C335.929 23.7638 335.798 21.6378 335.173 19.2412C334.548 16.8446 333.624 14.9253 332.401 13.4833C331.169 12.0436 329.767 11.0765 328.195 10.5821C326.614 10.0899 324.985 10.0624 323.309 10.4994C322.39 10.7391 321.54 11.0955 320.759 11.5686C319.978 12.0417 319.305 12.6165 318.741 13.293C318.169 13.9808 317.736 14.7531 317.44 15.6097C317.137 16.4778 317.011 17.4151 317.062 18.4219L313.71 19.2959C313.593 17.8156 313.723 16.4299 314.098 15.1388C314.473 13.8477 315.054 12.681 315.841 11.6387C316.63 10.6054 317.589 9.72512 318.717 8.99779C319.837 8.2728 321.095 7.72821 322.492 7.36402C324.852 6.74842 327.102 6.77758 329.241 7.45151C331.379 8.12543 333.253 9.38809 334.862 11.2395C336.47 13.0909 337.655 15.4762 338.417 18.3953C339.178 21.3145 339.309 23.9747 338.809 26.3759C338.309 28.7771 337.291 30.794 335.754 32.4265C334.216 34.0591 332.268 35.1832 329.907 35.7988C328.51 36.163 327.147 36.3021 325.816 36.2162C324.476 36.1327 323.208 35.8282 322.012 35.3028C320.819 34.7865 319.744 34.0566 318.785 33.1133C317.83 32.1789 317.04 31.0329 316.417 29.6751Z" fill="black"/>
<path d="M353.694 29.6751L357.046 28.8011C357.495 29.7134 358.063 30.4699 358.749 31.0705C359.426 31.6734 360.18 32.1309 361.012 32.4432C361.837 32.7668 362.706 32.9444 363.619 32.9758C364.532 33.0072 365.448 32.903 366.367 32.6634C368.042 32.2264 369.45 31.407 370.59 30.2053C371.72 29.0059 372.472 27.4773 372.844 25.6194C373.206 23.7638 373.075 21.6378 372.45 19.2412C371.825 16.8446 370.901 14.9253 369.679 13.4833C368.447 12.0436 367.045 11.0765 365.472 10.5821C363.891 10.0899 362.262 10.0624 360.587 10.4994C359.668 10.7391 358.818 11.0955 358.036 11.5686C357.255 12.0417 356.582 12.6165 356.018 13.293C355.447 13.9808 355.013 14.7531 354.717 15.6097C354.414 16.4778 354.288 17.4151 354.339 18.4219L350.987 19.2959C350.871 17.8156 351 16.4299 351.375 15.1388C351.751 13.8477 352.332 12.681 353.118 11.6387C353.907 10.6054 354.866 9.72512 355.995 8.99779C357.114 8.2728 358.372 7.72821 359.769 7.36402C362.13 6.74842 364.379 6.77758 366.518 7.45151C368.657 8.12543 370.53 9.38809 372.139 11.2395C373.748 13.0909 374.933 15.4762 375.694 18.3953C376.455 21.3145 376.586 23.9747 376.086 26.3759C375.587 28.7771 374.568 30.794 373.031 32.4265C371.494 34.0591 369.545 35.1832 367.184 35.7988C365.788 36.163 364.424 36.3021 363.093 36.2162C361.753 36.1327 360.485 35.8282 359.29 35.3028C358.097 34.7865 357.021 34.0566 356.063 33.1133C355.107 32.1789 354.317 31.0329 353.694 29.6751Z" fill="black"/>
<path d="M326.18 465.635C327.17 465.635 327.96 465.915 328.55 466.475C329.15 467.025 329.45 467.785 329.45 468.755C329.45 469.715 329.065 470.5 328.295 471.11C327.525 471.73 326.66 472.04 325.7 472.04C324.75 472.04 323.995 471.915 323.435 471.665C323.435 471.255 323.5 470.99 323.63 470.87C324.07 471.03 324.68 471.11 325.46 471.11C326.29 471.11 326.93 470.93 327.38 470.57C327.57 470.41 327.735 470.18 327.875 469.88C328.015 469.57 328.085 469.21 328.085 468.8C328.085 468.1 327.915 467.555 327.575 467.165C327.235 466.765 326.75 466.565 326.12 466.565C325.64 466.565 325.245 466.605 324.935 466.685C324.635 466.755 324.47 466.79 324.44 466.79C324.23 466.67 324.065 466.525 323.945 466.355L323.78 461.9H328.88C328.88 462.77 328.82 463.52 328.7 464.15C328.53 464.19 328.27 464.21 327.92 464.21C327.86 463.97 327.8 463.5 327.74 462.8H325.13L325.085 465.785C325.385 465.685 325.75 465.635 326.18 465.635ZM339.364 463.055L339.319 460.055C338.769 460.025 338.329 459.965 337.999 459.875L338.059 459.095C338.569 458.945 339.309 458.87 340.279 458.87C340.589 458.87 340.809 458.88 340.939 458.9C340.939 459.08 340.909 459.32 340.849 459.62C340.799 459.91 340.764 460.07 340.744 460.1L340.609 468.965C341.019 468.985 341.454 469.055 341.914 469.175L341.884 469.7C341.194 470.02 340.584 470.18 340.054 470.18C339.944 470.18 339.859 470.175 339.799 470.165C339.719 470.015 339.619 469.67 339.499 469.13C338.349 469.78 337.544 470.13 337.084 470.18C336.124 470.18 335.404 469.815 334.924 469.085C334.444 468.355 334.204 467.42 334.204 466.28C334.204 465.13 334.444 464.165 334.924 463.385C335.414 462.595 336.134 462.2 337.084 462.2C337.824 462.2 338.584 462.485 339.364 463.055ZM337.339 463.22C336.169 463.22 335.584 464.18 335.584 466.1C335.584 466.85 335.704 467.5 335.944 468.05C336.064 468.35 336.239 468.59 336.469 468.77C336.709 468.95 336.984 469.04 337.294 469.04C337.604 469.04 337.964 468.97 338.374 468.83C338.794 468.69 339.154 468.53 339.454 468.35L339.364 464.075C339.094 463.845 338.764 463.645 338.374 463.475C337.984 463.305 337.639 463.22 337.339 463.22ZM348.716 465.095L348.641 468.965C349.071 468.995 349.501 469.065 349.931 469.175L349.901 469.7C349.741 469.78 349.451 469.87 349.031 469.97C348.621 470.06 348.216 470.105 347.816 470.105C347.636 469.745 347.536 469.4 347.516 469.07C346.376 469.82 345.576 470.195 345.116 470.195C344.406 470.195 343.836 470.005 343.406 469.625C342.976 469.245 342.761 468.715 342.761 468.035C342.761 466.465 343.721 465.655 345.641 465.605C346.761 465.575 347.326 465.56 347.336 465.56L347.321 465.05C347.301 464.36 347.171 463.865 346.931 463.565C346.691 463.255 346.261 463.1 345.641 463.1C345.381 463.1 345.101 463.16 344.801 463.28L344.441 464.78C344.391 464.79 344.306 464.795 344.186 464.795L343.571 464.75C343.411 464.32 343.326 463.725 343.316 462.965C343.506 462.865 343.941 462.715 344.621 462.515C345.301 462.305 345.736 462.2 345.926 462.2C346.946 462.2 347.666 462.425 348.086 462.875C348.506 463.325 348.716 464.065 348.716 465.095ZM345.446 469.175C345.736 469.175 346.406 468.85 347.456 468.2L347.381 466.325C346.701 466.385 346.131 466.44 345.671 466.49C345.211 466.54 344.841 466.675 344.561 466.895C344.281 467.105 344.141 467.44 344.141 467.9C344.141 468.75 344.576 469.175 345.446 469.175ZM352.331 472.79C352.711 472.79 353.081 472.425 353.441 471.695C353.811 470.965 354.021 470.4 354.071 470H353.711L351.341 463.4L350.081 463.28C350.081 463 350.166 462.7 350.336 462.38H353.786L353.831 462.905C353.511 463.045 353.156 463.155 352.766 463.235L354.071 467.33L354.416 468.65H354.566L356.366 463.235L355.106 462.905L355.151 462.38H358.526C358.696 462.7 358.781 463 358.781 463.28C358.371 463.33 357.961 463.365 357.551 463.385C357.291 464.145 356.901 465.28 356.381 466.79C355.871 468.3 355.466 469.47 355.166 470.3C354.876 471.13 354.586 471.805 354.296 472.325C354.006 472.845 353.716 473.19 353.426 473.36C353.146 473.54 352.831 473.63 352.481 473.63C351.861 473.63 351.281 473.51 350.741 473.27L350.471 473.135C350.541 471.995 350.586 471.37 350.606 471.26C350.686 471.23 350.976 471.215 351.476 471.215L351.986 472.745C352.076 472.775 352.191 472.79 352.331 472.79ZM360.337 469.04C360.687 469.19 361.112 469.265 361.612 469.265C362.122 469.265 362.522 469.17 362.812 468.98C363.102 468.79 363.247 468.53 363.247 468.2C363.247 467.87 363.112 467.595 362.842 467.375C362.572 467.155 362.242 466.96 361.852 466.79C361.462 466.62 361.072 466.44 360.682 466.25C360.292 466.06 359.962 465.81 359.692 465.5C359.422 465.19 359.287 464.83 359.287 464.42C359.287 463.73 359.517 463.19 359.977 462.8C360.437 462.4 361.072 462.2 361.882 462.2C362.702 462.2 363.472 462.385 364.192 462.755C364.202 462.855 364.207 463.125 364.207 463.565C364.207 463.995 364.162 464.365 364.072 464.675C363.832 464.755 363.547 464.795 363.217 464.795L362.722 463.265C362.502 463.155 362.202 463.1 361.822 463.1C361.452 463.1 361.157 463.2 360.937 463.4C360.717 463.59 360.607 463.835 360.607 464.135C360.607 464.425 360.742 464.68 361.012 464.9C361.292 465.12 361.627 465.32 362.017 465.5C362.407 465.67 362.797 465.855 363.187 466.055C363.577 466.245 363.907 466.5 364.177 466.82C364.457 467.13 364.597 467.49 364.597 467.9C364.597 468.62 364.317 469.185 363.757 469.595C363.207 469.995 362.527 470.195 361.717 470.195C361.277 470.195 360.807 470.125 360.307 469.985C359.807 469.835 359.387 469.645 359.047 469.415C359.047 468.745 359.107 468.15 359.227 467.63C359.457 467.59 359.767 467.57 360.157 467.57L360.337 469.04Z" fill="black"/>
<path d="M380.76 460.417C380.645 461.645 380.564 463.817 381.289 464.742C381.289 464.742 380.948 462.355 384.007 459.361C385.239 458.155 385.523 456.516 385.093 455.286C384.849 454.59 384.403 454.014 384.015 453.612C383.789 453.376 383.962 452.986 384.292 453C386.283 453.089 389.509 453.642 390.88 457.083C391.482 458.594 391.527 460.154 391.24 461.742C391.058 462.755 390.412 465.009 391.886 465.285C392.938 465.483 393.447 464.647 393.675 464.046C393.77 463.795 394.099 463.733 394.277 463.932C396.054 465.954 396.205 468.334 395.838 470.384C395.127 474.346 391.115 477.229 387.129 477.229C382.149 477.229 378.185 474.38 377.158 469.223C376.744 467.141 376.954 463.022 380.164 460.114C380.403 459.896 380.792 460.09 380.76 460.417Z" fill="url(#paint0_radial_1090_1543)"/>
<path d="M388.948 467.825C387.113 465.463 387.935 462.767 388.385 461.693C388.445 461.552 388.284 461.418 388.157 461.505C387.367 462.042 385.75 463.306 384.997 465.085C383.977 467.49 384.05 468.667 384.653 470.105C385.017 470.971 384.595 471.155 384.383 471.187C384.177 471.22 383.987 471.082 383.835 470.939C383.401 470.525 383.088 469.986 382.939 469.404C382.907 469.279 382.743 469.245 382.668 469.348C382.103 470.129 381.81 471.383 381.796 472.27C381.752 475.01 384.015 477.231 386.753 477.231C390.204 477.231 392.718 473.415 390.735 470.224C390.16 469.295 389.619 468.688 388.948 467.825Z" fill="url(#paint1_radial_1090_1543)"/>
</g>
<defs>
<filter id="filter0_d_1090_1543" x="0.800049" y="0.177734" width="417.4" height="505.022" filterUnits="userSpaceOnUse" color-interpolation-filters="sRGB">
<feFlood flood-opacity="0" result="BackgroundImageFix"/>
<feColorMatrix in="SourceAlpha" type="matrix" values="0 0 0 0 0 0 0 0 0 0 0 0 0 0 0 0 0 0 127 0" result="hardAlpha"/>
<feOffset dx="-5" dy="5"/>
<feGaussianBlur stdDeviation="4.5"/>
<feComposite in2="hardAlpha" operator="out"/>
<feColorMatrix type="matrix" values="0 0 0 0 0 0 0 0 0 0 0 0 0 0 0 0 0 0 0.25 0"/>
<feBlend mode="normal" in2="BackgroundImageFix" result="effect1_dropShadow_1090_1543"/>
<feBlend mode="normal" in="SourceGraphic" in2="effect1_dropShadow_1090_1543" result="shape"/>
</filter>
<radialGradient id="paint0_radial_1090_1543" cx="0" cy="0" r="1" gradientUnits="userSpaceOnUse" gradientTransform="translate(386.142 477.292) rotate(-179.751) scale(14.2533 23.3867)">
<stop offset="0.3144" stop-color="#FF9800"/>
<stop offset="0.6616" stop-color="#FF6D00"/>
<stop offset="0.9715" stop-color="#F44336"/>
</radialGradient>
<radialGradient id="paint1_radial_1090_1543" cx="0" cy="0" r="1" gradientUnits="userSpaceOnUse" gradientTransform="translate(386.943 463.108) rotate(90.5787) scale(14.9133 11.2234)">
<stop offset="0.2141" stop-color="#FFF176"/>
<stop offset="0.3275" stop-color="#FFF27D"/>
<stop offset="0.4868" stop-color="#FFF48F"/>
<stop offset="0.6722" stop-color="#FFF7AD"/>
<stop offset="0.7931" stop-color="#FFF9C4"/>
<stop offset="0.8221" stop-color="#FFF8BD" stop-opacity="0.804"/>
<stop offset="0.8627" stop-color="#FFF6AB" stop-opacity="0.529"/>
<stop offset="0.9101" stop-color="#FFF38D" stop-opacity="0.2088"/>
<stop offset="0.9409" stop-color="#FFF176" stop-opacity="0"/>
</radialGradient>
</defs>
</svg>
