<svg width="19" height="25" viewBox="0 0 19 25" fill="none" xmlns="http://www.w3.org/2000/svg">
<path d="M3.75999 7.417C3.64489 8.64469 3.56412 10.8174 4.28902 11.7422C4.28902 11.7422 3.94777 9.35545 7.0069 6.36094C8.23863 5.15546 8.52334 3.51585 8.09325 2.28614C7.84892 1.58951 7.40267 1.01403 7.01498 0.6122C6.78883 0.37595 6.96248 -0.0137605 7.29161 0.000374075C9.28257 0.0892201 12.5093 0.642488 13.8804 4.08325C14.4821 5.59363 14.5265 7.1545 14.2398 8.74161C14.058 9.75526 13.4119 12.0087 14.8859 12.2854C15.9379 12.4832 16.4468 11.6473 16.675 11.0455C16.7699 10.7952 17.099 10.7326 17.2767 10.9325C19.0536 12.9537 19.2051 15.3344 18.8376 17.3839C18.1268 21.3456 14.1146 24.2291 10.1286 24.2291C5.14921 24.2291 1.18547 21.38 0.157685 16.2228C-0.256257 14.141 -0.0462569 10.0218 3.16431 7.11411C3.40258 6.89604 3.79229 7.08988 3.75999 7.417Z" fill="url(#paint0_radial_1235_22155)"/>
<path d="M11.9481 14.8258C10.1126 12.4633 10.9344 9.76765 11.3847 8.69342C11.4453 8.55208 11.2838 8.41881 11.1566 8.50563C10.367 9.04275 8.74964 10.3068 7.99647 12.0857C6.97676 14.4906 7.04945 15.6678 7.6532 17.1055C8.01666 17.9718 7.59464 18.1555 7.38262 18.1878C7.17666 18.2201 6.98685 18.0828 6.83541 17.9395C6.40128 17.5255 6.0883 16.9864 5.93887 16.4049C5.90657 16.2797 5.74301 16.2453 5.6683 16.3483C5.10291 17.1298 4.81013 18.3837 4.79599 19.2701C4.75157 22.0102 7.01512 24.2314 9.7532 24.2314C13.2041 24.2314 15.718 20.415 13.7351 17.2247C13.1596 16.2958 12.6185 15.688 11.9481 14.8258Z" fill="url(#paint1_radial_1235_22155)"/>
<defs>
<radialGradient id="paint0_radial_1235_22155" cx="0" cy="0" r="1" gradientUnits="userSpaceOnUse" gradientTransform="translate(9.14245 24.2919) rotate(-179.751) scale(14.2533 23.3867)">
<stop offset="0.3144" stop-color="#FF9800"/>
<stop offset="0.6616" stop-color="#FF6D00"/>
<stop offset="0.9715" stop-color="#F44336"/>
</radialGradient>
<radialGradient id="paint1_radial_1235_22155" cx="0" cy="0" r="1" gradientUnits="userSpaceOnUse" gradientTransform="translate(9.94297 10.1087) rotate(90.5787) scale(14.9133 11.2234)">
<stop offset="0.2141" stop-color="#FFF176"/>
<stop offset="0.3275" stop-color="#FFF27D"/>
<stop offset="0.4868" stop-color="#FFF48F"/>
<stop offset="0.6722" stop-color="#FFF7AD"/>
<stop offset="0.7931" stop-color="#FFF9C4"/>
<stop offset="0.8221" stop-color="#FFF8BD" stop-opacity="0.804"/>
<stop offset="0.8627" stop-color="#FFF6AB" stop-opacity="0.529"/>
<stop offset="0.9101" stop-color="#FFF38D" stop-opacity="0.2088"/>
<stop offset="0.9409" stop-color="#FFF176" stop-opacity="0"/>
</radialGradient>
</defs>
</svg>
