<svg width="21" height="20" viewBox="0 0 21 20" fill="none" xmlns="http://www.w3.org/2000/svg">
<g clip-path="url(#clip0_381_1379)">
<path d="M10.8061 0.0791016C5.33387 0.0791016 0.896484 4.5157 0.896484 9.98868C0.896484 14.3671 3.73587 18.0816 7.67329 19.3919C8.16851 19.4836 8.35037 19.1769 8.35037 18.9152C8.35037 18.6789 8.34111 17.8982 8.33693 17.0702C5.58 17.6697 4.99827 15.901 4.99827 15.901C4.5475 14.7556 3.89799 14.4511 3.89799 14.4511C2.99894 13.836 3.96578 13.8486 3.96578 13.8486C4.96089 13.9185 5.48487 14.8698 5.48487 14.8698C6.36868 16.3848 7.80307 15.9468 8.36856 15.6936C8.45747 15.0531 8.71433 14.616 8.9977 14.3685C6.79669 14.1179 4.48283 13.2682 4.48283 9.47115C4.48283 8.3893 4.86996 7.50523 5.50391 6.81129C5.40101 6.56165 5.06185 5.55379 5.5999 4.18881C5.5999 4.18881 6.43202 3.92246 8.32573 5.2046C9.11614 4.98496 9.9639 4.87492 10.8061 4.87118C11.6482 4.87492 12.4966 4.98496 13.2886 5.2046C15.18 3.92246 16.011 4.18881 16.011 4.18881C16.5504 5.55379 16.211 6.56165 16.1081 6.81129C16.7435 7.50523 17.128 8.38922 17.128 9.47115C17.128 13.2772 14.8098 14.1153 12.6032 14.3606C12.9586 14.6681 13.2753 15.2712 13.2753 16.1957C13.2753 17.5216 13.2638 18.5888 13.2638 18.9152C13.2638 19.1789 13.4421 19.4879 13.9445 19.3906C17.8797 18.0788 20.7156 14.3656 20.7156 9.98868C20.7156 4.5157 16.2788 0.0791016 10.8061 0.0791016Z" fill="#161614"/>
<path d="M4.60721 14.1954C4.58545 14.2446 4.50788 14.2594 4.4374 14.2256C4.3655 14.1933 4.32509 14.1261 4.34841 14.0767C4.36978 14.026 4.44735 14.0119 4.51907 14.0459C4.59112 14.0782 4.63216 14.146 4.60721 14.1954ZM5.09466 14.6303C5.04741 14.6741 4.955 14.6538 4.89229 14.5845C4.82746 14.5154 4.81535 14.4231 4.86329 14.3786C4.91203 14.3348 5.00163 14.3553 5.06662 14.4244C5.13142 14.4943 5.14409 14.586 5.09466 14.6303ZM5.42909 15.1868C5.36832 15.229 5.26899 15.1894 5.20767 15.1013C5.14696 15.0132 5.14696 14.9075 5.209 14.8652C5.27053 14.8228 5.36832 14.8609 5.43049 14.9483C5.4911 15.0379 5.49118 15.1436 5.42909 15.1868ZM5.99459 15.8313C5.94024 15.8911 5.8246 15.8751 5.73989 15.7934C5.65332 15.7135 5.62914 15.6001 5.68362 15.5402C5.73856 15.4802 5.85492 15.497 5.94024 15.5781C6.02628 15.6578 6.0525 15.7721 5.99459 15.8313ZM6.72545 16.0489C6.70159 16.1265 6.59015 16.1618 6.47791 16.1288C6.36584 16.0948 6.29247 16.0039 6.3151 15.9255C6.33841 15.8474 6.45032 15.8106 6.56341 15.8459C6.67531 15.8797 6.74876 15.9699 6.72545 16.0489ZM7.55736 16.1412C7.56015 16.2229 7.46494 16.2907 7.34712 16.2922C7.2286 16.2947 7.13277 16.2286 7.13153 16.1482C7.13153 16.0657 7.22456 15.9985 7.343 15.9966C7.46082 15.9943 7.55736 16.0599 7.55736 16.1412ZM8.3745 16.1098C8.38863 16.1896 8.30672 16.2715 8.18977 16.2933C8.07474 16.3142 7.96825 16.265 7.95356 16.186C7.93927 16.1042 8.02273 16.0224 8.13752 16.0012C8.25473 15.9808 8.35958 16.0288 8.3745 16.1098Z" fill="#161614"/>
</g>
<defs>
<clipPath id="clip0_381_1379">
<rect width="19.8191" height="19.4227" fill="white" transform="translate(0.896484 0.0791016)"/>
</clipPath>
</defs>
</svg>
