<svg width="40" height="40" viewBox="0 0 40 40" fill="none" xmlns="http://www.w3.org/2000/svg">
<rect x="0.548828" y="0.5" width="38.6" height="38.6" rx="11.5" stroke="#F3F4F6"/>
<path d="M24.4336 10.6333H15.2669C12.7356 10.6333 10.6836 12.6853 10.6836 15.2166V24.3833C10.6836 26.9146 12.7356 28.9666 15.2669 28.9666H24.4336C26.9649 28.9666 29.0169 26.9146 29.0169 24.3833V15.2166C29.0169 12.6853 26.9649 10.6333 24.4336 10.6333Z" stroke="#F9FAFB" stroke-width="1.83333" stroke-linecap="round" stroke-linejoin="round"/>
<path d="M24.8913 14.7583H24.9005M23.5163 19.2225C23.6295 19.9854 23.4992 20.7645 23.1439 21.4491C22.7887 22.1336 22.2267 22.6888 21.5378 23.0355C20.8489 23.3822 20.0682 23.5029 19.3068 23.3804C18.5454 23.2579 17.8419 22.8984 17.2966 22.353C16.7513 21.8077 16.3918 21.1043 16.2692 20.3428C16.1467 19.5814 16.2674 18.8007 16.6141 18.1118C16.9609 17.4229 17.516 16.8609 18.2006 16.5057C18.8851 16.1505 19.6643 16.0202 20.4272 16.1333C21.2053 16.2487 21.9258 16.6113 22.4821 17.1676C23.0383 17.7239 23.4009 18.4443 23.5163 19.2225Z" stroke="#F9FAFB" stroke-width="1.83333" stroke-linecap="round" stroke-linejoin="round"/>
</svg>
