<svg width="24" height="24" viewBox="0 0 24 24" fill="none" xmlns="http://www.w3.org/2000/svg">
<mask id="mask0_283_166" style="mask-type:luminance" maskUnits="userSpaceOnUse" x="1" y="1" width="23" height="23">
<path d="M23.4099 1.23633H1.26172V23.3845H23.4099V1.23633Z" fill="white"/>
</mask>
<g mask="url(#mask0_283_166)">
<path d="M21.5623 14.4834C21.5623 13.7987 21.0418 13.2422 20.3995 13.2422H11.112C10.4697 13.2422 9.94922 13.7996 9.94922 14.4834C9.94922 15.1682 10.4697 15.7256 11.112 15.7256H20.3995C21.0418 15.7256 21.5623 15.1691 21.5623 14.4834Z" fill="#B3B1B0"/>
<path d="M21.5623 14.4834H9.94922C9.94922 15.1681 10.4697 15.7255 11.112 15.7255H20.3995C21.0418 15.7255 21.5623 15.1691 21.5623 14.4834Z" fill="#9C9A99"/>
<path d="M5.67527 14.4834H5.63281C5.64666 15.1626 5.92351 15.8436 6.4606 16.3918C7.6686 17.6247 8.89598 18.8373 10.115 20.0592L10.3033 20.2419C10.7361 20.5215 10.7398 21.3954 10.4713 21.7839C10.1852 22.1983 9.81601 22.4567 9.29833 22.4567C9.27988 22.4567 9.2605 22.4567 9.24112 22.4558C9.05655 22.4493 8.9052 22.3755 8.75201 22.2887C8.71971 22.2703 8.68742 22.2519 8.65603 22.2315C9.53458 23.0086 10.6955 23.3841 11.9672 23.3841C13.3367 23.3841 14.5788 22.9126 15.4777 22.0054L17.8669 19.5719C18.3375 19.0975 18.3209 18.3122 17.8309 17.8185C17.5799 17.5647 17.2523 17.4374 16.9284 17.4374C16.622 17.4374 16.3202 17.5519 16.0923 17.7825L13.6228 20.1883C13.1964 20.6194 12.6058 20.7993 11.9542 20.7993C11.3027 20.7993 10.7122 20.6194 10.2839 20.1883L6.31849 16.1621C5.89952 15.7394 5.68357 15.1266 5.67527 14.4834Z" fill="#C98F1B"/>
<path d="M5.63089 14.4834H3.03125C3.03679 15.8538 3.58034 17.2011 4.63606 18.2679C5.85791 19.5009 7.08805 20.7254 8.31265 21.9556C8.41694 22.0608 8.53045 22.154 8.65411 22.2324C8.68548 22.2519 8.71686 22.2712 8.75008 22.2897C8.90328 22.3764 9.05462 22.4503 9.23919 22.4567C9.25857 22.4577 9.27703 22.4577 9.29641 22.4577C9.81409 22.4577 10.1833 22.1992 10.4693 21.7849C10.7379 21.3963 10.7332 20.5224 10.3013 20.2429L10.1131 20.0601C8.89404 18.8382 7.66575 17.6256 6.45868 16.3927C5.92158 15.8446 5.64473 15.1626 5.63089 14.4834Z" fill="#060605"/>
<path d="M4.47405 18.0202L8.45333 22.0447C9.35033 22.9482 10.5925 23.3846 11.9638 23.3846C13.3333 23.3846 14.5755 22.9131 15.4743 22.0059L17.8635 19.5723C18.3342 19.098 18.3176 18.3127 17.8275 17.819C17.3385 17.3252 16.5586 17.3086 16.0889 17.7829L13.6194 20.1888C13.193 20.6198 12.6024 20.7998 11.9509 20.7998C11.2993 20.7998 10.7088 20.6198 10.2805 20.1888L6.31511 16.1625C5.88783 15.7306 5.67189 15.1012 5.67189 14.4433C5.67189 13.7852 5.88783 13.191 6.31511 12.76L10.2695 8.71792C10.6977 8.28603 11.2993 8.12269 11.9509 8.12269C12.6034 8.12269 13.194 8.30265 13.6194 8.73361L16.0889 11.1385C16.5595 11.6138 17.3385 11.5972 17.8285 11.1035C18.3185 10.6088 18.3351 9.82444 17.8645 9.34919L15.4752 6.91747C14.8772 6.32131 14.1177 5.88758 13.2678 5.69009L13.2373 5.68455L15.4955 3.37376C15.968 2.89942 15.9514 2.11316 15.4614 1.61944C14.9723 1.12572 14.1916 1.10911 13.72 1.58437L4.47405 10.9042C3.5752 11.8104 3.10547 13.0617 3.10547 14.4441C3.10547 15.8266 3.5752 17.1148 4.47405 18.0202Z" fill="#E7A41F"/>
<path d="M8.75019 22.2902C8.58777 22.2006 8.4438 22.0881 8.31276 21.957C7.08815 20.7269 5.85801 19.5023 4.63617 18.2694C2.80156 16.4154 2.51179 13.7142 3.91174 11.5142C4.12768 11.1727 4.39992 10.8737 4.686 10.5877C7.64647 7.62165 10.6061 4.6538 13.5665 1.6878C14.1433 1.11009 14.9479 1.0861 15.485 1.62689C16.0009 2.14552 15.9714 2.96962 15.414 3.53255C14.7035 4.24868 13.9929 4.96295 13.2822 5.67815C13.2444 5.79074 13.1531 5.86272 13.0737 5.94301C12.2773 6.75234 11.4578 7.53952 10.6743 8.35993C10.5719 8.46605 10.4325 8.53157 10.331 8.64139C9.01781 9.95458 7.68985 11.2531 6.3951 12.5837C5.34675 13.6607 5.38367 15.2951 6.45785 16.3932C7.66585 17.6262 8.89322 18.8388 10.1123 20.0606L10.3006 20.2433C10.7334 20.523 10.7371 21.3969 10.4685 21.7854C10.1723 22.2155 9.78658 22.4776 9.23837 22.4572C9.05473 22.4499 8.90338 22.376 8.75019 22.2902Z" fill="#070706"/>
<path d="M13.2762 5.68995C13.2356 5.79607 13.1489 5.86529 13.0722 5.94189C12.2758 6.75121 11.4563 7.5384 10.6729 8.3588C10.5704 8.46493 10.431 8.53045 10.3296 8.64027C9.01637 9.9535 7.68841 11.2519 6.39366 12.5827C5.85842 13.1327 5.60648 13.8275 5.63047 14.5225H5.67293C5.672 14.4957 5.67108 14.4689 5.67108 14.4422C5.67108 13.7842 5.88702 13.1898 6.31429 12.7589L10.2687 8.71686C10.6968 8.28497 11.2986 8.12163 11.9501 8.12163C12.6025 8.12163 13.1932 8.30158 13.6186 8.73255L16.0881 11.1375C16.3169 11.3691 16.6197 11.4835 16.926 11.4835C17.249 11.4835 17.5766 11.3562 17.8277 11.1024C18.3177 10.6078 18.3343 9.82333 17.8636 9.34808L15.4744 6.9164C14.8782 6.32117 14.1225 5.88836 13.2762 5.68995ZM14.5488 1.23633C14.3698 1.23725 14.1926 1.27786 14.0301 1.35814C14.199 1.28155 14.3753 1.24094 14.5488 1.23633Z" fill="#EAB03C"/>
<path d="M14.579 1.23633C14.5698 1.23633 14.5597 1.23633 14.5504 1.23633C14.376 1.24002 14.2007 1.28155 14.0318 1.35814C13.8676 1.43289 13.7097 1.54271 13.5667 1.68667C10.6062 4.65268 7.64576 7.62053 4.68621 10.5865C4.40013 10.8726 4.12882 11.1716 3.91194 11.5131C3.31026 12.459 3.02048 13.4981 3.03156 14.5233H5.63212C5.60813 13.8285 5.86098 13.1335 6.39531 12.5836C7.68913 11.2528 9.01802 9.95443 10.3312 8.64119C10.4337 8.53137 10.5721 8.46677 10.6745 8.35972C11.458 7.53932 12.2775 6.75214 13.0739 5.94281C13.1505 5.86529 13.2373 5.79607 13.2778 5.69087C13.2797 5.68626 13.2806 5.68256 13.2824 5.67796C13.993 4.96275 14.7037 4.24847 15.4142 3.53235C15.9716 2.96942 16.002 2.14533 15.4853 1.62668C15.2259 1.36553 14.9057 1.23633 14.579 1.23633Z" fill="#272726"/>
</g>
</svg>
