<svg width="40" height="40" viewBox="0 0 40 40" fill="none" xmlns="http://www.w3.org/2000/svg">
<rect x="0.5" y="0.5" width="38.6" height="38.6" rx="11.5" stroke="#F3F4F6"/>
<path d="M25.053 10H14.447C13.2676 10 12.1365 10.4685 11.3025 11.3025C10.4685 12.1365 10 13.2676 10 14.447V25.053C10 26.2324 10.4685 27.3635 11.3025 28.1975C12.1365 29.0315 13.2676 29.5 14.447 29.5H25.053C26.2324 29.5 27.3635 29.0315 28.1975 28.1975C29.0315 27.3635 29.5 26.2324 29.5 25.053V14.447C29.5 13.2676 29.0315 12.1365 28.1975 11.3025C27.3635 10.4685 26.2324 10 25.053 10ZM16.593 25.742C16.5961 25.7964 16.5881 25.8509 16.5694 25.9021C16.5507 25.9534 16.5218 26.0002 16.4843 26.0398C16.4468 26.0794 16.4017 26.111 16.3516 26.1325C16.3015 26.154 16.2475 26.1651 16.193 26.165H14.413C14.3057 26.1624 14.2036 26.1178 14.1288 26.0407C14.054 25.9637 14.0124 25.8604 14.013 25.753V18.35C14.0115 18.2966 14.0208 18.2434 14.0402 18.1935C14.0597 18.1437 14.0889 18.0983 14.1262 18.06C14.1635 18.0217 14.2081 17.9913 14.2573 17.9705C14.3066 17.9497 14.3595 17.939 14.413 17.939H16.193C16.2465 17.939 16.2994 17.9497 16.3487 17.9705C16.3979 17.9913 16.4425 18.0217 16.4798 18.06C16.5171 18.0983 16.5463 18.1437 16.5658 18.1935C16.5852 18.2434 16.5945 18.2966 16.593 18.35V25.742ZM15.27 16.382C15.0773 16.3806 14.8867 16.3412 14.7092 16.2661C14.5318 16.191 14.3708 16.0817 14.2355 15.9444C14.1003 15.8071 13.9934 15.6445 13.921 15.4659C13.8486 15.2873 13.8121 15.0962 13.8135 14.9035C13.8149 14.7108 13.8543 14.5202 13.9294 14.3427C14.0045 14.1653 14.1138 14.0043 14.2511 13.869C14.3884 13.7338 14.551 13.6269 14.7296 13.5545C14.9082 13.4821 15.0993 13.4456 15.292 13.447C15.6745 13.4594 16.037 13.6209 16.3022 13.8969C16.5673 14.1728 16.7141 14.5415 16.7113 14.9242C16.7084 15.3069 16.5561 15.6734 16.2868 15.9453C16.0176 16.2173 15.6527 16.3733 15.27 16.38M26.087 25.73C26.0865 25.831 26.0469 25.928 25.9764 26.0003C25.9058 26.0727 25.81 26.1149 25.709 26.118H23.83C23.7288 26.1149 23.6328 26.0726 23.5623 26C23.4918 25.9274 23.4522 25.8302 23.452 25.729V22.305C23.452 21.794 23.608 20.082 22.096 20.082C20.917 20.082 20.684 21.282 20.639 21.816V25.807C20.639 25.9084 20.5996 26.0058 20.529 26.0786C20.4585 26.1514 20.3623 26.1939 20.261 26.197H18.438C18.3347 26.1967 18.2358 26.1555 18.1629 26.0824C18.09 26.0093 18.049 25.9103 18.049 25.807V18.314C18.0521 18.2127 18.0946 18.1165 18.1674 18.046C18.2402 17.9754 18.3376 17.936 18.439 17.936H20.261C20.3624 17.936 20.4598 17.9754 20.5326 18.046C20.6054 18.1165 20.6479 18.2127 20.651 18.314V18.959C20.917 18.5696 21.2843 18.2603 21.7133 18.0643C22.1422 17.8683 22.6165 17.7932 23.085 17.847C26.12 17.847 26.109 20.682 26.109 22.294L26.087 25.73Z" fill="white"/>
</svg>
