<svg width="28" height="21" viewBox="0 0 28 21" fill="none" xmlns="http://www.w3.org/2000/svg">
<g clip-path="url(#clip0_334_4115)">
<path d="M10.3333 2.75C11.0833 2 12.4167 2 13.1667 2.75L17.75 7.33333C18.5 8.08333 18.5 9.41667 17.75 10.1667L14.6667 13.25C13.9167 14 12.5833 14 11.8333 13.25L7.25 8.66667C6.5 7.91667 6.5 6.58333 7.25 5.83333L10.3333 2.75Z" stroke="white" stroke-width="1.66667" stroke-linecap="round" stroke-linejoin="round"/>
<path d="M11.666 6.33301L14.166 8.83301" stroke="white" stroke-width="1.66667" stroke-linecap="round" stroke-linejoin="round"/>
<path d="M7.83268 9.33301L1.66602 15.4997V17.9997C1.66602 18.4997 1.99935 18.833 2.49935 18.833H5.83268V16.333H8.33268V13.833H9.99935L11.166 12.6663" stroke="white" stroke-width="1.66667" stroke-linecap="round" stroke-linejoin="round"/>
</g>
<defs>
<clipPath id="clip0_334_4115">
<rect width="20" height="20" fill="white" transform="translate(0 0.5)"/>
</clipPath>
</defs>
</svg>
