<svg width="21" height="21" viewBox="0 0 21 21" fill="none" xmlns="http://www.w3.org/2000/svg">
<path d="M17.5488 5.60018L10.5488 11.4752C10.4046 11.5834 10.2291 11.6418 10.0488 11.6418C9.86852 11.6418 9.69307 11.5834 9.54883 11.4752L2.54883 5.60018M17.5488 5.60018C17.5488 5.37917 17.461 5.1672 17.3048 5.01092C17.1485 4.85464 16.9365 4.76685 16.7155 4.76685H3.38216C3.16115 4.76685 2.94919 4.85464 2.79291 5.01092C2.63663 5.1672 2.54883 5.37917 2.54883 5.60018M17.5488 5.60018V15.6002C17.5488 15.8212 17.461 16.0332 17.3048 16.1894C17.1485 16.3457 16.9365 16.4335 16.7155 16.4335H3.38216C3.16115 16.4335 2.94919 16.3457 2.79291 16.1894C2.63663 16.0332 2.54883 15.8212 2.54883 15.6002V5.60018" stroke="white" stroke-width="1.66667"/>
</svg>
