<svg width="17" height="17" viewBox="0 0 17 17" fill="none" xmlns="http://www.w3.org/2000/svg">
<g clip-path="url(#clip0_381_965)">
<path d="M14.9134 12.6287L9.62834 3.37978C9.5131 3.17644 9.34598 3.0073 9.14404 2.88963C8.9421 2.77196 8.71255 2.70996 8.47883 2.70996C8.2451 2.70996 8.01556 2.77196 7.81362 2.88963C7.61168 3.0073 7.44456 3.17644 7.32932 3.37978L2.04424 12.6287C1.92775 12.8304 1.86667 13.0594 1.86719 13.2923C1.86771 13.5252 1.9298 13.7539 2.04717 13.9551C2.16455 14.1563 2.33303 14.3229 2.53555 14.4381C2.73806 14.5532 2.96741 14.6127 3.20035 14.6106H13.7705C14.0023 14.6104 14.23 14.5491 14.4307 14.4331C14.6314 14.317 14.798 14.1502 14.9138 13.9494C15.0296 13.7485 15.0905 13.5208 15.0904 13.289C15.0904 13.0572 15.0293 12.8294 14.9134 12.6287Z" stroke="#020817" stroke-width="1.98191" stroke-linecap="round" stroke-linejoin="round"/>
<path d="M8.48438 6.68262V9.32516" stroke="#020817" stroke-width="1.98191" stroke-linecap="round" stroke-linejoin="round"/>
<path d="M8.48438 11.9678H8.49104" stroke="#020817" stroke-width="1.98191" stroke-linecap="round" stroke-linejoin="round"/>
</g>
<defs>
<clipPath id="clip0_381_965">
<rect width="15.8553" height="15.8553" fill="white" transform="translate(0.556641 0.737305)"/>
</clipPath>
</defs>
</svg>
