<svg width="16" height="16" viewBox="0 0 16 16" fill="none" xmlns="http://www.w3.org/2000/svg">
<path opacity="0.63" d="M15 2.27273V13.7273C15 14.0648 14.8865 14.3885 14.6846 14.6272C14.4826 14.8659 14.2087 15 13.9231 15H2.07692C1.79131 15 1.51739 14.8659 1.31542 14.6272C1.11346 14.3885 1 14.0648 1 13.7273V2.27273C1 1.93518 1.11346 1.61146 1.31542 1.37277C1.51739 1.13409 1.79131 1 2.07692 1H13.9231C14.2087 1 14.4826 1.13409 14.6846 1.37277C14.8865 1.61146 15 1.93518 15 2.27273Z" fill="#FFC107"/>
<path d="M11.8766 5.78075L6.82428 11.2659C6.78518 11.3084 6.73874 11.3422 6.68763 11.3652C6.63652 11.3882 6.58173 11.4 6.5264 11.4C6.47107 11.4 6.41629 11.3882 6.36517 11.3652C6.31406 11.3422 6.26763 11.3084 6.22852 11.2659L4.12338 8.98044C4.04438 8.89467 4 8.77834 4 8.65705C4 8.53575 4.04438 8.41942 4.12338 8.33365C4.20239 8.24788 4.30954 8.19969 4.42126 8.19969C4.53299 8.19969 4.64014 8.24788 4.71914 8.33365L6.5264 10.2963L11.2809 5.13396C11.3599 5.04819 11.467 5 11.5787 5C11.6905 5 11.7976 5.04819 11.8766 5.13396C11.9556 5.21973 12 5.33606 12 5.45735C12 5.57865 11.9556 5.69498 11.8766 5.78075Z" fill="black"/>
<rect x="-0.5" y="0.5" width="15" height="15" rx="3.5" transform="matrix(-1 0 0 1 15 0)" stroke="#6B7280"/>
</svg>
