<?xml version="1.0" encoding="UTF-8"?>
<svg version="1.1" viewBox="0 0 972 828" width="30" height="30" xmlns="http://www.w3.org/2000/svg">
<path transform="translate(476,64)" d="m0 0 3 2 11 23 19 39 7 15 13 27 10 19 13 28 8 16 12 22 9 20 6 10v2l20 2 19 3 67 9 137 20 3 3-4 6-8 8-11 9-8 7-1 2h-2l-1 3-8 7-7 7-8 7-6 5-5 6-37 37-8 7-17 17-8 7-13 13h-2v2h-2l-2 4-15 15-3 5 1 11 11 66 3 17 2 15 3 17 4 25 9 52 4 23 1 15-5-1-23-11-24-13-14-8-15-9-23-11-19-10-41-21-24-13-22-12-9-4-7 1-21 11-22 12-36 18-17 10-17 9-16 8-19 10-22 13-15 9-23 12h-5v-8l5-29 6-31 6-34 10-56 7-42 6-32v-13l-2-5-4-2-4-4v-2l-4-2-23-23-8-7-10-9-10-10-8-7-31-29-8-8-8-7-10-10-8-7-15-14-8-7-10-10-5-7v-2l10-2 119-17 37-5 26-4 51-7 5-5 17-34 9-19 21-42 11-23 15-31 6-12 9-20 12-24 7-11z" fill="#ECC848"/>
<path transform="translate(809,334)" d="m0 0h3l-1 6-7 6-6 7h-2l-2 4h-2l-2 4-8 8-8 7-63 63-7 6-9 11-12 11-11 11-3 4h-2l-2 4-5 5-3 7 1 11 11 66 3 17 2 15 3 17 4 25 9 52 4 23 1 15-5-1-23-11-24-13-14-8-15-9-23-11-19-10-41-21-24-13-22-12-9-4-7 1-21 11-22 12-36 18-17 10-17 9-16 8-19 10-22 13-15 9-23 12h-5v-8l5-29 6-31 6-34 10-56 7-42 6-32v-13l-2-5-4-2-4-4v-2h3v3l6 2 9 5 4 9-4 6-2 1-1 6-1 10-2 4-2 14-3 16-3 12-3 18v15l-3 7h-2v12l-8 44-5 24-1 12-3 12h-2l-1 15 5-3 7-12h2l2-5 16-22 10-14 13-17 13-18 12-17 10-14 12-17 7-10 14-19 8-12 7-6 5-8 1-3 5-5 5-6 4-7 12-16 10-13 6-8 5-6 4-8 10-14 3-3 2 1v10l1 3 1 26 1 11 3 6 3 3v2l4 2 3 1 5 5 5 7 3 1 5 5 4 2v2l4 1 4 6 2 1v3h2v2l4 2 6 10 3 2 2 6h2l6 10v2l4 2 3 3v3l2 1 6 7v2l4 2 5 5v2l3 1v2l4 2v2l3 1 5 6 1 4h2l4 6 5 5 7 6v2l5 2 5 8 4 2 1 5 4 2 4 6 5 5 2 5h2v2l3 1 6 8 4 3v2l4 2 1 3 3 1 2 4 5 1-4-8v-2h-2l-24-36-5-7-3-7-5-7v-2l-3-1-3-6-3-3-5-6-4-6-1-3-5-5-5-7v-2l-5-5-7-11-7-9-10-13-13-19-9-13-16-24-7-10-8-11-9-13-8-12-6-10-1-4h-2l-1-6 10-4 36-12 34-11 30-9 22-7 7-1 5-2 11-3 6-1v-2l31-9 45-14 9-3 13-4h3v-2l9-2 14-4h4v-2l16-4 13-4z" fill="#DCA90F"/>
<path transform="translate(364,290)" d="m0 0h2l4 4h2l3 6v2l4 2 5 5 3 5 2 4 3 1 9 13 10 14 4 6 11 15 11 16 3 4v2h2v3h2l10 15v2h2l7 10 8 10 1 5-10 3-5 2h-5l-5-1-9 4h-4l-1-5 2-1-8-6 1-2h3l-1-4h-5l-1-2-5-1-9-5-12-4-12-5-31-11-13-4-26-10-10-3-12-1h-12l-5 4v10l-6 11-6 9-1 4-7 10-2 4-3 2 2 10h2l2 6 1 4 2 1-4 2-7-7-8-7-11-11-8-7-31-29-8-8-8-7-10-10-8-7-15-14-4-3v-4l-4-2v-2l-4-2-4-5-1-6 5-1v-2h19l2-1 9-1 1-1 15-1 16-3 20-3 12-1 20-5h11l15-2 10-3 23-3 2-1 21-1 5-1h15l10-3z" fill="#DDAA0F"/>
<path transform="translate(469,445)" d="m0 0 3 1v10l1 3 1 26 1 11 3 6 3 3v2l4 2 3 1 5 5 5 7 3 1 5 5 4 2v2l4 1 4 6 2 1v3h2v2l4 2 6 10 3 2 2 6h2l6 10v2l4 2 3 3-1 3-4-2v-2h-2v-2h-2v-2l-4-1-2-1v-2h-3v-2l-4-1-5-5-4-6-7-3v-2l-5-2 3 9h2l3 6 3 3 4 6 4 3v2l4 2 4 5 4 2 5 5 1 3h-2l-2 4-11-7-12-8v-2l-4 1-1 2-5 1-4 4-2 4-5 5h-2v6h-2l1 5-1 14 2 4 4 1 1 4 5 2 6 4 5 2 20 12-2 1-28-15-22-12-9-4-7 1-21 11-22 12-36 18-17 10-17 9-16 8-19 10-22 13-15 9-23 12h-5v-8l5-29 6-31 6-34 10-56 7-42 6-32v-13l-2-5-4-2-4-4v-2h3v3l6 2 9 5 4 9-4 6-2 1-1 6-1 10-2 4-2 14-3 16-3 12-3 18v15l-3 7h-2v12l-8 44-5 24-1 12-3 12h-2l-1 15 5-3 7-12h2l2-5 16-22 10-14 13-17 13-18 12-17 10-14 12-17 7-10 14-19 8-12 7-6 5-8 1-3 5-5 5-6 4-7 12-16 10-13 6-8 5-6 4-8 10-14z" fill="#DDAA0F"/>
<path transform="translate(477,82)" d="m0 0 6 3 7 12 3 5 4 9 9 17v2l2 1 7 14 5 12 6 11 5 5 8 16 13 28 8 16 12 22 9 20 6 10v2l20 2 19 3 39 5 10 4 8 1 10 2 4 2 10 1v-2l5 2 6 1v2l13 1 4-1 7 2 3 1v2l3 1-2 3-14 1-2-1-9 1h-9l-12 2-13 1-20 4-12 2-6-2-12 2-25 6-18 4-10 2-9 3-15 2-8 2-10 1-1 3-5 4-2 3h-2v2l-5 5-8 10-9 12-11 14-11 13-4 7-5 5-1-2-1-160v-45l-2-77 1-60z" fill="#DDAA0F"/>
<path transform="translate(455,440)" d="m0 0h11l-1 5-8 12-8 11-6 9-16 23-9 12-3 7h-2l-1 5h-2l-1 3-8 8-2 7-8 10-8 12-9 12-8 12-9 12-11 16-11 15-12 17-14 19-10 13-9 13-9 12-5 8h-2l-2 5-5 8-2 2h-3v-9l1-6h2l2-12 2-16 5-26 7-38 1-12h2l1-6 1-2v-9l5-15 2-5 1-3h3l2-5h2l1-3h2l2-7 8-9 7-10 8-16 4-9 8-13 7-14 7-7 4-1v-2l56-21 21-6 16-5z" fill="#FBE28C"/>
<path transform="translate(809,334)" d="m0 0h3l-1 6-7 6-6 7h-2l-2 4h-2l-2 4-8 8-8 7-63 63-7 6-5 5-13 12-27 27h-10l-7-3-13-4-36-12-32-11-11-5-1-2 7-2-1-5 1-7 3-5 3-10 1-2-2-4 2-3v-2l13-6 20-7 6-1v-2l12-4 7-1 5-2 11-3 6-1v-2l31-9 45-14 9-3 13-4h3v-2l9-2 14-4h4v-2l16-4 13-4z" fill="#984504"/>
<path transform="translate(282,377)" d="m0 0h16l13 2 21 8 16 6 21 7 17 6 21 8 9 4 6 3 6 2 3 3v2l-3 2 8 6-2 2 2 2h-2v2l8-3 7-2 9 1 6-2-1 3-27 8-23 7-25 9-26 10h-3v2l-6 4-6 7-8 16-7 11-6 15-6 10-9 12-4 5-3 6-3 3h-2l-2 5h-3l-1 5-2 7v2h-2l-2 9h-1l1-11 3-17 2-7 3-16 3-17 1-3 1-11 2-4 4-4 1-3-3-6v-2l-4-1-11-6v-3h-5l-25-25v-4l-3-6v-4h-2l-3-7 1-4 3-1 2-5 6-9 3-7 8-13 2-4v-10z" fill="#FCDF1C"/>
<path transform="translate(476,64)" d="m0 0 3 2 11 23 19 39 7 15 12 25-1 2-4-5-8-18-8-16-4-6-8-16-5-11-5-7-2-6-6-2-1 63 2 83v49h-1l-1 8h-1v-25l-2-39-2-21-6 1-10 14-9 15-10 15-8 16-12 25-6 12-4 7-5 5-2 3v7l8 14 30 45 5 7v2h-2l-11-16-10-14-8-11-7-11-4-5-7-10-9-10v-3l-4-2-7-8-2-4-5-3v-2l-9 2-10 3h-18l-2 1-21 1-9 2-20 3-9 2-12 2h-11l-20 5-20 2-13 2-15 3-15 1-1 1-9 1-2 1h-14l-5-1v2l-5 1 4 9 5 4 4 4-1 3-13-13-5-7v-2l10-2 119-17 37-5 26-4 51-7 5-5 17-34 9-19 21-42 11-23 15-31 6-12 9-20 12-24 7-11z" fill="#FEED2A"/>
<path transform="translate(467,200)" d="m0 0 4 1 1 2 2 23 2 36v166l-4 1-8-7-8-11v-2h-2l-10-15v-2h-2l-2-6-34-51-8-14v-7l4-5h2l2-4 4-9 10-19 13-28 10-15 15-24 7-9z" fill="#FDEE64"/>
<path transform="translate(759,323)" d="m0 0h33l20 2 5 2-1 4-35 11-10 1v2l-18 5-9 1v2l-19 6-45 14-33 10h-4v2l-11 3-15 5-9 2-32 10-30 9-18 6-10 2-19 6-12 4h-6v-5l13-17 9-11 9-12 4-2 2-4 6-5 17-5 10-2 31-4 8-1v-2l28-7 31-7 20-5 11-3 28-6 10-1 21-6 15-3z" fill="#E9CA82"/>
<path transform="translate(508,551)" d="m0 0 6 3v2l7 2 4 6 5 5 4 2v2h3v2l6 2v2h2v2h2v2l7 2 2 4 4 4v2l4 2 5 5v2l3 1v2l4 2v2l3 1 5 6 1 4h2l4 6 5 5 7 6v2l5 2 5 8 4 2 1 5 4 2 4 6 5 5 2 5h2v2l3 1 6 8 4 3v2l4 2 1 3 3 1 2 4 5 1-4-8v-2h-2l-24-36-5-7 1-2 11 15 7 11 12 17 12 16 2 5 4 2 7 9-1 5-2 1-6-3-3-1-2 1-1 2-26-14-14-8-15-9-23-11-19-10-35-18-4-4-6-3-7-4-4-3-5-2-10-6-7-7-1-3 1-18h2v-6h2l2-4 3-1 2-6 5-4 5-1 4-1 3 3 11 7 9 6 2-3h2l-5-5-1-3-5-2-5-6-8-7-3-5v-2l-3-1-2-6h-2l-4-8z" fill="#B67114"/>
<path transform="translate(458,440)" d="m0 0h8l-1 5-8 12-8 11-6 9-16 23-9 12-3 7h-2l-1 5h-2l-1 3-8 8-2 7-8 10-8 12-9 12-5 5-13 17-12 17-27 36-7 10-9 12-7 8-3 5-3 1-2-5 2-6h2l1-6 7-11 7-10 10-21 12-20 5-12 8-18 7-11 6-10 4-9 8-16 6-10 5-8 10-19 4-6 1-3h2l2-5 3-3 3-10 5-6 7-5 11-5 16-5 17-6z" fill="#FDEFCB"/>
<path transform="translate(674,374)" d="m0 0h2v2l-8 2h-4v3h-4v2l-5 2-4 3-2 1-2-1v2l-4 1v2h2v2l3 1h-2l-2 4-5 3-4 3-2 7-4 4-5 23-4 16-4 6 1 10 2 1v3l7 1 1 3 8 1 17 4h9v-2l4-4h2l2-4 4-2v-2h2l2-4h2v-2l3 1-23 23h-10l-7-3-13-4-36-12-32-11-11-5-1-2 7-2-1-5 1-7 3-5 3-10 1-2-2-4 2-3v-2l13-6 20-7 6-1v-2l12-4 7-1 5-2 11-3 6-1v-2z" fill="#A65808"/>
<path transform="translate(491,497)" d="m0 0 24 18 4 6 8 5 4 4 2 1v2h2l4 5v2h2v2l5 2 3 1-1-6h-2l-4-8-14-21-6-10 3 1 18 27 7 10 13 19 10 13 11 15 3 4 2 4 3 3 3 5 2 2 2 4 3 3 3 4 2 4 2 2 3 4 5 6 1 3 4 4 6 9 3 7 7 10 10 15 7 10 2 5h2l4 7v3h-5l-2-2v-3l-4-1-2-4-8-7-5-7-2-1v-2h-2l-4-6-1-3-3-1-5-7-3-1v-5l-5-2-5-8-4-2v-2l-4-2v-2l-4-2-5-5-3-4v-2h-2l-2-6-4-2-5-6-5-4-7-8-5-5-5-6-3-5-5-5-5-8v-2h-2l-3-6-5-5-5-8-2-1v-2h-2v-3l-4-2-5-10-3-3v-2l-5-2-3-6-3-5-1-3h-2l-3-6z" fill="#BD9165"/>
<path transform="translate(576,366)" d="m0 0 10 1 6 1 7 1-3 2-8 3-11 5-21 6 8 2h15l14-3 27-4 10-2 8-1 5-2 9-2 3 1v-2l15-2 2 1-1 3-9 1v2l-18 5h-3v2l-16 4-30 9-8 3-26 7-25 8-17 5-13 4-4 3-15 5h-6v-5l13-17 9-11 9-12 4-2 2-4 6-5 17-5 10-2z" fill="#FBE28C"/>
<path transform="translate(666,298)" d="m0 0 13 1 151 22 3 3-4 6-8 8-11 9-8 7-1 2h-2l-1 3-8 7-7 7-8 7-6 5-5 6-37 37-8 7-17 17-8 7-13 13h-2v2h-2l-2 4-15 15v-3l7-8 24-24 5-4 9-11 15-14 60-60 8-7 4-5 8-7 4-5 6-5 2-6-9 1 2-2 11-3 1-3-12-2-17-1h-29l-10 2h-7l-1 2-12 3-15 4-11 1-16 4-14 3-37 9-26 6h-5l-1-3 6-1 2-4 3-3 4-3 8-4 14-4 18-9 19-3 9-2 18-2 14-1h8l4-1 4 1h11l1-3-2-1v-2l-9-1-3-1-3 1-12-2v-2h-6l-5-3v2h-10l-11-4h-8l-12-4z" fill="#E3BF55"/>
<path transform="translate(544,607)" d="m0 0 6 4 1 4 4 2 6 7 3 3 7 6 7 10 4 2 6 7v3h2v2h2v2l4 1 8 7 4 5 3 3v2l5 2 6 7 5 5v2h2v2h2l1 6-10-2h-5l-30-15-1-3-15-8-5-3-6-5-13-7-14-7-5-4-12-12v-4h2v-6l3-4h2l2-6 5-3 10-2 3 1h1z" fill="#B16509"/>
<path transform="translate(432,449)" d="m0 0 3 1-8 5-6 5-6 7-1 6-6 8-6 9-8 16-4 11-6 9-9 19-8 14-9 16-5 12-5 11-3 7v2l5-4 6-8v3l-12 17-27 36-7 10-9 12-7 8-3 5-3 1-2-5 2-6h2l1-6 7-11 7-10 10-21 12-20 5-12 8-18 7-11 6-10 4-9 8-16 6-10 5-8 10-19 4-6 1-3h2l2-5 3-3 3-10 5-6 7-5 11-5z" fill="#FDEBB6"/>
<path transform="translate(508,551)" d="m0 0 6 3v2l7 2 4 6 5 5 4 2v2h3v2l6 2v2h2v2h2v2l7 2 2 4 4 4v2l4 2 5 5v2l3 1v2l4 2v2l3 1 5 6 1 4h2l4 6 5 5 7 6v2l5 2 5 8 4 2 1 5 4 2 4 6 5 5 2 5h2v2l3 1 6 8 4 3v2l4 2 1 3 3 1 2 4 5 1-4-8v-2h-2l-24-36-5-7 1-2 11 15 7 11 12 17 12 16 2 5 4 2 7 9-1 5-2 1-6-3-3-1-2 1-1 2-7-4 4-1v-2l-3-1 1-3-3-1-7-8-4-3v-2l-4-2-3-5-6-5v-2l-4-2-9-11-5-5-2-5-4-2-7-6-2-4-8-5-4-4v-3l-5-2-3-5-5-3-7-10-5-4-5-5-2-4-5-2-2-4-2-1v-2l-5-2-5-5-1-3-5-2-5-6-8-7-3-5v-2l-3-1-2-6h-2l-4-8z" fill="#BC8435"/>
<path transform="translate(619,391)" d="m0 0v3l-10 5-6 1 1 4 5 3 1 5-7 5-5 9-3 15-3 8v6l1 5-3 4 6 3 7 3v2l2 1-9-2-35-12-11-5-1-2 7-2-1-5 1-7 3-5 3-10 1-2-2-4 2-3v-2l13-6 20-7 6-1v-2l12-4z" fill="#B16509"/>
<path transform="translate(465,322)" d="m0 0 4 1 2 2 1 4 2 33v63l-4-1-9-10-9-14-11-17-1-6 2-5 4-7 3-11 9-21 4-8z" fill="#FEF0CE"/>
<path transform="translate(475,439)" d="m0 0 5 2 7 9 7 11 8 10 8 11 11 16 2 2 6 10 10 15 7 11v3h2l1 6-5-1-3-2v-2h-2l-4-5v-2h-2v-2l-5-2-1-3-4-2-5-3-5-7-11-7-5-5-10-8-4-4v-2h-2l-5-10-1-12z" fill="#E9CA82"/>
<path transform="translate(214,317)" d="m0 0 9 1 3 3v8l-2 3-3 8h-2v10l-10 2-3-2-13-2-18-5-21-6-16-4-7-4 1-4 16-2 15-1 8-2 24-2h15z" fill="#B67014"/>
<path transform="translate(458,440)" d="m0 0h8l-1 5-8 12-8 11-6 9-16 23-9 12-3 7h-2l-1 5h-2l-1 3-8 8-2 5-9 8-2-1 1-7 4-10 6-10 10-24 4-6 3-8 6-7 2-7 6-5 3-9 4-2v-2l11-4 1-2z" fill="#FEF9E3"/>
<path transform="translate(491,497)" d="m0 0 24 18 4 6 8 5 4 4 2 1v2h2l4 5v2h2v2l5 2 3 1-1-6h-2l-4-8-14-21-6-10 3 1 18 27 7 10 13 19 10 13 7 9 3 9 2 1v2h-5l-2-1-1-3-6-2v-2l-4-1-10-7-6-7-4-2-1-3-14-9-6-5-4-4v-2h-2v-3l-4-2-5-10-3-3v-2l-5-2-3-6-3-5-1-3h-2l-3-6z" fill="#D3AC70"/>
<path transform="translate(473,289)" d="m0 0 2 4 1 48v87l-4 1-8-7-8-11v-2h-2l-10-15v-2h-2l-2-6-20-30 1-5 3 4 4 8 3 4v-3h2l1-5 5-8 4-10 6-10 5-12 5-13 5-7 3-1 2 2v3l3 1zm-8 33-5 6-12 28-3 11-4 6-1 6 3 7 9 14 10 15 9 10h3v-63l-2-33-2-5-2-2z" fill="#FBE38C"/>
<path transform="translate(384,263)" d="m0 0h1v8l-2 4h-2l-1 4-1 1-1 9 3 8 5 8 4 8 1 3 6-2 3 9 7 12 30 45 5 7v2h-2l-11-16-10-14-8-11-7-11-4-5-7-10-9-10v-3l-4-2-7-8-2-4-5-3v-2l-9 2-10 3h-18l-2 1-21 1-9 2-20 3-9 2-12 2h-11l-20 5-20 2-13 2-15 3-15 1-1 1-9 1-2 1h-14l-5-1v2l-5 1 4 9 5 4 4 4-1 3-13-13-5-7v-2l10-2 119-17 37-5 26-4 51-7 5-2 4-5h2v-2h3l1-6 4-5z" fill="#FCDF1C"/>
<path transform="translate(476,77)" d="m0 0 1 2 3 1v2l3-1 2 4 2 1v2l3 1 19 39 7 15 12 25-1 2-4-5-8-18-8-16-4-6-8-16-5-11-5-7-2-6-6-2-1 63 2 83v49h-1l-1 8h-1v-25l-2-39-2-20 2-4 1-21-1-16-1-8-3-7-2-5-4-1v-2l2-1-1-5 2 1v-9l-2-6v-10l-2-5 3-4 3-1v-3h2l-1-12 2-3z" fill="#FCE01C"/>
<path transform="translate(649,326)" d="m0 0 6 2-1 3-13 6-14 4-8 4-28 6-24 4-15 1-15 4-5 2v2l-6 5-4 4 2-5 6-7h2v-2l4-4h2l1-3 3-3 12-2 6-2 15-2 11-4 15-2 7-2 26-6 9-2z" fill="#EDC642"/>
<path transform="translate(613,345)" d="m0 0 4 1v2l-2 2h-3l-1 4-6 2v3l-10 3h-5v2l-14 3-32 4-20 6-7 6-4 4-1-3 8-10 10-10h2v-2l8-4 12-3 15-1 13-2 21-4z" fill="#ECCF4D"/>
<path transform="translate(286,481)" d="m0 0h3v3l6 2 9 5 4 9-4 6-2 1-1 6-1 10-2 4-2 14-3 16-3 12-3 18v15l-3 7h-2v12l-8 44-5 24-1 12-3 12h-1l1-18-1-1-1 4 1-10 8-46 5-28 7-40 6-35 6-32v-13l-2-5-4-2-4-4z" fill="#DCAB1C"/>
<path transform="translate(546,629)" d="m0 0 7 1 5 5 3 5 4 6 5 3v2h3l2 6 5 2v2h2v2l4 1 3 3v2l5 2 6 8 5 5v2l-6-2-19-9-5-3-9-5-3-1v-2l-4-2-1-4-4-1-4-3-7-2-5-6 1-7 3-8z" fill="#A65708"/>
<path transform="translate(585,403)" d="m0 0h2l-1 4-3 2v2l4 3-2 7-3 1 1 4-6 10-2 3-1 10 3 7-3 3h-2v3l-9-2-13-6-1-2 7-2-1-5 1-7 3-5 3-10 1-2-2-4 2-3v-2l13-6z" fill="#B67014"/>
<path transform="translate(794,316)" d="m0 0 30 4 8 2 1 2-4 6-8 8-11 9-8 7-1 2h-2l-1 3-8 7-7 7-8 7-6 5-5 6-37 37-8 7-17 17-8 7-13 13h-2v2h-2l-2 4-15 15v-3l7-8 24-24 5-4 9-11 15-14 60-60 8-7 4-5 8-7 4-5 6-5 2-6-9 1 2-2 11-3 1-3-5-1-2-4-15-3z" fill="#EED050"/>
<path transform="translate(465,322)" d="m0 0 4 1 2 2 1 4 2 33v29h-1l-1-24-2-12-4-5-5 3h-2l-3 9-2 14-3 4-4 2-1 3 8 14-1 2-7-10-5-8-1-6 2-5 4-7 3-11 9-21 4-8z" fill="#FEECB7"/>
<path transform="translate(809,334)" d="m0 0h3l-1 6-7 6-6 7h-2l-2 4h-2l-2 4-8 8-8 7-63 63-7 6-5 5-13 12-2 1 3-6h2v-2l3-3h2l1-3 8-8 7-6 5-5 5-6 8-7 1-2h2l2-4 5-4 17-17 6-7 8-7 4-2 2-4 8-9 4-5h2v-2l7-6 4-4 1-4-15 3-4-1v2l-9 3-10 1v2l-8 3-9 1-8 3-7 2-11 3-4-1 9-3 16-5h3v-2l9-2 14-4h4v-2l16-4 13-4z" fill="#AA5D09"/>
<path transform="translate(178,322)" d="m0 0 10 1 3 4-1 5-2 6h-4v2h-12l-12-3-10-1-14-4-5-3 1-4 16-2h16z" fill="#A65708"/>
<path transform="translate(357,475)" d="m0 0 2 1-4 2-2 6-3 4-6 15-7 10-7 17-5 9-6 9-1 3-5 5-5 6-3 6-4 5-6 9-3 6-1 6-5 4 1-10 4-10 1-4 2-5h3l2-5h2l1-3h2l2-7 8-9 7-10 8-16 4-9 8-13 7-14 7-7z" fill="#FEEF65"/>
<path transform="translate(298,296)" d="m0 0h5l-3 2-11 2-12 2-9 2-12 2h-11l-20 5-20 2-13 2-15 3-15 1-1 1-9 1-2 1h-14l-5-1v2l-5 1 4 9 5 4 4 4-1 3-13-13-5-7v-2l10-2 119-17 37-5z" fill="#F0CE56"/>
<path transform="translate(171,320)" d="m0 0h10l11 1h9l5 3 1 5-2 7 1 4-3 4h-25l-9-3-11-3 2-2 12 3h10l2 1v-2h4l1-6 1-5v-2l-12-2-17 1 2-2z" fill="#B16409"/>
<path transform="translate(475,466)" d="m0 0h1l1 12 4 8v2h2l2 5 5 2 4 10v2h2l5 7 2 7 5 2 6 8v2l-4-1v-2l-5-2-4-3v-2l-4-1-4-6-5-4v-2l-4-1-4-4v-2l-3-1-2-4z" fill="#E3BF55"/>
<path transform="translate(285,593)" d="m0 0h1l1 9-3 7h-2v12l-8 44-5 24-1 12-3 12h-1l1-18-1-1-1 4 1-10 8-46 5-28 2-11 2 3 2-3z" fill="#E0B32E"/>
<path transform="translate(394,547)" d="m0 0 1 2-10 16-10 13-7 11-10 13-4 5-5 9-9 11-12 18-5 6-1 3-4 4-12 16-8 11-4 5-1 3h-2l-2 5-6 7-5 9-3 5-2 5-7 5-5 1v-6l1 4 5-3 7-12h2l2-5 16-22 10-14 13-17 13-18 12-17 10-14 12-17 7-10 14-19 8-12z" fill="#FBDE20"/>
<path transform="translate(465,389)" d="m0 0 6 1 2 2v25l-2 3-5-3-9-13-1-2v-7l3-5z" fill="#FEFAE4"/>
<path transform="translate(475,170)" d="m0 0h1l1 18 1 44v46h-1l-1 8h-1v-25l-2-39-2-20 2-4 1-21z" fill="#FDE01C"/>
<path transform="translate(780,369)" d="m0 0 2 1-50 50-2 5-13 12-15 15-8 7-13 13h-2v2h-2l-2 4-15 15v-3l7-8 24-24 5-4 9-11 15-14z" fill="#DFAF1D"/>
<path transform="translate(666,298)" d="m0 0 13 1 81 12v2l5 1-4 2-25-4-3-1-3 1-12-2v-2h-6l-5-3v2h-10l-11-4h-8l-12-4z" fill="#EDC84F"/>
<path transform="translate(635,384)" d="m0 0h8l-3 2-9 3-9 2-5 2-9 2-32 10-30 9-18 6-10 2-10 3-3-1 9-4 12-3 10-3 31-10 24-6 11-4 23-7z" fill="#E8C773"/>
<path transform="translate(464,437)" d="m0 0 5 1v5l-8 11-7 10-11 16-8 11-3 7-14 19-3 5-7 9h-2l-1 5-7 9-3 2 2-4 2-2 2-7 4-4 5-6h2l1-5 3-3 2-5 13-18 11-16 9-13 11-16 3-4 1-4h-6z" fill="#FBE28C"/>
<path transform="translate(821,334)" d="m0 0h2l-2 4-11 9-8 7-1 2h-2l-1 3-8 7-7 7-8 7-6 5-5 6-32 32-1-3 51-51 8-7 12-12 8-7 8-8z" fill="#F2D159"/>
<path transform="translate(492,95)" d="m0 0 3 4 11 23 8 16 12 26 2 6-5-5-8-18-8-16-4-6-8-16-5-11v-2z" fill="#FDE329"/>
<path transform="translate(475,377)" d="m0 0h1v51l-4 1-8-7-8-11v-2h-2l-10-15v-2h-2l1-3 8 11 5 7 5 5 8 10 5 3v-25z" fill="#F7DC89"/>
<path transform="translate(167,315)" d="m0 0 4 1-2 2-7 1-1 1-9 1-2 1h-14l-5-1v2l-5 1 4 9 5 4 4 4-1 3-13-13-5-7v-2l10-2z" fill="#F1D159"/>
<path transform="translate(363,287)" d="m0 0 2 1-2 2-13 4-3 1h-18l-2 1-21 1-6 1 3-2 9-2z" fill="#F8DC36"/>
<path transform="translate(787,339)" d="m0 0 4 1-9 2v2l-9 3-10 1v2l-8 3-9 1-8 3-7 2-11 3-4-1 9-3 16-5h3v-2l9-2 14-4h4v-2z" fill="#C1831C"/>
<path transform="translate(470,442)" d="m0 0 3 3v14l-2-4v-7l1-2h-3l-14 21-4 7-7 8-8 11-2 1 1-4 12-17 8-12 10-14z" fill="#F4D737"/>
<path transform="translate(394,547)" d="m0 0 1 2-10 16-10 13-7 11-10 13-4 5-4 7-3 1 2-5 12-17 9-12 4-6 13-18z" fill="#F3D63A"/>
<path transform="translate(679,465)" d="m0 0 3 1-23 23h-10l-7-3-13-4-12-4v-1l7 1 22 6 10 1h5v-2l4-4h2l2-4 4-2v-2h2l2-4h2z" fill="#A85908"/>
<path transform="translate(464,436)" d="m0 0h6l3 1 4-1 6 6-1 2-5-4-2-1v57h-1l-1-11-1-40-2-2h-1l-1-5z" fill="#EECE47"/>
<path transform="translate(819,329)" d="m0 0 4 1-9 10-5 5h-2l-2 4-10 9-11 11-2-1 9-9 5-6 6-5 5-5 4-5 1-4-9 1 2-2z" fill="#D9A511"/>
<path transform="translate(348,614)" d="m0 0v3l-10 13-10 15-5 6-1 3-4 4-12 16-2-2 13-17 13-18 12-17 4-5z" fill="#FCDF1E"/>
<path transform="translate(458,440)" d="m0 0h8l-1 5-8 12-8 11-6 9-16 23-2 1 2-5 11-16 10-14 6-9 7-10 1-3-13 1 3-2z" fill="#FDEEC3"/>
<path transform="translate(666,298)" d="m0 0 13 1 41 6v1h-11l-2-1v2h-10l-11-4h-8l-12-4z" fill="#EECB55"/>
<path transform="translate(270,654)" d="m0 0h1l-1 15-2 10 2 1-1 9-1 12-3 12h-1l1-18-1-1-1 4 1-10z" fill="#E4C069"/>
<path transform="translate(450,448)" d="m0 0h5v5l-3 4h-2l-1 3-5 5-3-1 1-10 1-2h2v-2z" fill="#FEFEFE"/>
<path transform="translate(821,334)" d="m0 0h2l-2 4-11 9-8 7-1 2h-2l-1 3-8 7-6 6h-3l1-3 8-7 12-12 8-7 8-8z" fill="#F0D34F"/>
<path transform="translate(136,325)" d="m0 0h9l10 1 5 2-4 4h-12l-10-3v-3z" fill="#984504"/>
<path transform="translate(298,296)" d="m0 0h5l-3 2-11 2-12 2-9 2-12 2h-9l-5-1v-1l44-6z" fill="#F0CE5A"/>
<path transform="translate(558,407)" d="m0 0h2l-1 3-31 10-10 2-10 3-3-1 9-4 12-3 10-3z" fill="#E8C773"/>
<path transform="translate(371,577)" d="m0 0 1 2-7 10-13 18-9 13-5 7-2-1 2-4 13-18 10-14z" fill="#FCE489"/>
<path transform="translate(432,494)" d="m0 0 2 1-10 14-6 8-3 5-7 9h-2l-1 5-7 9-3 2 2-4 2-2 2-7 4-4 5-6h2l1-5 3-3 14-19z" fill="#F4D736"/>
<path transform="translate(487,450)" d="m0 0 4 2 10 15 7 10 13 18 1 4-4-4-10-14-11-15-10-14z" fill="#EBC849"/>
<path transform="translate(696,454)" d="m0 0 2 1-17 17h-2v2h-2l-2 4-15 15v-3l7-8 24-24z" fill="#F1D56E"/>
<path transform="translate(454,401)" d="m0 0 3 1 7 11 4 5 3 1 1-7 1-11h1v24l-4-1-9-10-7-11z" fill="#FEEDBF"/>
<path transform="translate(234,305)" d="m0 0h11l-4 2-16 4-17 1 3-3 17-3z" fill="#F0CB4F"/>
<path transform="translate(511,385)" d="m0 0 1 3-16 21-9 11-5 7-1-2 5-7 3-5 13-16 8-10z" fill="#EDCA47"/>
<path transform="translate(734,325)" d="m0 0h15v1h-7l-1 2-12 3-11 3h-4v-2l6-2 5-1v-2z" fill="#D4AD71"/>
<path transform="translate(701,447)" d="m0 0m-1 1m-1 1m-1 1m-1 1m-1 1v3l-13 12-11 11-3 4h-2l-2 4-4 3 2-5 31-31z" fill="#DEAC14"/>
<path transform="translate(757,348)" d="m0 0 3 1-4 2h-5v2l-13 4-7 2-11 3-4-1 9-3 16-5h3v-2l9-2z" fill="#C58C21"/>
<path transform="translate(532,178)" d="m0 0 3 3 11 23 6 13v2h-2l-5-10-5-11-2-5-6-12z" fill="#FCE131"/>
<path transform="translate(442,389)" d="m0 0 5 5 8 12 5 5 5 6 2 5 2 4-5-4-8-11v-2h-2l-10-15v-2h-2z" fill="#F0CE57"/>
<path transform="translate(264,694)" d="m0 0 2 1-1 13-3 9-2 1v-11l2-9h2z" fill="#CF9C3A"/>
<path transform="translate(122,321)" d="m0 0h9v2l-5 1 4 9 5 4 4 4-1 3-13-13-5-7v-2z" fill="#F7DC60"/>
<path transform="translate(617,477)" d="m0 0 7 1 22 6 1 3h14l-2 2h-10l-7-3-13-4-12-4z" fill="#B1680E"/>
<path transform="translate(711,306)" d="m0 0h15l6 1 1 4-3 1-12-2v-2h-6z" fill="#EEC847"/>
<path transform="translate(285,593)" d="m0 0h1l1 9-3 7h-2v12l-2 10h-1l1-19h-2l1-9 2 3 2-3z" fill="#E7C241"/>
<path transform="translate(476,272)" d="m0 0h1l1 7v43h-1l-1-17v-14h-1z" fill="#EEC642"/>
<path transform="translate(494,418)" d="m0 0 5 1-1 5-5 3h-6l2-5z" fill="#FEECB7"/>
<path transform="translate(470,442)" d="m0 0 3 3v14l-2-4v-7l1-2h-3l-6 9-4 4-2-1 8-11z" fill="#F2D33A"/>
<path transform="translate(421,359)" d="m0 0 3 1 10 16 8 11v2h-2l-11-16-8-12z" fill="#F3D63A"/>
<path transform="translate(324,647)" d="m0 0v3l-2 4-4 4-12 16-2-2 13-17z" fill="#FCDF1D"/>
<path transform="translate(568,250)" d="m0 0 3 3 11 24 2 5-4-4-12-24z" fill="#F2D156"/>
<path transform="translate(522,500)" d="m0 0 3 1 18 27 2 4-4-2-12-19-7-10z" fill="#DCB761"/>
<path transform="translate(484,423)" d="m0 0h4v3l3 1 1 3-5 2h-6v-5z" fill="#F9DF8B"/>
<path transform="translate(553,403)" d="m0 0 5 1-1 3-7 2-8 2-1-3 6-4z" fill="#FDEBB6"/>
<path transform="translate(364,591)" d="m0 0v3l-9 12-5 8-3 1 2-5 12-17z" fill="#F6D930"/>
<path transform="translate(635,384)" d="m0 0h8l-3 2-9 3-9 2h-3v-2z" fill="#E0B84F"/>
<path transform="translate(703,441)" d="m0 0 2 1-7 9-12 11-2 1 3-6h2v-2l3-3h2l1-3 5-5z" fill="#AA5C09"/>
<path transform="translate(282,591)" d="m0 0 3 2-1 10-2 3-1 5h-1v-14z" fill="#D5A01F"/>
<path transform="translate(553,222)" d="m0 0 3 3 12 23-1 2-8-13-5-9z" fill="#F8DB3C"/>
<path transform="translate(139,344)" d="m0 0 5 2 13 12 9 9h-3l-11-11-8-7z" fill="#F2D260"/>
<path transform="translate(769,313)" d="m0 0 12 1 10 2 1 3-7-1-13-2z" fill="#F0D35C"/>
<path transform="translate(274,716)" d="m0 0 1 4-3 5-9 5h-2v-6l1 4 5-3 5-8z" fill="#F6D931"/>
<path transform="translate(278,612)" d="m0 0h2l1 8-1 6-4 1 1-13z" fill="#D6A323"/>
<path transform="translate(394,547)" d="m0 0 1 2-10 16-5 5 1-5 8-11z" fill="#F6D931"/>
<path transform="translate(502,471)" d="m0 0 3 1 6 9 11 16-1 2-12-17-7-9z" fill="#E7C24D"/>
<path transform="translate(492,95)" d="m0 0 3 4 3 7v6l-4-4-4-10v-2z" fill="#FDE42B"/>
<path transform="translate(746,405)" d="m0 0 1 3-15 15-1-3z" fill="#F2CF5B"/>
<path transform="translate(475,439)" d="m0 0 5 2 4 5-1 2-6-5-1 15h-1z" fill="#FBE18C"/>
<path transform="translate(455,440)" d="m0 0 3 1-9 4-9 3h-7l3-2 16-5z" fill="#FDE977"/>
<path transform="translate(407,527)" d="m0 0 1 2-4 8-6 8-3 2 2-4 2-2 2-7 4-4z" fill="#F6DB5F"/>
<path transform="translate(371,577)" d="m0 0 1 2-7 10-6 8h-2l2-4z" fill="#FCE38D"/>
<path transform="translate(741,355)" d="m0 0h3v2l-6 2-9 2-7 2-2-2 11-3 7-2z" fill="#AC5E09"/>
<path transform="translate(132,325)" d="m0 0 4 1h-2v3l9 2v2h5l1 2-7-1-7-3-4-2z" fill="#AE620C"/>
<path transform="translate(794,358)" d="m0 0 1 3-11 11h-3l1-3 8-7z" fill="#FAE03E"/>
<path transform="translate(806,347)" d="m0 0 3 1-7 6-1 2h-2l-1 3-3 1 1-4z" fill="#F5D752"/>
<path transform="translate(658,717)" d="m0 0 8 4 1 3-9-2-4-3z" fill="#D9A614"/>
<path transform="translate(679,465)" d="m0 0 3 1-14 14-1-3 4-4h2v-2h2l2-4h2z" fill="#AA5C08"/>
<path transform="translate(780,371)" d="m0 0 3 2-8 7-6 5-2-1z" fill="#F5DA4F"/>
<path transform="translate(714,433)" d="m0 0 2 1-12 11-1 2-2-1 7-9z" fill="#B1680F"/>
<path transform="translate(819,320)" d="m0 0 11 1 3 3-3 4-1-3-4-2-7-1z" fill="#E9C74D"/>
<path transform="translate(572,673)" d="m0 0 14 7 1 3-5-2-12-6z" fill="#C28421"/>
<path transform="translate(518,646)" d="m0 0 6 2 7 4 6 4-2 1-17-9z" fill="#DAA81C"/>
<path transform="translate(523,418)" d="m0 0h2v2l-17 5-3-1 9-4z" fill="#EACB83"/>
<path transform="translate(755,391)" d="m0 0 1 3-11 11-1-3z" fill="#AB5F0B"/>
<path transform="translate(182,314)" d="m0 0 4 1-9 3h-8l2-3z" fill="#EDC542"/>
<path transform="translate(303,673)" d="m0 0h2l-2 5-8 11-2-1 6-9z" fill="#F4D737"/>
<path transform="translate(292,689)" d="m0 0 2 1-1 3h-2l-2 5-4 4-2-1z" fill="#F9DC27"/>
<path transform="translate(331,635)" d="m0 0h2l-1 4-6 8h-2l2-4z" fill="#F9DC26"/>
<path transform="translate(266,685)" d="m0 0 2 1-1 12-3-4-1 4 1-10h2z" fill="#D7AB4B"/>
<path transform="translate(417,514)" d="m0 0 1 3-3 5-7 9-1-2 3-5h2l1-5 3-3z" fill="#F3D63B"/>
<path transform="translate(696,454)" d="m0 0 2 1-12 12-2-2 7-7z" fill="#ECCB5E"/>
<path transform="translate(567,404)" d="m0 0h9l-4 2-12 3 1-3z" fill="#E7C56C"/>
<path transform="translate(544,202)" d="m0 0 2 2 6 13v2h-2l-5-10-2-6z" fill="#F6D84D"/>
<path transform="translate(719,426)" d="m0 0 4 1-6 6-6 2v-2z" fill="#AD620B"/>
<path transform="translate(431,373)" d="m0 0 4 4 7 10v2h-2l-9-13z" fill="#EDCB48"/>
<path transform="translate(125,329)" d="m0 0 3 1 5 6 6 5-1 3-13-13z" fill="#F5D865"/>
<path transform="translate(415,514)" d="m0 0h2l-2 5h-2l-1 5h-2l-1 3-1-4z" fill="#FCE7A8"/>
<path transform="translate(429,448)" d="m0 0h7l-4 2-8 3-4-1 3-2z" fill="#FCE583"/>
<path transform="translate(666,298)" d="m0 0 13 1 7 1v1h-9l-2 1-9-3z" fill="#F7DB4F"/>
<path transform="translate(476,272)" d="m0 0h1l1 7v8l-2 4h-1z" fill="#F1D340"/>
<path transform="translate(568,250)" d="m0 0 3 3 4 9v2h-2l-5-10z" fill="#F4D444"/>
<path transform="translate(465,416)" d="m0 0 6 3 2-2v7l-5-2-3-3z" fill="#FEEFCA"/>
<path transform="translate(269,669)" d="m0 0h2v10h-4z" fill="#DCAA17"/>
<path transform="translate(484,423)" d="m0 0 2 1-2 6 3 1v1h-6v-5z" fill="#EBCD84"/>
<path transform="translate(288,577)" d="m0 0h2l1 6h-2l-2 9h-1l1-11z" fill="#F1D13D"/>
<path transform="translate(480,448)" d="m0 0 3 1v3l2 1-4 2-2-1v-5z" fill="#FCE38D"/>
<path transform="translate(757,348)" d="m0 0 3 1-9 3h-7l3-2z" fill="#D4A53B"/>
<path transform="translate(676,300)" d="m0 0 13 1 4 3-12-1-5-1z" fill="#EDC743"/>
<path transform="translate(139,344)" d="m0 0 5 2 8 7-3 1-10-9z" fill="#F3D352"/>
</svg>
