<svg width="19" height="20" viewBox="0 0 19 20" fill="none" xmlns="http://www.w3.org/2000/svg">
<path d="M15.75 14.08C14.9583 14.08 14.25 14.38 13.7083 14.85L6.28125 10.7C6.33333 10.47 6.375 10.24 6.375 10C6.375 9.76 6.33333 9.53 6.28125 9.3L13.625 5.19C14.1875 5.69 14.9271 6 15.75 6C17.4792 6 18.875 4.66 18.875 3C18.875 1.34 17.4792 0 15.75 0C14.0208 0 12.625 1.34 12.625 3C12.625 3.24 12.6667 3.47 12.7188 3.7L5.375 7.81C4.8125 7.31 4.07292 7 3.25 7C1.52083 7 0.125 8.34 0.125 10C0.125 11.66 1.52083 13 3.25 13C4.07292 13 4.8125 12.69 5.375 12.19L12.7917 16.35C12.7396 16.56 12.7083 16.78 12.7083 17C12.7083 18.61 14.0729 19.92 15.75 19.92C17.4271 19.92 18.7917 18.61 18.7917 17C18.7917 15.39 17.4271 14.08 15.75 14.08ZM15.75 2C16.3229 2 16.7917 2.45 16.7917 3C16.7917 3.55 16.3229 4 15.75 4C15.1771 4 14.7083 3.55 14.7083 3C14.7083 2.45 15.1771 2 15.75 2ZM3.25 11C2.67708 11 2.20833 10.55 2.20833 10C2.20833 9.45 2.67708 9 3.25 9C3.82292 9 4.29167 9.45 4.29167 10C4.29167 10.55 3.82292 11 3.25 11ZM15.75 18.02C15.1771 18.02 14.7083 17.57 14.7083 17.02C14.7083 16.47 15.1771 16.02 15.75 16.02C16.3229 16.02 16.7917 16.47 16.7917 17.02C16.7917 17.57 16.3229 18.02 15.75 18.02Z" fill="black" fill-opacity="0.46"/>
</svg>
