<svg width="17" height="16" viewBox="0 0 17 16" fill="none" xmlns="http://www.w3.org/2000/svg">
<g clip-path="url(#clip0_381_1337)">
<path d="M4.87887 5.94869H3.88792C3.44989 5.94869 3.0298 5.77468 2.72007 5.46495C2.41033 5.15521 2.23633 4.73513 2.23633 4.2971C2.23633 3.85907 2.41033 3.43898 2.72007 3.12925C3.0298 2.81951 3.44989 2.64551 3.88792 2.64551H4.87887" stroke="#9CA3AF" stroke-width="1.98191" stroke-linecap="round" stroke-linejoin="round"/>
<path d="M12.8066 5.94869H13.7976C14.2356 5.94869 14.6557 5.77468 14.9654 5.46495C15.2752 5.15521 15.4492 4.73513 15.4492 4.2971C15.4492 3.85907 15.2752 3.43898 14.9654 3.12925C14.6557 2.81951 14.2356 2.64551 13.7976 2.64551H12.8066" stroke="#9CA3AF" stroke-width="1.98191" stroke-linecap="round" stroke-linejoin="round"/>
<path d="M3.55664 14.5371H14.1268" stroke="#9CA3AF" stroke-width="1.98191" stroke-linecap="round" stroke-linejoin="round"/>
<path d="M7.52097 9.6875V11.2334C7.52097 11.5967 7.21047 11.8808 6.88015 12.0328C6.1006 12.3895 5.53906 13.3738 5.53906 14.5366" stroke="#9CA3AF" stroke-width="1.98191" stroke-linecap="round" stroke-linejoin="round"/>
<path d="M10.1641 9.6875V11.2334C10.1641 11.5967 10.4746 11.8808 10.8049 12.0328C11.5844 12.3895 12.146 13.3738 12.146 14.5366" stroke="#9CA3AF" stroke-width="1.98191" stroke-linecap="round" stroke-linejoin="round"/>
<path d="M12.8065 1.32422H4.87891V5.94867C4.87891 6.99994 5.29652 8.00815 6.03988 8.75151C6.78324 9.49487 7.79145 9.91249 8.84272 9.91249C9.89399 9.91249 10.9022 9.49487 11.6456 8.75151C12.3889 8.00815 12.8065 6.99994 12.8065 5.94867V1.32422Z" stroke="#9CA3AF" stroke-width="1.98191" stroke-linecap="round" stroke-linejoin="round"/>
</g>
<defs>
<clipPath id="clip0_381_1337">
<rect width="15.8553" height="15.8553" fill="white" transform="translate(0.916016 0.00292969)"/>
</clipPath>
</defs>
</svg>
