<svg width="350" height="97" viewBox="0 0 350 97" fill="none" xmlns="http://www.w3.org/2000/svg">
<path d="M15.4752 56.6754L18.8269 55.8013C19.2765 56.7137 19.8442 57.4701 20.5301 58.0707C21.2069 58.6736 21.9613 59.1312 22.7933 59.4435C23.6187 59.7671 24.4877 59.9446 25.4004 59.976C26.3131 60.0074 27.2289 59.9033 28.1479 59.6636C29.8237 59.2266 31.2315 58.4072 32.3711 57.2055C33.5017 56.0062 34.2529 54.4775 34.6248 52.6196C34.9877 50.7641 34.8566 48.638 34.2316 46.2414C33.6066 43.8448 32.6827 41.9255 31.4599 40.4835C30.228 39.0438 28.8259 38.0768 27.2536 37.5823C25.6723 37.0902 24.0437 37.0626 22.3679 37.4997C21.4489 37.7393 20.5988 38.0957 19.8177 38.5689C19.0366 39.042 18.3637 39.6168 17.7992 40.2932C17.228 40.9811 16.7943 41.7533 16.4981 42.61C16.1953 43.478 16.0693 44.4154 16.1201 45.4221L12.7685 46.2962C12.6519 44.8158 12.7812 43.4301 13.1566 42.1391C13.532 40.848 14.113 39.6813 14.8996 38.639C15.6886 37.6057 16.6474 36.7254 17.7761 35.998C18.8956 35.273 20.1537 34.7285 21.5502 34.3643C23.9108 33.7487 26.1604 33.7778 28.2991 34.4518C30.4379 35.1257 32.3116 36.3883 33.9202 38.2397C35.5289 40.0911 36.7138 42.4764 37.4751 45.3956C38.2364 48.3147 38.3672 50.9749 37.8676 53.3761C37.368 55.7773 36.3495 57.7942 34.8123 59.4268C33.2751 61.0593 31.3262 62.1834 28.9656 62.799C27.5691 63.1632 26.2053 63.3024 24.8742 63.2165C23.5342 63.1329 22.2664 62.8285 21.0709 62.3031C19.8778 61.7867 18.8022 61.0568 17.8441 60.1135C16.8884 59.1792 16.0988 58.0331 15.4752 56.6754Z" fill="black"/>
<path d="M52.7526 56.6751L56.1042 55.8011C56.5538 56.7134 57.1216 57.4699 57.8074 58.0705C58.4843 58.6734 59.2387 59.1309 60.0707 59.4432C60.896 59.7668 61.765 59.9444 62.6777 59.9758C63.5904 60.0072 64.5063 59.903 65.4253 59.6634C67.1011 59.2264 68.5088 58.407 69.6484 57.2053C70.779 56.0059 71.5302 54.4773 71.9021 52.6194C72.265 50.7638 72.134 48.6378 71.509 46.2412C70.884 43.8446 69.96 41.9253 68.7372 40.4833C67.5054 39.0436 66.1033 38.0765 64.5309 37.5821C62.9496 37.0899 61.321 37.0624 59.6452 37.4994C58.7262 37.7391 57.8762 38.0955 57.095 38.5686C56.3139 39.0417 55.6411 39.6165 55.0766 40.293C54.5054 40.9808 54.0717 41.7531 53.7755 42.6097C53.4726 43.4778 53.3466 44.4151 53.3974 45.4219L50.0458 46.2959C49.9292 44.8156 50.0586 43.4299 50.4339 42.1388C50.8093 40.8477 51.3903 39.681 52.177 38.6387C52.966 37.6054 53.9248 36.7251 55.0534 35.9978C56.173 35.2728 57.431 34.7282 58.8275 34.364C61.1881 33.7484 63.4377 33.7776 65.5765 34.4515C67.7152 35.1254 69.5889 36.3881 71.1976 38.2395C72.8062 40.0909 73.9912 42.4762 74.7525 45.3953C75.5137 48.3145 75.6446 50.9747 75.1449 53.3759C74.6453 55.7771 73.6269 57.794 72.0896 59.4265C70.5524 61.0591 68.6035 62.1832 66.2429 62.7988C64.8464 63.163 63.4827 63.3021 62.1516 63.2162C60.8115 63.1327 59.5437 62.8282 58.3483 62.3028C57.1551 61.7865 56.0795 61.0566 55.1214 60.1133C54.1657 59.1789 53.3761 58.0329 52.7526 56.6751Z" fill="black"/>
<path d="M90.0299 56.6751L93.3815 55.8011C93.8312 56.7134 94.3989 57.4699 95.0848 58.0705C95.7616 58.6734 96.516 59.1309 97.348 59.4432C98.1733 59.7668 99.0424 59.9444 99.9551 59.9758C100.868 60.0072 101.784 59.903 102.703 59.6634C104.378 59.2264 105.786 58.407 106.926 57.2053C108.056 56.0059 108.808 54.4773 109.179 52.6194C109.542 50.7638 109.411 48.6378 108.786 46.2412C108.161 43.8446 107.237 41.9253 106.015 40.4833C104.783 39.0436 103.381 38.0765 101.808 37.5821C100.227 37.0899 98.5984 37.0624 96.9226 37.4994C96.0036 37.7391 95.1535 38.0955 94.3724 38.5686C93.5912 39.0417 92.9184 39.6165 92.3539 40.293C91.7827 40.9808 91.349 41.7531 91.0528 42.6097C90.7499 43.4778 90.6239 44.4151 90.6748 45.4219L87.3232 46.2959C87.2065 44.8156 87.3359 43.4299 87.7113 42.1388C88.0867 40.8477 88.6677 39.681 89.4543 38.6387C90.2433 37.6054 91.2021 36.7251 92.3307 35.9978C93.4503 35.2728 94.7084 34.7282 96.1049 34.364C98.4654 33.7484 100.715 33.7776 102.854 34.4515C104.993 35.1254 106.866 36.3881 108.475 38.2395C110.084 40.0909 111.269 42.4762 112.03 45.3953C112.791 48.3145 112.922 50.9747 112.422 53.3759C111.923 55.7771 110.904 57.794 109.367 59.4265C107.83 61.0591 105.881 62.1832 103.52 62.7988C102.124 63.163 100.76 63.3021 99.4289 63.2162C98.0889 63.1327 96.8211 62.8282 95.6256 62.3028C94.4325 61.7865 93.3568 61.0566 92.3988 60.1133C91.4431 59.1789 90.6534 58.0329 90.0299 56.6751Z" fill="black"/>
<path d="M127.307 56.6751L130.659 55.8011C131.109 56.7134 131.676 57.4699 132.362 58.0705C133.039 58.6734 133.793 59.1309 134.625 59.4432C135.451 59.7668 136.32 59.9444 137.232 59.9758C138.145 60.0072 139.061 59.903 139.98 59.6634C141.656 59.2264 143.063 58.407 144.203 57.2053C145.334 56.0059 146.085 54.4773 146.457 52.6194C146.82 50.7638 146.689 48.6378 146.064 46.2412C145.439 43.8446 144.515 41.9253 143.292 40.4833C142.06 39.0436 140.658 38.0765 139.086 37.5821C137.504 37.0899 135.876 37.0624 134.2 37.4994C133.281 37.7391 132.431 38.0955 131.65 38.5686C130.869 39.0417 130.196 39.6165 129.631 40.293C129.06 40.9808 128.626 41.7531 128.33 42.6097C128.027 43.4778 127.901 44.4151 127.952 45.4219L124.601 46.2959C124.484 44.8156 124.613 43.4299 124.989 42.1388C125.364 40.8477 125.945 39.681 126.732 38.6387C127.521 37.6054 128.479 36.7251 129.608 35.9978C130.728 35.2728 131.986 34.7282 133.382 34.364C135.743 33.7484 137.992 33.7776 140.131 34.4515C142.27 35.1254 144.144 36.3881 145.752 38.2395C147.361 40.0909 148.546 42.4762 149.307 45.3953C150.068 48.3145 150.199 50.9747 149.7 53.3759C149.2 55.7771 148.182 57.794 146.644 59.4265C145.107 61.0591 143.158 62.1832 140.798 62.7988C139.401 63.163 138.037 63.3021 136.706 63.2162C135.366 63.1327 134.098 62.8282 132.903 62.3028C131.71 61.7865 130.634 61.0566 129.676 60.1133C128.72 59.1789 127.931 58.0329 127.307 56.6751Z" fill="black"/>
<path d="M164.585 56.6751L167.936 55.8011C168.386 56.7134 168.954 57.4699 169.639 58.0705C170.316 58.6734 171.071 59.1309 171.903 59.4432C172.728 59.7668 173.597 59.9444 174.51 59.9758C175.422 60.0072 176.338 59.903 177.257 59.6634C178.933 59.2264 180.341 58.407 181.48 57.2053C182.611 56.0059 183.362 54.4773 183.734 52.6194C184.097 50.7638 183.966 48.6378 183.341 46.2412C182.716 43.8446 181.792 41.9253 180.569 40.4833C179.337 39.0436 177.935 38.0765 176.363 37.5821C174.782 37.0899 173.153 37.0624 171.477 37.4994C170.558 37.7391 169.708 38.0955 168.927 38.5686C168.146 39.0417 167.473 39.6165 166.909 40.293C166.337 40.9808 165.904 41.7531 165.608 42.6097C165.305 43.4778 165.179 44.4151 165.229 45.4219L161.878 46.2959C161.761 44.8156 161.891 43.4299 162.266 42.1388C162.641 40.8477 163.222 39.681 164.009 38.6387C164.798 37.6054 165.757 36.7251 166.885 35.9978C168.005 35.2728 169.263 34.7282 170.66 34.364C173.02 33.7484 175.27 33.7776 177.409 34.4515C179.547 35.1254 181.421 36.3881 183.03 38.2395C184.638 40.0909 185.823 42.4762 186.584 45.3953C187.346 48.3145 187.477 50.9747 186.977 53.3759C186.477 55.7771 185.459 57.794 183.922 59.4265C182.384 61.0591 180.436 62.1832 178.075 62.7988C176.678 63.163 175.315 63.3021 173.984 63.2162C172.644 63.1327 171.376 62.8282 170.18 62.3028C168.987 61.7865 167.912 61.0566 166.953 60.1133C165.998 59.1789 165.208 58.0329 164.585 56.6751Z" fill="black"/>
<path d="M201.862 56.6751L205.214 55.8011C205.663 56.7134 206.231 57.4699 206.917 58.0705C207.594 58.6734 208.348 59.1309 209.18 59.4432C210.005 59.7668 210.874 59.9444 211.787 59.9758C212.7 60.0072 213.616 59.903 214.535 59.6634C216.21 59.2264 217.618 58.407 218.758 57.2053C219.888 56.0059 220.64 54.4773 221.012 52.6194C221.374 50.7638 221.243 48.6378 220.618 46.2412C219.993 43.8446 219.069 41.9253 217.847 40.4833C216.615 39.0436 215.213 38.0765 213.64 37.5821C212.059 37.0899 210.43 37.0624 208.755 37.4994C207.836 37.7391 206.986 38.0955 206.204 38.5686C205.423 39.0417 204.75 39.6165 204.186 40.293C203.615 40.9808 203.181 41.7531 202.885 42.6097C202.582 43.4778 202.456 44.4151 202.507 45.4219L199.155 46.2959C199.039 44.8156 199.168 43.4299 199.543 42.1388C199.919 40.8477 200.5 39.681 201.286 38.6387C202.075 37.6054 203.034 36.7251 204.163 35.9978C205.282 35.2728 206.54 34.7282 207.937 34.364C210.297 33.7484 212.547 33.7776 214.686 34.4515C216.825 35.1254 218.698 36.3881 220.307 38.2395C221.916 40.0909 223.101 42.4762 223.862 45.3953C224.623 48.3145 224.754 50.9747 224.254 53.3759C223.755 55.7771 222.736 57.794 221.199 59.4265C219.662 61.0591 217.713 62.1832 215.352 62.7988C213.956 63.163 212.592 63.3021 211.261 63.2162C209.921 63.1327 208.653 62.8282 207.458 62.3028C206.264 61.7865 205.189 61.0566 204.231 60.1133C203.275 59.1789 202.485 58.0329 201.862 56.6751Z" fill="black"/>
<path d="M239.139 56.6751L242.491 55.8011C242.941 56.7134 243.508 57.4699 244.194 58.0705C244.871 58.6734 245.625 59.1309 246.457 59.4432C247.283 59.7668 248.152 59.9444 249.064 59.9758C249.977 60.0072 250.893 59.903 251.812 59.6634C253.488 59.2264 254.896 58.407 256.035 57.2053C257.166 56.0059 257.917 54.4773 258.289 52.6194C258.652 50.7638 258.521 48.6378 257.896 46.2412C257.271 43.8446 256.347 41.9253 255.124 40.4833C253.892 39.0436 252.49 38.0765 250.918 37.5821C249.336 37.0899 247.708 37.0624 246.032 37.4994C245.113 37.7391 244.263 38.0955 243.482 38.5686C242.701 39.0417 242.028 39.6165 241.463 40.293C240.892 40.9808 240.458 41.7531 240.162 42.6097C239.859 43.4778 239.733 44.4151 239.784 45.4219L236.433 46.2959C236.316 44.8156 236.445 43.4299 236.821 42.1388C237.196 40.8477 237.777 39.681 238.564 38.6387C239.353 37.6054 240.312 36.7251 241.44 35.9978C242.56 35.2728 243.818 34.7282 245.214 34.364C247.575 33.7484 249.824 33.7776 251.963 34.4515C254.102 35.1254 255.976 36.3881 257.584 38.2395C259.193 40.0909 260.378 42.4762 261.139 45.3953C261.9 48.3145 262.031 50.9747 261.532 53.3759C261.032 55.7771 260.014 57.794 258.476 59.4265C256.939 61.0591 254.99 62.1832 252.63 62.7988C251.233 63.163 249.869 63.3021 248.538 63.2162C247.198 63.1327 245.93 62.8282 244.735 62.3028C243.542 61.7865 242.466 61.0566 241.508 60.1133C240.552 59.1789 239.763 58.0329 239.139 56.6751Z" fill="black"/>
<path d="M276.417 56.6751L279.768 55.8011C280.218 56.7134 280.786 57.4699 281.471 58.0705C282.148 58.6734 282.903 59.1309 283.735 59.4432C284.56 59.7668 285.429 59.9444 286.342 59.9758C287.254 60.0072 288.17 59.903 289.089 59.6634C290.765 59.2264 292.173 58.407 293.312 57.2053C294.443 56.0059 295.194 54.4773 295.566 52.6194C295.929 50.7638 295.798 48.6378 295.173 46.2412C294.548 43.8446 293.624 41.9253 292.401 40.4833C291.169 39.0436 289.767 38.0765 288.195 37.5821C286.614 37.0899 284.985 37.0624 283.309 37.4994C282.39 37.7391 281.54 38.0955 280.759 38.5686C279.978 39.0417 279.305 39.6165 278.741 40.293C278.169 40.9808 277.736 41.7531 277.44 42.6097C277.137 43.4778 277.011 44.4151 277.062 45.4219L273.71 46.2959C273.593 44.8156 273.723 43.4299 274.098 42.1388C274.473 40.8477 275.054 39.681 275.841 38.6387C276.63 37.6054 277.589 36.7251 278.717 35.9978C279.837 35.2728 281.095 34.7282 282.492 34.364C284.852 33.7484 287.102 33.7776 289.241 34.4515C291.379 35.1254 293.253 36.3881 294.862 38.2395C296.47 40.0909 297.655 42.4762 298.417 45.3953C299.178 48.3145 299.309 50.9747 298.809 53.3759C298.309 55.7771 297.291 57.794 295.754 59.4265C294.216 61.0591 292.268 62.1832 289.907 62.7988C288.51 63.163 287.147 63.3021 285.816 63.2162C284.476 63.1327 283.208 62.8282 282.012 62.3028C280.819 61.7865 279.744 61.0566 278.785 60.1133C277.83 59.1789 277.04 58.0329 276.417 56.6751Z" fill="black"/>
<path d="M313.694 56.6751L317.046 55.8011C317.495 56.7134 318.063 57.4699 318.749 58.0705C319.426 58.6734 320.18 59.1309 321.012 59.4432C321.837 59.7668 322.706 59.9444 323.619 59.9758C324.532 60.0072 325.448 59.903 326.367 59.6634C328.042 59.2264 329.45 58.407 330.59 57.2053C331.72 56.0059 332.472 54.4773 332.844 52.6194C333.206 50.7638 333.075 48.6378 332.45 46.2412C331.825 43.8446 330.901 41.9253 329.679 40.4833C328.447 39.0436 327.045 38.0765 325.472 37.5821C323.891 37.0899 322.262 37.0624 320.587 37.4994C319.668 37.7391 318.818 38.0955 318.036 38.5686C317.255 39.0417 316.582 39.6165 316.018 40.293C315.447 40.9808 315.013 41.7531 314.717 42.6097C314.414 43.4778 314.288 44.4151 314.339 45.4219L310.987 46.2959C310.871 44.8156 311 43.4299 311.375 42.1388C311.751 40.8477 312.332 39.681 313.118 38.6387C313.907 37.6054 314.866 36.7251 315.995 35.9978C317.114 35.2728 318.372 34.7282 319.769 34.364C322.13 33.7484 324.379 33.7776 326.518 34.4515C328.657 35.1254 330.53 36.3881 332.139 38.2395C333.748 40.0909 334.933 42.4762 335.694 45.3953C336.455 48.3145 336.586 50.9747 336.086 53.3759C335.587 55.7771 334.568 57.794 333.031 59.4265C331.494 61.0591 329.545 62.1832 327.184 62.7988C325.788 63.163 324.424 63.3021 323.093 63.2162C321.753 63.1327 320.485 62.8282 319.29 62.3028C318.097 61.7865 317.021 61.0566 316.063 60.1133C315.107 59.1789 314.317 58.0329 313.694 56.6751Z" fill="black"/>
</svg>
