<svg width="708" height="404" viewBox="0 0 708 404" fill="none" xmlns="http://www.w3.org/2000/svg">
<g filter="url(#filter0_d_379_2143)">
<rect x="15" y="15" width="668" height="364" rx="34" fill="white"/>
</g>
<path d="M643.325 201.162C643.325 233.837 616.837 260.325 584.162 260.325C551.488 260.325 525 233.837 525 201.162C525 168.488 551.488 142 584.162 142C616.837 142 643.325 168.488 643.325 201.162ZM539.882 201.162C539.882 225.618 559.707 245.443 584.162 245.443C608.618 245.443 628.443 225.618 628.443 201.162C628.443 176.707 608.618 156.882 584.162 156.882C559.707 156.882 539.882 176.707 539.882 201.162Z" fill="#CEEEF9"/>
<g filter="url(#filter1_i_379_2143)">
<path d="M584.162 149.441C584.162 145.331 587.507 141.952 591.584 142.467C599.571 143.477 607.294 146.11 614.269 150.233C623.387 155.623 630.891 163.362 635.997 172.642C641.102 181.922 643.624 192.402 643.296 202.989C642.969 213.576 639.806 223.881 634.137 232.828C628.468 241.775 620.501 249.036 611.068 253.852C601.635 258.669 591.082 260.866 580.511 260.212C569.939 259.558 559.737 256.078 550.969 250.136C544.262 245.59 538.583 239.73 534.259 232.94C532.051 229.473 533.679 225.006 537.395 223.251C541.111 221.496 545.498 223.133 547.85 226.503C550.937 230.927 554.819 234.767 559.319 237.817C565.881 242.265 573.517 244.869 581.429 245.358C589.341 245.848 597.24 244.204 604.3 240.599C611.361 236.993 617.323 231.559 621.566 224.862C625.809 218.166 628.177 210.453 628.422 202.53C628.666 194.606 626.78 186.762 622.958 179.816C619.136 172.871 613.52 167.078 606.696 163.044C602.017 160.278 596.887 158.408 591.568 157.506C587.517 156.818 584.162 153.55 584.162 149.441Z" fill="#5CB7DE"/>
</g>
<path d="M575.146 211.28C570.274 211.28 567.838 209.516 567.838 205.988C567.838 205.017 568.09 204.14 568.594 203.356C569.116 202.572 569.835 202.012 570.75 201.676C569.91 201.303 569.294 200.78 568.902 200.108C568.51 199.436 568.314 198.717 568.314 197.952C568.314 196.347 568.864 195.068 569.966 194.116C571.067 193.164 572.794 192.688 575.146 192.688C577.554 192.688 579.29 193.164 580.354 194.116C581.436 195.068 581.978 196.347 581.978 197.952C581.978 198.755 581.782 199.511 581.39 200.22C581.016 200.929 580.372 201.48 579.458 201.872C581.455 202.581 582.454 203.953 582.454 205.988C582.454 209.516 580.018 211.28 575.146 211.28ZM575.874 200.724C576.751 200.481 577.386 200.173 577.778 199.8C578.188 199.408 578.394 198.82 578.394 198.036C578.394 197.196 578.123 196.589 577.582 196.216C577.059 195.843 576.247 195.656 575.146 195.656C574.063 195.656 573.251 195.843 572.71 196.216C572.168 196.571 571.898 197.177 571.898 198.036C571.898 199.305 572.607 200.08 574.026 200.36L575.874 200.724ZM575.146 208.34C576.415 208.34 577.348 208.153 577.946 207.78C578.562 207.407 578.87 206.791 578.87 205.932C578.87 205.167 578.664 204.616 578.254 204.28C577.843 203.925 577.171 203.655 576.238 203.468L574.082 203.02C573.279 203.207 572.635 203.505 572.15 203.916C571.664 204.308 571.422 204.943 571.422 205.82C571.422 206.735 571.73 207.388 572.346 207.78C572.962 208.153 573.895 208.34 575.146 208.34ZM584.545 211V208.172H587.625V211H584.545ZM595.061 211.28C594.52 211.28 593.913 211.243 593.241 211.168C592.569 211.093 591.916 210.991 591.281 210.86C590.647 210.729 590.115 210.58 589.685 210.412V207.108C590.451 207.425 591.244 207.659 592.065 207.808C592.905 207.957 593.717 208.032 594.501 208.032C595.827 208.032 596.807 207.855 597.441 207.5C598.095 207.127 598.421 206.455 598.421 205.484C598.421 204.681 598.132 204.112 597.553 203.776C596.993 203.44 596.181 203.272 595.117 203.272H592.289L592.569 200.5H594.921C596.004 200.5 596.797 200.323 597.301 199.968C597.805 199.595 598.057 199.016 598.057 198.232C598.057 197.448 597.768 196.869 597.189 196.496C596.629 196.104 595.724 195.908 594.473 195.908C593.671 195.908 592.868 195.992 592.065 196.16C591.281 196.328 590.591 196.543 589.993 196.804V193.584C590.591 193.323 591.356 193.108 592.289 192.94C593.241 192.772 594.184 192.688 595.117 192.688C597.357 192.688 599.047 193.155 600.185 194.088C601.324 195.021 601.893 196.225 601.893 197.7C601.893 198.577 601.688 199.408 601.277 200.192C600.885 200.957 600.269 201.517 599.429 201.872C600.4 202.171 601.109 202.675 601.557 203.384C602.024 204.075 602.257 204.905 602.257 205.876C602.257 207.108 601.949 208.125 601.333 208.928C600.736 209.731 599.896 210.328 598.813 210.72C597.749 211.093 596.499 211.28 595.061 211.28Z" fill="black"/>
<g filter="url(#filter2_d_379_2143)">
<rect x="248.811" y="320.796" width="16.4475" height="86.3493" transform="rotate(-180 248.811 320.796)" fill="#FFA032"/>
</g>
<g filter="url(#filter3_d_379_2143)">
<rect x="222.086" y="320.797" width="16.4475" height="51.3984" transform="rotate(-180 222.086 320.797)" fill="#6F4EB9"/>
</g>
<g filter="url(#filter4_d_379_2143)">
<rect x="195.359" y="320.797" width="16.4475" height="102.797" transform="rotate(-180 195.359 320.797)" fill="#71E07E"/>
</g>
<g filter="url(#filter5_d_379_2143)">
<rect x="168.635" y="320.797" width="16.4475" height="24.6713" transform="rotate(-180 168.635 320.797)" fill="#FFC34A"/>
</g>
<g filter="url(#filter6_d_379_2143)">
<rect x="141.898" y="320.797" width="16.4475" height="63.734" transform="rotate(-180 141.898 320.797)" fill="#F94545"/>
</g>
<g filter="url(#filter7_d_379_2143)">
<rect x="115.172" y="320.797" width="16.4475" height="37.0069" transform="rotate(-180 115.172 320.797)" fill="#FF7DE3"/>
</g>
<g filter="url(#filter8_d_379_2143)">
<rect x="88.4473" y="320.797" width="16.4475" height="51.3984" transform="rotate(-180 88.4473 320.797)" fill="#4BC1FC"/>
</g>
<path d="M78.9788 332.797V328.289H79.9308L81.2538 330.998L82.5768 328.289H83.5218V332.797H82.5768V329.864L81.5268 332.02H80.9808L79.9238 329.864V332.797H78.9788Z" fill="#999999"/>
<path d="M106.475 332.797V329.017H105.089V328.289H108.799V329.017H107.42V332.797H106.475Z" fill="#999999"/>
<path d="M131.924 332.797L130.874 328.289H131.805L132.484 331.334L133.219 328.877V328.289H133.989L134.857 331.341L135.557 328.289H136.481L135.438 332.797H134.542L133.716 329.913L132.827 332.797H131.924Z" fill="#999999"/>
<path d="M158.907 332.797V329.017H157.521V328.289H161.231V329.017H159.852V332.797H158.907ZM161.752 332.797V328.079H162.697V329.759C162.833 329.656 162.998 329.572 163.194 329.507C163.39 329.442 163.603 329.409 163.831 329.409C164.27 329.409 164.59 329.512 164.79 329.717C164.991 329.922 165.091 330.24 165.091 330.669V332.797H164.146V330.718C164.146 330.494 164.1 330.335 164.006 330.242C163.918 330.149 163.75 330.102 163.502 330.102C163.358 330.102 163.211 330.135 163.061 330.2C162.917 330.265 162.795 330.347 162.697 330.445V332.797H161.752Z" fill="#999999"/>
<path d="M185.687 332.797V328.289H188.858V329.024H186.632V330.179H188.599V330.907H186.632V332.797H185.687Z" fill="#999999"/>
<path d="M212.852 332.866C212.563 332.866 212.292 332.845 212.04 332.803C211.793 332.761 211.578 332.701 211.396 332.621V331.788C211.602 331.872 211.823 331.94 212.061 331.991C212.299 332.043 212.533 332.068 212.761 332.068C213.088 332.068 213.328 332.038 213.482 331.977C213.636 331.917 213.713 331.779 213.713 331.564C213.713 331.429 213.681 331.322 213.615 331.242C213.55 331.163 213.436 331.093 213.272 331.032C213.114 330.967 212.887 330.895 212.593 330.815C212.122 330.685 211.791 330.521 211.599 330.325C211.408 330.129 211.312 329.859 211.312 329.513C211.312 329.098 211.464 328.778 211.767 328.554C212.071 328.33 212.512 328.218 213.09 328.218C213.361 328.218 213.613 328.237 213.846 328.274C214.08 328.312 214.269 328.356 214.413 328.407V329.24C214.031 329.096 213.632 329.023 213.216 329.023C212.922 329.023 212.691 329.056 212.523 329.121C212.355 329.182 212.271 329.313 212.271 329.513C212.271 329.63 212.302 329.723 212.362 329.793C212.423 329.863 212.526 329.926 212.67 329.982C212.82 330.038 213.027 330.101 213.293 330.171C213.662 330.269 213.947 330.386 214.147 330.521C214.348 330.657 214.486 330.811 214.56 330.983C214.64 331.156 214.679 331.35 214.679 331.564C214.679 331.956 214.53 332.271 214.231 332.509C213.933 332.747 213.473 332.866 212.852 332.866ZM216.275 332.866C216.065 332.866 215.869 332.829 215.687 332.754C215.51 332.675 215.365 332.561 215.253 332.411C215.146 332.257 215.092 332.066 215.092 331.837C215.092 331.511 215.207 331.249 215.435 331.053C215.669 330.857 216.012 330.759 216.464 330.759H217.444V330.668C217.444 330.463 217.386 330.318 217.269 330.234C217.157 330.15 216.929 330.108 216.583 330.108C216.205 330.108 215.841 330.167 215.491 330.283V329.618C215.645 329.558 215.832 329.509 216.051 329.471C216.275 329.429 216.518 329.408 216.779 329.408C217.279 329.408 217.664 329.511 217.934 329.716C218.21 329.917 218.347 330.241 218.347 330.689V332.796H217.528L217.479 332.495C217.349 332.612 217.188 332.703 216.996 332.768C216.805 332.834 216.565 332.866 216.275 332.866ZM216.534 332.243C216.744 332.243 216.926 332.208 217.08 332.138C217.234 332.068 217.356 331.98 217.444 331.872V331.347H216.485C216.117 331.347 215.932 331.499 215.932 331.802C215.932 332.096 216.133 332.243 216.534 332.243Z" fill="#999999"/>
<path d="M240.442 332.866C240.153 332.866 239.882 332.845 239.63 332.803C239.383 332.761 239.168 332.701 238.986 332.621V331.788C239.191 331.872 239.413 331.94 239.651 331.991C239.889 332.043 240.122 332.068 240.351 332.068C240.678 332.068 240.918 332.038 241.072 331.977C241.226 331.917 241.303 331.779 241.303 331.564C241.303 331.429 241.27 331.322 241.205 331.242C241.14 331.163 241.025 331.093 240.862 331.032C240.703 330.967 240.477 330.895 240.183 330.815C239.712 330.685 239.38 330.521 239.189 330.325C238.998 330.129 238.902 329.859 238.902 329.513C238.902 329.098 239.054 328.778 239.357 328.554C239.66 328.33 240.101 328.218 240.68 328.218C240.951 328.218 241.203 328.237 241.436 328.274C241.669 328.312 241.858 328.356 242.003 328.407V329.24C241.62 329.096 241.221 329.023 240.806 329.023C240.512 329.023 240.281 329.056 240.113 329.121C239.945 329.182 239.861 329.313 239.861 329.513C239.861 329.63 239.891 329.723 239.952 329.793C240.013 329.863 240.115 329.926 240.26 329.982C240.409 330.038 240.617 330.101 240.883 330.171C241.252 330.269 241.536 330.386 241.737 330.521C241.938 330.657 242.075 330.811 242.15 330.983C242.229 331.156 242.269 331.35 242.269 331.564C242.269 331.956 242.12 332.271 241.821 332.509C241.522 332.747 241.063 332.866 240.442 332.866Z" fill="#999999"/>
<g filter="url(#filter9_d_379_2143)">
<rect x="435.621" y="318.796" width="16.4475" height="86.3493" transform="rotate(-180 435.621 318.796)" fill="#FF8F10"/>
</g>
<g filter="url(#filter10_d_379_2143)">
<rect x="408.896" y="318.797" width="16.4475" height="51.3984" transform="rotate(-180 408.896 318.797)" fill="#6F4EB9"/>
</g>
<g filter="url(#filter11_d_379_2143)">
<rect x="382.17" y="318.797" width="16.4475" height="102.797" transform="rotate(-180 382.17 318.797)" fill="#72DD7F"/>
</g>
<g filter="url(#filter12_d_379_2143)">
<rect x="355.445" y="318.797" width="16.4475" height="24.6713" transform="rotate(-180 355.445 318.797)" fill="#FFC34A"/>
</g>
<g filter="url(#filter13_d_379_2143)">
<rect x="328.709" y="318.797" width="16.4475" height="63.734" transform="rotate(-180 328.709 318.797)" fill="#F05D40"/>
</g>
<g filter="url(#filter14_d_379_2143)">
<rect x="301.982" y="318.797" width="16.4475" height="37.0069" transform="rotate(-180 301.982 318.797)" fill="#FF7DE3"/>
</g>
<g filter="url(#filter15_d_379_2143)">
<rect x="275.258" y="318.797" width="16.4475" height="51.3984" transform="rotate(-180 275.258 318.797)" fill="#42BBF7"/>
</g>
<path d="M265.789 330.797V326.289H266.741L268.064 328.998L269.387 326.289H270.332V330.797H269.387V327.864L268.337 330.02H267.791L266.734 327.864V330.797H265.789Z" fill="#999999"/>
<path d="M293.286 330.797V327.017H291.9V326.289H295.61V327.017H294.231V330.797H293.286Z" fill="#999999"/>
<path d="M318.735 330.797L317.685 326.289H318.616L319.295 329.334L320.03 326.877V326.289H320.8L321.668 329.341L322.368 326.289H323.292L322.249 330.797H321.353L320.527 327.913L319.638 330.797H318.735Z" fill="#999999"/>
<path d="M345.718 330.797V327.017H344.332V326.289H348.042V327.017H346.663V330.797H345.718ZM348.563 330.797V326.079H349.508V327.759C349.643 327.656 349.809 327.572 350.005 327.507C350.201 327.442 350.413 327.409 350.642 327.409C351.081 327.409 351.4 327.512 351.601 327.717C351.802 327.922 351.902 328.24 351.902 328.669V330.797H350.957V328.718C350.957 328.494 350.91 328.335 350.817 328.242C350.728 328.149 350.56 328.102 350.313 328.102C350.168 328.102 350.021 328.135 349.872 328.2C349.727 328.265 349.606 328.347 349.508 328.445V330.797H348.563Z" fill="#999999"/>
<path d="M372.497 330.797V326.289H375.668V327.024H373.442V328.179H375.409V328.907H373.442V330.797H372.497Z" fill="#999999"/>
<path d="M399.663 330.866C399.373 330.866 399.103 330.845 398.851 330.803C398.603 330.761 398.389 330.701 398.207 330.621V329.788C398.412 329.872 398.634 329.94 398.872 329.991C399.11 330.043 399.343 330.068 399.572 330.068C399.898 330.068 400.139 330.038 400.293 329.977C400.447 329.917 400.524 329.779 400.524 329.564C400.524 329.429 400.491 329.322 400.426 329.242C400.36 329.163 400.246 329.093 400.083 329.032C399.924 328.967 399.698 328.895 399.404 328.815C398.932 328.685 398.601 328.521 398.41 328.325C398.218 328.129 398.123 327.859 398.123 327.513C398.123 327.098 398.274 326.778 398.578 326.554C398.881 326.33 399.322 326.218 399.901 326.218C400.171 326.218 400.423 326.237 400.657 326.274C400.89 326.312 401.079 326.356 401.224 326.407V327.24C400.841 327.096 400.442 327.023 400.027 327.023C399.733 327.023 399.502 327.056 399.334 327.121C399.166 327.182 399.082 327.313 399.082 327.513C399.082 327.63 399.112 327.723 399.173 327.793C399.233 327.863 399.336 327.926 399.481 327.982C399.63 328.038 399.838 328.101 400.104 328.171C400.472 328.269 400.757 328.386 400.958 328.521C401.158 328.657 401.296 328.811 401.371 328.983C401.45 329.156 401.49 329.35 401.49 329.564C401.49 329.956 401.34 330.271 401.042 330.509C400.743 330.747 400.283 330.866 399.663 330.866ZM403.086 330.866C402.876 330.866 402.68 330.829 402.498 330.754C402.321 330.675 402.176 330.561 402.064 330.411C401.957 330.257 401.903 330.066 401.903 329.837C401.903 329.511 402.017 329.249 402.246 329.053C402.479 328.857 402.822 328.759 403.275 328.759H404.255V328.668C404.255 328.463 404.197 328.318 404.08 328.234C403.968 328.15 403.739 328.108 403.394 328.108C403.016 328.108 402.652 328.167 402.302 328.283V327.618C402.456 327.558 402.643 327.509 402.862 327.471C403.086 327.429 403.329 327.408 403.59 327.408C404.089 327.408 404.474 327.511 404.745 327.716C405.02 327.917 405.158 328.241 405.158 328.689V330.796H404.339L404.29 330.495C404.159 330.612 403.998 330.703 403.807 330.768C403.616 330.834 403.375 330.866 403.086 330.866ZM403.345 330.243C403.555 330.243 403.737 330.208 403.891 330.138C404.045 330.068 404.166 329.98 404.255 329.872V329.347H403.296C402.927 329.347 402.743 329.499 402.743 329.802C402.743 330.096 402.944 330.243 403.345 330.243Z" fill="#999999"/>
<path d="M427.253 330.866C426.963 330.866 426.693 330.845 426.441 330.803C426.193 330.761 425.979 330.701 425.797 330.621V329.788C426.002 329.872 426.224 329.94 426.462 329.991C426.7 330.043 426.933 330.068 427.162 330.068C427.488 330.068 427.729 330.038 427.883 329.977C428.037 329.917 428.114 329.779 428.114 329.564C428.114 329.429 428.081 329.322 428.016 329.242C427.95 329.163 427.836 329.093 427.673 329.032C427.514 328.967 427.288 328.895 426.994 328.815C426.522 328.685 426.191 328.521 426 328.325C425.808 328.129 425.713 327.859 425.713 327.513C425.713 327.098 425.864 326.778 426.168 326.554C426.471 326.33 426.912 326.218 427.491 326.218C427.761 326.218 428.013 326.237 428.247 326.274C428.48 326.312 428.669 326.356 428.814 326.407V327.24C428.431 327.096 428.032 327.023 427.617 327.023C427.323 327.023 427.092 327.056 426.924 327.121C426.756 327.182 426.672 327.313 426.672 327.513C426.672 327.63 426.702 327.723 426.763 327.793C426.823 327.863 426.926 327.926 427.071 327.982C427.22 328.038 427.428 328.101 427.694 328.171C428.062 328.269 428.347 328.386 428.548 328.521C428.748 328.657 428.886 328.811 428.961 328.983C429.04 329.156 429.08 329.35 429.08 329.564C429.08 329.956 428.93 330.271 428.632 330.509C428.333 330.747 427.873 330.866 427.253 330.866Z" fill="#999999"/>
<path d="M214.88 163.2L212.64 173H212.094C211.553 173 211.124 172.935 210.806 172.804C210.498 172.673 210.242 172.454 210.036 172.146C209.831 171.838 209.626 171.376 209.42 170.76L208.734 168.716L208.062 170.76C207.866 171.357 207.661 171.815 207.446 172.132C207.232 172.449 206.966 172.673 206.648 172.804C206.331 172.935 205.911 173 205.388 173H204.842L202.602 163.2H204.45L206.228 171.068C206.312 170.965 206.406 170.769 206.508 170.48L208.734 164.236L210.974 170.48C211.077 170.769 211.17 170.965 211.254 171.068L213.032 163.2H214.88ZM218.308 171.796C218.653 171.796 218.933 171.754 219.148 171.67C219.362 171.577 219.596 171.418 219.848 171.194L220.926 172.174C220.384 172.837 219.512 173.168 218.308 173.168C217.234 173.168 216.46 172.967 215.984 172.566C215.508 172.155 215.27 171.493 215.27 170.578V168.576C215.27 167.857 215.526 167.293 216.04 166.882C216.562 166.462 217.272 166.252 218.168 166.252C219.092 166.252 219.815 166.476 220.338 166.924C220.86 167.363 221.122 168.007 221.122 168.856C221.122 169.267 221.084 169.584 221.01 169.808C220.944 170.032 220.809 170.2 220.604 170.312C220.398 170.415 220.1 170.466 219.708 170.466H217.076V170.592C217.076 171.395 217.486 171.796 218.308 171.796ZM218.168 167.624C217.822 167.624 217.552 167.727 217.356 167.932C217.169 168.128 217.076 168.389 217.076 168.716V169.22H218.672C218.914 169.22 219.082 169.183 219.176 169.108C219.269 169.033 219.316 168.903 219.316 168.716C219.316 168.361 219.218 168.091 219.022 167.904C218.826 167.717 218.541 167.624 218.168 167.624ZM225.212 171.796C225.557 171.796 225.837 171.754 226.052 171.67C226.267 171.577 226.5 171.418 226.752 171.194L227.83 172.174C227.289 172.837 226.416 173.168 225.212 173.168C224.139 173.168 223.364 172.967 222.888 172.566C222.412 172.155 222.174 171.493 222.174 170.578V168.576C222.174 167.857 222.431 167.293 222.944 166.882C223.467 166.462 224.176 166.252 225.072 166.252C225.996 166.252 226.719 166.476 227.242 166.924C227.765 167.363 228.026 168.007 228.026 168.856C228.026 169.267 227.989 169.584 227.914 169.808C227.849 170.032 227.713 170.2 227.508 170.312C227.303 170.415 227.004 170.466 226.612 170.466H223.98V170.592C223.98 171.395 224.391 171.796 225.212 171.796ZM225.072 167.624C224.727 167.624 224.456 167.727 224.26 167.932C224.073 168.128 223.98 168.389 223.98 168.716V169.22H225.576C225.819 169.22 225.987 169.183 226.08 169.108C226.173 169.033 226.22 168.903 226.22 168.716C226.22 168.361 226.122 168.091 225.926 167.904C225.73 167.717 225.445 167.624 225.072 167.624ZM235.634 173H233.772L233.156 170.788C233.081 170.527 232.969 170.335 232.82 170.214C232.67 170.083 232.418 169.999 232.064 169.962L231.154 170.886V173H229.334V164.698C229.334 164.446 229.282 164.241 229.18 164.082C229.086 163.923 228.914 163.751 228.662 163.564L229.88 162.5C230.356 162.743 230.687 163.023 230.874 163.34C231.06 163.648 231.154 164.082 231.154 164.642V168.674L233.338 166.42H235.55L233.324 168.674C233.772 168.786 234.117 169.005 234.36 169.332C234.612 169.659 234.831 170.144 235.018 170.788L235.634 173ZM238.141 173.168C237.665 172.925 237.333 172.65 237.147 172.342C236.96 172.025 236.867 171.586 236.867 171.026V164.698C236.867 164.446 236.815 164.241 236.713 164.082C236.619 163.923 236.447 163.751 236.195 163.564L237.413 162.5C237.889 162.743 238.22 163.023 238.407 163.34C238.593 163.648 238.687 164.082 238.687 164.642V170.97C238.687 171.222 238.733 171.427 238.827 171.586C238.929 171.745 239.107 171.917 239.359 172.104L238.141 173.168ZM246.798 166.42V173.616C246.798 174.531 246.546 175.193 246.042 175.604C245.547 176.015 244.74 176.22 243.62 176.22H241.772V174.82H243.62C244.096 174.82 244.441 174.727 244.656 174.54C244.871 174.353 244.978 174.045 244.978 173.616V172.118C244.549 172.799 243.881 173.14 242.976 173.14C242.239 173.14 241.669 172.944 241.268 172.552C240.867 172.16 240.666 171.6 240.666 170.872V168.45C240.666 168.198 240.615 167.993 240.512 167.834C240.419 167.675 240.246 167.503 239.994 167.316L241.212 166.252C241.688 166.495 242.019 166.775 242.206 167.092C242.393 167.4 242.486 167.834 242.486 168.394V170.704C242.486 171.021 242.575 171.273 242.752 171.46C242.939 171.647 243.191 171.74 243.508 171.74C243.937 171.74 244.259 171.6 244.474 171.32C244.698 171.04 244.866 170.671 244.978 170.214V166.42H246.798ZM252.634 163.2H256.596C257.791 163.2 258.673 163.457 259.242 163.97C259.812 164.474 260.096 165.258 260.096 166.322C260.096 167.386 259.812 168.175 259.242 168.688C258.673 169.192 257.791 169.444 256.596 169.444H254.608V173H252.634V163.2ZM256.652 167.904C257.082 167.904 257.432 167.773 257.702 167.512C257.982 167.251 258.122 166.854 258.122 166.322C258.122 165.79 257.982 165.393 257.702 165.132C257.432 164.871 257.082 164.74 256.652 164.74H254.608V167.904H256.652ZM264.978 166.252C265.463 166.252 265.874 166.383 266.21 166.644L265.762 168.156C265.566 168.025 265.379 167.932 265.202 167.876C265.025 167.82 264.805 167.792 264.544 167.792C263.928 167.792 263.485 168.203 263.214 169.024V173H261.394V168.45C261.394 168.198 261.343 167.993 261.24 167.834C261.147 167.675 260.974 167.503 260.722 167.316L261.94 166.252C262.257 166.42 262.509 166.597 262.696 166.784C262.883 166.971 263.018 167.195 263.102 167.456C263.289 167.092 263.536 166.803 263.844 166.588C264.152 166.364 264.53 166.252 264.978 166.252ZM269.591 173.168C268.62 173.168 267.873 172.944 267.351 172.496C266.828 172.048 266.567 171.409 266.567 170.578V168.842C266.567 168.011 266.828 167.372 267.351 166.924C267.873 166.476 268.62 166.252 269.591 166.252C270.561 166.252 271.308 166.476 271.831 166.924C272.353 167.372 272.615 168.011 272.615 168.842V170.578C272.615 171.409 272.353 172.048 271.831 172.496C271.308 172.944 270.561 173.168 269.591 173.168ZM269.591 171.768C269.973 171.768 270.267 171.665 270.473 171.46C270.687 171.255 270.795 170.961 270.795 170.578V168.842C270.795 168.459 270.687 168.165 270.473 167.96C270.267 167.755 269.973 167.652 269.591 167.652C269.208 167.652 268.909 167.755 268.695 167.96C268.489 168.165 268.387 168.459 268.387 168.842V170.578C268.387 170.961 268.489 171.255 268.695 171.46C268.909 171.665 269.208 171.768 269.591 171.768ZM281.203 167.316C280.951 167.503 280.774 167.675 280.671 167.834C280.578 167.993 280.531 168.198 280.531 168.45V173.196C280.531 174.111 280.279 174.773 279.775 175.184C279.28 175.595 278.473 175.8 277.353 175.8H275.505V174.4H277.353C277.829 174.4 278.174 174.307 278.389 174.12C278.604 173.933 278.711 173.625 278.711 173.196V172.146C278.496 172.426 278.235 172.641 277.927 172.79C277.628 172.93 277.213 173 276.681 173C275.804 173 275.104 172.711 274.581 172.132C274.068 171.544 273.811 170.755 273.811 169.766V169.486C273.811 168.898 273.918 168.361 274.133 167.876C274.348 167.381 274.67 166.989 275.099 166.7C275.538 166.401 276.065 166.252 276.681 166.252C277.633 166.252 278.356 166.63 278.851 167.386C278.935 167.143 279.066 166.933 279.243 166.756C279.43 166.579 279.677 166.411 279.985 166.252L281.203 167.316ZM277.213 171.6C277.997 171.6 278.496 171.217 278.711 170.452V168.8C278.496 168.035 277.997 167.652 277.213 167.652C276.709 167.652 276.317 167.834 276.037 168.198C275.766 168.553 275.631 168.982 275.631 169.486V169.766C275.631 170.279 275.766 170.713 276.037 171.068C276.308 171.423 276.7 171.6 277.213 171.6ZM286.087 166.252C286.573 166.252 286.983 166.383 287.319 166.644L286.871 168.156C286.675 168.025 286.489 167.932 286.311 167.876C286.134 167.82 285.915 167.792 285.653 167.792C285.037 167.792 284.594 168.203 284.323 169.024V173H282.503V168.45C282.503 168.198 282.452 167.993 282.349 167.834C282.256 167.675 282.083 167.503 281.831 167.316L283.049 166.252C283.367 166.42 283.619 166.597 283.805 166.784C283.992 166.971 284.127 167.195 284.211 167.456C284.398 167.092 284.645 166.803 284.953 166.588C285.261 166.364 285.639 166.252 286.087 166.252ZM290.714 171.796C291.059 171.796 291.339 171.754 291.554 171.67C291.769 171.577 292.002 171.418 292.254 171.194L293.332 172.174C292.791 172.837 291.918 173.168 290.714 173.168C289.641 173.168 288.866 172.967 288.39 172.566C287.914 172.155 287.676 171.493 287.676 170.578V168.576C287.676 167.857 287.933 167.293 288.446 166.882C288.969 166.462 289.678 166.252 290.574 166.252C291.498 166.252 292.221 166.476 292.744 166.924C293.267 167.363 293.528 168.007 293.528 168.856C293.528 169.267 293.491 169.584 293.416 169.808C293.351 170.032 293.215 170.2 293.01 170.312C292.805 170.415 292.506 170.466 292.114 170.466H289.482V170.592C289.482 171.395 289.893 171.796 290.714 171.796ZM290.574 167.624C290.229 167.624 289.958 167.727 289.762 167.932C289.575 168.128 289.482 168.389 289.482 168.716V169.22H291.078C291.321 169.22 291.489 169.183 291.582 169.108C291.675 169.033 291.722 168.903 291.722 168.716C291.722 168.361 291.624 168.091 291.428 167.904C291.232 167.717 290.947 167.624 290.574 167.624ZM297.016 173.168C296.494 173.168 296.069 173.117 295.742 173.014C295.416 172.921 295.154 172.79 294.958 172.622C294.762 172.454 294.557 172.225 294.342 171.936L295.476 170.97C295.719 171.269 295.943 171.479 296.148 171.6C296.363 171.712 296.652 171.768 297.016 171.768C297.418 171.768 297.707 171.721 297.884 171.628C298.071 171.525 298.164 171.367 298.164 171.152C298.164 170.947 298.048 170.788 297.814 170.676C297.59 170.564 297.147 170.452 296.484 170.34C295.178 170.088 294.524 169.379 294.524 168.212C294.524 167.615 294.762 167.139 295.238 166.784C295.714 166.429 296.349 166.252 297.142 166.252C297.805 166.252 298.328 166.35 298.71 166.546C299.102 166.733 299.42 167.008 299.662 167.372L298.542 168.324C298.3 168.081 298.08 167.909 297.884 167.806C297.688 167.703 297.441 167.652 297.142 167.652C296.545 167.652 296.246 167.862 296.246 168.282C296.246 168.478 296.344 168.627 296.54 168.73C296.746 168.833 297.002 168.912 297.31 168.968C297.889 169.099 298.346 169.234 298.682 169.374C299.028 169.505 299.312 169.715 299.536 170.004C299.77 170.293 299.886 170.69 299.886 171.194C299.886 171.866 299.648 172.365 299.172 172.692C298.696 173.009 297.978 173.168 297.016 173.168ZM303.401 173.168C302.878 173.168 302.454 173.117 302.127 173.014C301.8 172.921 301.539 172.79 301.343 172.622C301.147 172.454 300.942 172.225 300.727 171.936L301.861 170.97C302.104 171.269 302.328 171.479 302.533 171.6C302.748 171.712 303.037 171.768 303.401 171.768C303.802 171.768 304.092 171.721 304.269 171.628C304.456 171.525 304.549 171.367 304.549 171.152C304.549 170.947 304.432 170.788 304.199 170.676C303.975 170.564 303.532 170.452 302.869 170.34C301.562 170.088 300.909 169.379 300.909 168.212C300.909 167.615 301.147 167.139 301.623 166.784C302.099 166.429 302.734 166.252 303.527 166.252C304.19 166.252 304.712 166.35 305.095 166.546C305.487 166.733 305.804 167.008 306.047 167.372L304.927 168.324C304.684 168.081 304.465 167.909 304.269 167.806C304.073 167.703 303.826 167.652 303.527 167.652C302.93 167.652 302.631 167.862 302.631 168.282C302.631 168.478 302.729 168.627 302.925 168.73C303.13 168.833 303.387 168.912 303.695 168.968C304.274 169.099 304.731 169.234 305.067 169.374C305.412 169.505 305.697 169.715 305.921 170.004C306.154 170.293 306.271 170.69 306.271 171.194C306.271 171.866 306.033 172.365 305.557 172.692C305.081 173.009 304.362 173.168 303.401 173.168Z" fill="#717171"/>
<path d="M80.5066 280.07C79.9186 280.07 79.4752 279.925 79.1766 279.636C78.8826 279.347 78.7356 278.901 78.7356 278.299V277.333C78.7356 276.96 78.8149 276.631 78.9736 276.346C79.1369 276.057 79.3679 275.83 79.6666 275.667C79.9652 275.504 80.3176 275.422 80.7236 275.422C80.9569 275.422 81.1599 275.436 81.3326 275.464C81.5052 275.492 81.6709 275.534 81.8296 275.59V276.402C81.5356 276.285 81.1879 276.227 80.7866 276.227C80.4039 276.227 80.1146 276.311 79.9186 276.479C79.7226 276.647 79.6246 276.869 79.6246 277.144V277.361C79.7739 277.254 79.9489 277.174 80.1496 277.123C80.3502 277.067 80.5346 277.039 80.7026 277.039C81.2392 277.039 81.6336 277.17 81.8856 277.431C82.1376 277.692 82.2636 278.061 82.2636 278.537C82.2636 278.836 82.2006 279.102 82.0746 279.335C81.9532 279.564 81.7642 279.743 81.5076 279.874C81.2509 280.005 80.9172 280.07 80.5066 280.07ZM80.5136 279.37C80.8169 279.37 81.0432 279.298 81.1926 279.153C81.3419 279.008 81.4166 278.815 81.4166 278.572C81.4166 278.311 81.3512 278.11 81.2206 277.97C81.0899 277.83 80.8589 277.76 80.5276 277.76C80.3736 277.76 80.2172 277.788 80.0586 277.844C79.8999 277.9 79.7552 277.972 79.6246 278.061V278.488C79.6246 279.076 79.9209 279.37 80.5136 279.37Z" fill="white"/>
<path d="M107.396 294V293.055H105.212V292.411L107.515 289.492H108.341V292.292H108.782V293.055H108.341V294H107.396ZM106.115 292.327H107.557V290.535L106.115 292.327Z" fill="white"/>
<path d="M134.498 267.07C133.28 267.07 132.671 266.629 132.671 265.747C132.671 265.504 132.734 265.285 132.86 265.089C132.99 264.893 133.17 264.753 133.399 264.669C133.189 264.576 133.035 264.445 132.937 264.277C132.839 264.109 132.79 263.929 132.79 263.738C132.79 263.337 132.927 263.017 133.203 262.779C133.478 262.541 133.91 262.422 134.498 262.422C135.1 262.422 135.534 262.541 135.8 262.779C136.07 263.017 136.206 263.337 136.206 263.738C136.206 263.939 136.157 264.128 136.059 264.305C135.965 264.482 135.804 264.62 135.576 264.718C136.075 264.895 136.325 265.238 136.325 265.747C136.325 266.629 135.716 267.07 134.498 267.07ZM134.68 264.431C134.899 264.37 135.058 264.293 135.156 264.2C135.258 264.102 135.31 263.955 135.31 263.759C135.31 263.549 135.242 263.397 135.107 263.304C134.976 263.211 134.773 263.164 134.498 263.164C134.227 263.164 134.024 263.211 133.889 263.304C133.753 263.393 133.686 263.544 133.686 263.759C133.686 264.076 133.863 264.27 134.218 264.34L134.68 264.431ZM134.498 266.335C134.815 266.335 135.048 266.288 135.198 266.195C135.352 266.102 135.429 265.948 135.429 265.733C135.429 265.542 135.377 265.404 135.275 265.32C135.172 265.231 135.004 265.164 134.771 265.117L134.232 265.005C134.031 265.052 133.87 265.126 133.749 265.229C133.627 265.327 133.567 265.486 133.567 265.705C133.567 265.934 133.644 266.097 133.798 266.195C133.952 266.288 134.185 266.335 134.498 266.335Z" fill="white"/>
<path d="M159.768 305.07C159.632 305.07 159.481 305.061 159.313 305.042C159.145 305.023 158.981 304.998 158.823 304.965C158.664 304.932 158.531 304.895 158.424 304.853V304.027C158.615 304.106 158.813 304.165 159.019 304.202C159.229 304.239 159.432 304.258 159.628 304.258C159.959 304.258 160.204 304.214 160.363 304.125C160.526 304.032 160.608 303.864 160.608 303.621C160.608 303.42 160.535 303.278 160.391 303.194C160.251 303.11 160.048 303.068 159.782 303.068H159.075L159.145 302.375H159.733C160.003 302.375 160.202 302.331 160.328 302.242C160.454 302.149 160.517 302.004 160.517 301.808C160.517 301.612 160.444 301.467 160.3 301.374C160.16 301.276 159.933 301.227 159.621 301.227C159.42 301.227 159.219 301.248 159.019 301.29C158.823 301.332 158.65 301.386 158.501 301.451V300.646C158.65 300.581 158.841 300.527 159.075 300.485C159.313 300.443 159.548 300.422 159.782 300.422C160.342 300.422 160.764 300.539 161.049 300.772C161.333 301.005 161.476 301.306 161.476 301.675C161.476 301.894 161.424 302.102 161.322 302.298C161.224 302.489 161.07 302.629 160.86 302.718C161.102 302.793 161.28 302.919 161.392 303.096C161.508 303.269 161.567 303.476 161.567 303.719C161.567 304.027 161.49 304.281 161.336 304.482C161.186 304.683 160.976 304.832 160.706 304.93C160.44 305.023 160.127 305.07 159.768 305.07Z" fill="white"/>
<path d="M185.031 228V224.346L184.296 224.465V223.674L185.976 223.422V228H185.031ZM186.634 228V227.545C186.76 227.274 186.925 227.032 187.131 226.817C187.336 226.598 187.56 226.381 187.803 226.166C187.985 226.003 188.134 225.867 188.251 225.76C188.367 225.653 188.458 225.557 188.524 225.473C188.589 225.389 188.636 225.303 188.664 225.214C188.692 225.125 188.706 225.016 188.706 224.885C188.706 224.451 188.43 224.234 187.88 224.234C187.693 224.234 187.506 224.255 187.32 224.297C187.138 224.334 186.963 224.386 186.795 224.451V223.618C186.972 223.557 187.177 223.511 187.411 223.478C187.649 223.441 187.875 223.422 188.09 223.422C188.612 223.422 189.004 223.553 189.266 223.814C189.532 224.071 189.665 224.421 189.665 224.864C189.665 225.172 189.588 225.436 189.434 225.655C189.284 225.87 189.088 226.082 188.846 226.292C188.654 226.46 188.472 226.623 188.3 226.782C188.127 226.936 187.982 227.099 187.866 227.272H189.707V228H186.634Z" fill="white"/>
<path d="M212.908 278L214.511 274.22H212.446V273.492H215.547V274.073L213.888 278H212.908Z" fill="white"/>
<path d="M238.028 244V240.346L237.293 240.465V239.674L238.973 239.422V244H238.028ZM241.668 244.182C241.173 244.182 240.777 244.089 240.478 243.902C240.179 243.715 239.962 243.445 239.827 243.09C239.696 242.731 239.631 242.301 239.631 241.802C239.631 241.298 239.696 240.869 239.827 240.514C239.962 240.159 240.179 239.889 240.478 239.702C240.777 239.515 241.173 239.422 241.668 239.422C242.163 239.422 242.559 239.515 242.858 239.702C243.157 239.889 243.371 240.159 243.502 240.514C243.637 240.869 243.705 241.298 243.705 241.802C243.705 242.301 243.637 242.731 243.502 243.09C243.371 243.445 243.157 243.715 242.858 243.902C242.559 244.089 242.163 244.182 241.668 244.182ZM241.668 243.37C242.074 243.37 242.354 243.235 242.508 242.964C242.667 242.693 242.746 242.306 242.746 241.802C242.746 241.298 242.667 240.911 242.508 240.64C242.354 240.369 242.074 240.234 241.668 240.234C241.262 240.234 240.98 240.369 240.821 240.64C240.667 240.911 240.59 241.298 240.59 241.802C240.59 242.306 240.667 242.693 240.821 242.964C240.98 243.235 241.262 243.37 241.668 243.37Z" fill="white"/>
<path d="M267.507 276.07C266.919 276.07 266.475 275.925 266.177 275.636C265.883 275.347 265.736 274.901 265.736 274.299V273.333C265.736 272.96 265.815 272.631 265.974 272.346C266.137 272.057 266.368 271.83 266.667 271.667C266.965 271.504 267.318 271.422 267.724 271.422C267.957 271.422 268.16 271.436 268.333 271.464C268.505 271.492 268.671 271.534 268.83 271.59V272.402C268.536 272.285 268.188 272.227 267.787 272.227C267.404 272.227 267.115 272.311 266.919 272.479C266.723 272.647 266.625 272.869 266.625 273.144V273.361C266.774 273.254 266.949 273.174 267.15 273.123C267.35 273.067 267.535 273.039 267.703 273.039C268.239 273.039 268.634 273.17 268.886 273.431C269.138 273.692 269.264 274.061 269.264 274.537C269.264 274.836 269.201 275.102 269.075 275.335C268.953 275.564 268.764 275.743 268.508 275.874C268.251 276.005 267.917 276.07 267.507 276.07ZM267.514 275.37C267.817 275.37 268.043 275.298 268.193 275.153C268.342 275.008 268.417 274.815 268.417 274.572C268.417 274.311 268.351 274.11 268.221 273.97C268.09 273.83 267.859 273.76 267.528 273.76C267.374 273.76 267.217 273.788 267.059 273.844C266.9 273.9 266.755 273.972 266.625 274.061V274.488C266.625 275.076 266.921 275.37 267.514 275.37Z" fill="white"/>
<path d="M293.396 291V290.055H291.212V289.411L293.515 286.492H294.341V289.292H294.782V290.055H294.341V291H293.396ZM292.115 289.327H293.557V287.535L292.115 289.327Z" fill="white"/>
<path d="M320.498 264.07C319.28 264.07 318.671 263.629 318.671 262.747C318.671 262.504 318.734 262.285 318.86 262.089C318.99 261.893 319.17 261.753 319.399 261.669C319.189 261.576 319.035 261.445 318.937 261.277C318.839 261.109 318.79 260.929 318.79 260.738C318.79 260.337 318.927 260.017 319.203 259.779C319.478 259.541 319.91 259.422 320.498 259.422C321.1 259.422 321.534 259.541 321.8 259.779C322.07 260.017 322.206 260.337 322.206 260.738C322.206 260.939 322.157 261.128 322.059 261.305C321.965 261.482 321.804 261.62 321.576 261.718C322.075 261.895 322.325 262.238 322.325 262.747C322.325 263.629 321.716 264.07 320.498 264.07ZM320.68 261.431C320.899 261.37 321.058 261.293 321.156 261.2C321.258 261.102 321.31 260.955 321.31 260.759C321.31 260.549 321.242 260.397 321.107 260.304C320.976 260.211 320.773 260.164 320.498 260.164C320.227 260.164 320.024 260.211 319.889 260.304C319.753 260.393 319.686 260.544 319.686 260.759C319.686 261.076 319.863 261.27 320.218 261.34L320.68 261.431ZM320.498 263.335C320.815 263.335 321.048 263.288 321.198 263.195C321.352 263.102 321.429 262.948 321.429 262.733C321.429 262.542 321.377 262.404 321.275 262.32C321.172 262.231 321.004 262.164 320.771 262.117L320.232 262.005C320.031 262.052 319.87 262.126 319.749 262.229C319.627 262.327 319.567 262.486 319.567 262.705C319.567 262.934 319.644 263.097 319.798 263.195C319.952 263.288 320.185 263.335 320.498 263.335Z" fill="white"/>
<path d="M346.768 303.07C346.632 303.07 346.481 303.061 346.313 303.042C346.145 303.023 345.981 302.998 345.823 302.965C345.664 302.932 345.531 302.895 345.424 302.853V302.027C345.615 302.106 345.813 302.165 346.019 302.202C346.229 302.239 346.432 302.258 346.628 302.258C346.959 302.258 347.204 302.214 347.363 302.125C347.526 302.032 347.608 301.864 347.608 301.621C347.608 301.42 347.535 301.278 347.391 301.194C347.251 301.11 347.048 301.068 346.782 301.068H346.075L346.145 300.375H346.733C347.003 300.375 347.202 300.331 347.328 300.242C347.454 300.149 347.517 300.004 347.517 299.808C347.517 299.612 347.444 299.467 347.3 299.374C347.16 299.276 346.933 299.227 346.621 299.227C346.42 299.227 346.219 299.248 346.019 299.29C345.823 299.332 345.65 299.386 345.501 299.451V298.646C345.65 298.581 345.841 298.527 346.075 298.485C346.313 298.443 346.548 298.422 346.782 298.422C347.342 298.422 347.764 298.539 348.049 298.772C348.333 299.005 348.476 299.306 348.476 299.675C348.476 299.894 348.424 300.102 348.322 300.298C348.224 300.489 348.07 300.629 347.86 300.718C348.102 300.793 348.28 300.919 348.392 301.096C348.508 301.269 348.567 301.476 348.567 301.719C348.567 302.027 348.49 302.281 348.336 302.482C348.186 302.683 347.976 302.832 347.706 302.93C347.44 303.023 347.127 303.07 346.768 303.07Z" fill="white"/>
<path d="M372.031 226V222.346L371.296 222.465V221.674L372.976 221.422V226H372.031ZM373.634 226V225.545C373.76 225.274 373.925 225.032 374.131 224.817C374.336 224.598 374.56 224.381 374.803 224.166C374.985 224.003 375.134 223.867 375.251 223.76C375.367 223.653 375.458 223.557 375.524 223.473C375.589 223.389 375.636 223.303 375.664 223.214C375.692 223.125 375.706 223.016 375.706 222.885C375.706 222.451 375.43 222.234 374.88 222.234C374.693 222.234 374.506 222.255 374.32 222.297C374.138 222.334 373.963 222.386 373.795 222.451V221.618C373.972 221.557 374.177 221.511 374.411 221.478C374.649 221.441 374.875 221.422 375.09 221.422C375.612 221.422 376.004 221.553 376.266 221.814C376.532 222.071 376.665 222.421 376.665 222.864C376.665 223.172 376.588 223.436 376.434 223.655C376.284 223.87 376.088 224.082 375.846 224.292C375.654 224.46 375.472 224.623 375.3 224.782C375.127 224.936 374.982 225.099 374.866 225.272H376.707V226H373.634Z" fill="white"/>
<path d="M399.908 278L401.511 274.22H399.446V273.492H402.547V274.073L400.888 278H399.908Z" fill="white"/>
<path d="M425.028 244V240.346L424.293 240.465V239.674L425.973 239.422V244H425.028ZM428.668 244.182C428.173 244.182 427.777 244.089 427.478 243.902C427.179 243.715 426.962 243.445 426.827 243.09C426.696 242.731 426.631 242.301 426.631 241.802C426.631 241.298 426.696 240.869 426.827 240.514C426.962 240.159 427.179 239.889 427.478 239.702C427.777 239.515 428.173 239.422 428.668 239.422C429.163 239.422 429.559 239.515 429.858 239.702C430.157 239.889 430.371 240.159 430.502 240.514C430.637 240.869 430.705 241.298 430.705 241.802C430.705 242.301 430.637 242.731 430.502 243.09C430.371 243.445 430.157 243.715 429.858 243.902C429.559 244.089 429.163 244.182 428.668 244.182ZM428.668 243.37C429.074 243.37 429.354 243.235 429.508 242.964C429.667 242.693 429.746 242.306 429.746 241.802C429.746 241.298 429.667 240.911 429.508 240.64C429.354 240.369 429.074 240.234 428.668 240.234C428.262 240.234 427.98 240.369 427.821 240.64C427.667 240.911 427.59 241.298 427.59 241.802C427.59 242.306 427.667 242.693 427.821 242.964C427.98 243.235 428.262 243.37 428.668 243.37Z" fill="white"/>
<path d="M68.7658 52.2C69.9511 52.2 70.8331 52.4053 71.4118 52.816C71.9905 53.2267 72.2798 53.9733 72.2798 55.056C72.2798 55.9613 71.9998 56.7173 71.4398 57.324C70.8798 57.9213 69.9838 58.22 68.7518 58.22C68.3505 58.22 68.0331 58.2153 67.7998 58.206L67.7718 60.67L68.7938 60.782C68.7938 61.1927 68.6865 61.5987 68.4718 62H65.0138L64.8878 61.23C65.3731 61.034 65.7651 60.8987 66.0638 60.824C66.0638 60.796 66.0218 58.3273 65.9378 53.418C65.7885 53.3807 65.4011 53.2593 64.7758 53.054L64.8878 52.2H68.7658ZM68.4578 56.89C69.0831 56.8807 69.5685 56.708 69.9138 56.372C70.2591 56.036 70.4318 55.602 70.4318 55.07C70.4318 54.538 70.2778 54.16 69.9698 53.936C69.6711 53.7027 69.1998 53.586 68.5558 53.586C68.3038 53.586 68.0658 53.5907 67.8418 53.6C67.8231 55.0747 67.8138 56.176 67.8138 56.904L68.4578 56.89ZM76.9585 56.232C76.9399 56.1853 76.8465 56.162 76.6785 56.162C76.5105 56.162 76.2212 56.288 75.8105 56.54C75.7732 58.3693 75.7499 59.7413 75.7405 60.656L76.8325 60.796C76.8325 61.1973 76.7252 61.5987 76.5105 62H73.0245L72.8985 61.23C73.4772 61.0153 73.8972 60.8753 74.1585 60.81L74.0045 56.274C73.5192 56.2367 73.1132 56.1667 72.7865 56.064L72.8845 55.056C73.1365 54.944 74.0465 54.8693 75.6145 54.832C75.6985 54.916 75.7405 55.0793 75.7405 55.322C76.5619 54.9207 77.0799 54.72 77.2945 54.72C77.5185 54.72 77.7892 54.776 78.1065 54.888C78.4332 54.9907 78.6805 55.1027 78.8485 55.224V55.462C78.8485 56.2273 78.7552 56.9367 78.5685 57.59C78.4099 57.6553 78.1999 57.688 77.9385 57.688C77.6772 57.688 77.4345 57.674 77.2105 57.646C77.1825 57.5247 77.0985 57.0533 76.9585 56.232ZM82.8136 55.84C82.4776 55.84 82.0949 55.924 81.6656 56.092C81.5443 56.2787 81.4276 56.61 81.3156 57.086C81.2129 57.5527 81.1616 58.024 81.1616 58.5C81.1616 59.3773 81.2923 60.0027 81.5536 60.376C81.8149 60.74 82.2349 60.922 82.8136 60.922C83.4016 60.922 83.8263 60.74 84.0876 60.376C84.3489 60.0027 84.4796 59.368 84.4796 58.472C84.4796 57.5667 84.3443 56.904 84.0736 56.484C83.8123 56.0547 83.3923 55.84 82.8136 55.84ZM82.8136 54.72C83.9056 54.72 84.7829 55.056 85.4456 55.728C86.1176 56.3907 86.4536 57.3193 86.4536 58.514C86.4536 59.6993 86.1223 60.6047 85.4596 61.23C84.7969 61.8553 83.9149 62.168 82.8136 62.168C81.7123 62.168 80.8303 61.8553 80.1676 61.23C79.5143 60.6047 79.1876 59.6993 79.1876 58.514C79.1876 57.3193 79.5189 56.3907 80.1816 55.728C80.8443 55.056 81.7216 54.72 82.8136 54.72ZM92.2928 59.578C91.9848 59.774 91.6581 59.9187 91.3128 60.012C90.9675 60.096 90.6315 60.138 90.3048 60.138C89.9875 60.138 89.7075 60.1053 89.4648 60.04C89.3621 60.2827 89.2641 60.4647 89.1708 60.586C89.2455 60.698 90.0295 60.754 91.5228 60.754C92.4561 60.754 93.1141 60.8987 93.4968 61.188C93.6741 61.3093 93.8281 61.5007 93.9588 61.762C94.0988 62.0233 94.1688 62.3593 94.1688 62.77C94.1688 63.19 93.9635 63.61 93.5528 64.03C93.1421 64.45 92.6288 64.7813 92.0128 65.024C91.3968 65.2667 90.7855 65.388 90.1788 65.388C89.1708 65.388 88.3541 65.1873 87.7288 64.786C87.1035 64.394 86.7908 63.904 86.7908 63.316C86.7908 63.204 86.9541 62.9287 87.2808 62.49C87.6075 62.0607 87.8221 61.8133 87.9248 61.748C87.8315 61.7013 87.6681 61.5473 87.4348 61.286C87.2015 61.0153 87.0708 60.824 87.0428 60.712C87.1641 60.376 87.5375 59.956 88.1628 59.452C87.4348 59.0133 87.0708 58.276 87.0708 57.24C87.0708 56.4187 87.3508 55.7933 87.9108 55.364C88.4801 54.9347 89.2268 54.72 90.1508 54.72C91.0841 54.72 91.7888 54.846 92.2648 55.098C93.0581 54.958 93.6181 54.888 93.9448 54.888C94.2808 54.888 94.5001 54.8927 94.6028 54.902C94.6028 55.126 94.5468 55.3827 94.4348 55.672C94.3321 55.952 94.2341 56.148 94.1408 56.26L92.9368 55.98C93.1701 56.316 93.2868 56.75 93.2868 57.282C93.2868 57.814 93.1981 58.2807 93.0208 58.682C92.8435 59.074 92.6008 59.3727 92.2928 59.578ZM92.2228 63.582C92.2881 63.4047 92.3208 63.1993 92.3208 62.966C92.3208 62.7327 92.2181 62.56 92.0128 62.448C91.8075 62.3453 91.5648 62.294 91.2848 62.294C90.1928 62.294 89.4695 62.2847 89.1148 62.266C89.0401 62.4247 88.9468 62.6487 88.8348 62.938C88.7228 63.2367 88.6668 63.414 88.6668 63.47C88.6668 63.526 88.7041 63.6053 88.7788 63.708C88.8535 63.82 89.0121 63.9367 89.2548 64.058C89.5068 64.1793 89.8101 64.24 90.1648 64.24C90.5288 64.24 90.9535 64.156 91.4388 63.988C91.9241 63.82 92.1855 63.6847 92.2228 63.582ZM91.0888 56.148C90.8741 55.896 90.5708 55.77 90.1788 55.77C89.7868 55.77 89.4788 55.896 89.2548 56.148C89.0401 56.4 88.9328 56.7687 88.9328 57.254C88.9328 57.73 89.0448 58.1033 89.2688 58.374C89.4928 58.6447 89.7961 58.78 90.1788 58.78C91.0095 58.78 91.4248 58.2667 91.4248 57.24C91.4248 56.764 91.3128 56.4 91.0888 56.148ZM98.8745 56.232C98.8559 56.1853 98.7625 56.162 98.5945 56.162C98.4265 56.162 98.1372 56.288 97.7265 56.54C97.6892 58.3693 97.6659 59.7413 97.6565 60.656L98.7485 60.796C98.7485 61.1973 98.6412 61.5987 98.4265 62H94.9405L94.8145 61.23C95.3932 61.0153 95.8132 60.8753 96.0745 60.81L95.9205 56.274C95.4352 56.2367 95.0292 56.1667 94.7025 56.064L94.8005 55.056C95.0525 54.944 95.9625 54.8693 97.5305 54.832C97.6145 54.916 97.6565 55.0793 97.6565 55.322C98.4779 54.9207 98.9959 54.72 99.2105 54.72C99.4345 54.72 99.7052 54.776 100.023 54.888C100.349 54.9907 100.597 55.1027 100.765 55.224V55.462C100.765 56.2273 100.671 56.9367 100.485 57.59C100.326 57.6553 100.116 57.688 99.8545 57.688C99.5932 57.688 99.3505 57.674 99.1265 57.646C99.0985 57.5247 99.0145 57.0533 98.8745 56.232ZM104.758 60.796C105.075 60.796 105.719 60.5767 106.69 60.138C106.895 60.4367 107.049 60.782 107.152 61.174C106.638 61.4913 106.134 61.7387 105.64 61.916C105.154 62.084 104.809 62.168 104.604 62.168C103.474 62.168 102.616 61.8553 102.028 61.23C101.449 60.6047 101.16 59.718 101.16 58.57C101.16 57.4127 101.449 56.484 102.028 55.784C102.606 55.0747 103.465 54.72 104.604 54.72C105.509 54.72 106.2 55.014 106.676 55.602C107.152 56.19 107.39 56.9553 107.39 57.898C107.39 58.094 107.278 58.318 107.054 58.57L103.022 58.5C103.04 59.2467 103.18 59.816 103.442 60.208C103.703 60.6 104.142 60.796 104.758 60.796ZM104.478 55.882C104.123 55.882 103.792 55.952 103.484 56.092C103.269 56.54 103.134 56.9553 103.078 57.338C103.806 57.31 104.632 57.2913 105.556 57.282C105.509 56.3487 105.15 55.882 104.478 55.882ZM111.922 60.796C112.239 60.796 112.883 60.5767 113.854 60.138C114.059 60.4367 114.213 60.782 114.316 61.174C113.802 61.4913 113.298 61.7387 112.804 61.916C112.318 62.084 111.973 62.168 111.768 62.168C110.638 62.168 109.78 61.8553 109.192 61.23C108.613 60.6047 108.324 59.718 108.324 58.57C108.324 57.4127 108.613 56.484 109.192 55.784C109.77 55.0747 110.629 54.72 111.768 54.72C112.673 54.72 113.364 55.014 113.84 55.602C114.316 56.19 114.554 56.9553 114.554 57.898C114.554 58.094 114.442 58.318 114.218 58.57L110.186 58.5C110.204 59.2467 110.344 59.816 110.606 60.208C110.867 60.6 111.306 60.796 111.922 60.796ZM111.642 55.882C111.287 55.882 110.956 55.952 110.648 56.092C110.433 56.54 110.298 56.9553 110.242 57.338C110.97 57.31 111.796 57.2913 112.72 57.282C112.673 56.3487 112.314 55.882 111.642 55.882ZM120.514 55.322L120.528 55.756C120.528 56.484 120.472 56.96 120.36 57.184C120.052 57.296 119.622 57.352 119.072 57.352L118.624 55.938C118.502 55.8913 118.334 55.868 118.12 55.868C117.905 55.868 117.728 55.9333 117.588 56.064C117.457 56.1947 117.392 56.3487 117.392 56.526C117.392 56.7033 117.462 56.8667 117.602 57.016C117.742 57.156 117.886 57.268 118.036 57.352C118.185 57.436 118.4 57.548 118.68 57.688C118.969 57.8187 119.184 57.9213 119.324 57.996C119.473 58.0707 119.66 58.1827 119.884 58.332C120.117 58.4813 120.294 58.6213 120.416 58.752C120.714 59.1067 120.864 59.494 120.864 59.914C120.864 60.6327 120.588 61.188 120.038 61.58C119.496 61.972 118.829 62.168 118.036 62.168C117.616 62.168 117.154 62.0933 116.65 61.944C116.155 61.7947 115.735 61.594 115.39 61.342C115.39 60.67 115.455 60.0447 115.586 59.466C115.959 59.4193 116.262 59.396 116.496 59.396C116.729 59.396 116.888 59.4007 116.972 59.41L117.14 60.768C117.373 60.852 117.653 60.894 117.98 60.894C118.306 60.894 118.563 60.8287 118.75 60.698C118.946 60.5673 119.044 60.3853 119.044 60.152C119.044 59.9093 118.936 59.7087 118.722 59.55C118.507 59.3913 118.213 59.228 117.84 59.06C117.466 58.8827 117.177 58.738 116.972 58.626C116.766 58.5047 116.547 58.3507 116.314 58.164C115.838 57.8 115.6 57.352 115.6 56.82C115.6 56.1573 115.828 55.644 116.286 55.28C116.752 54.9067 117.378 54.72 118.162 54.72C118.946 54.72 119.73 54.9207 120.514 55.322ZM126.844 55.322L126.858 55.756C126.858 56.484 126.802 56.96 126.69 57.184C126.382 57.296 125.952 57.352 125.402 57.352L124.954 55.938C124.832 55.8913 124.664 55.868 124.45 55.868C124.235 55.868 124.058 55.9333 123.918 56.064C123.787 56.1947 123.722 56.3487 123.722 56.526C123.722 56.7033 123.792 56.8667 123.932 57.016C124.072 57.156 124.216 57.268 124.366 57.352C124.515 57.436 124.73 57.548 125.01 57.688C125.299 57.8187 125.514 57.9213 125.654 57.996C125.803 58.0707 125.99 58.1827 126.214 58.332C126.447 58.4813 126.624 58.6213 126.746 58.752C127.044 59.1067 127.194 59.494 127.194 59.914C127.194 60.6327 126.918 61.188 126.368 61.58C125.826 61.972 125.159 62.168 124.366 62.168C123.946 62.168 123.484 62.0933 122.98 61.944C122.485 61.7947 122.065 61.594 121.72 61.342C121.72 60.67 121.785 60.0447 121.916 59.466C122.289 59.4193 122.592 59.396 122.826 59.396C123.059 59.396 123.218 59.4007 123.302 59.41L123.47 60.768C123.703 60.852 123.983 60.894 124.31 60.894C124.636 60.894 124.893 60.8287 125.08 60.698C125.276 60.5673 125.374 60.3853 125.374 60.152C125.374 59.9093 125.266 59.7087 125.052 59.55C124.837 59.3913 124.543 59.228 124.17 59.06C123.796 58.8827 123.507 58.738 123.302 58.626C123.096 58.5047 122.877 58.3507 122.644 58.164C122.168 57.8 121.93 57.352 121.93 56.82C121.93 56.1573 122.158 55.644 122.616 55.28C123.082 54.9067 123.708 54.72 124.492 54.72C125.276 54.72 126.06 54.9207 126.844 55.322ZM131.729 54.748C131.579 54.104 131.505 53.5953 131.505 53.222C131.505 52.8487 131.519 52.508 131.547 52.2H139.681C139.718 52.648 139.737 52.9513 139.737 53.11C139.737 53.5113 139.662 54.0573 139.513 54.748C139.242 54.8227 138.799 54.86 138.183 54.86L137.861 53.446H136.671C136.661 53.8007 136.619 56.204 136.545 60.656L137.553 60.782C137.553 61.2113 137.445 61.6173 137.231 62H133.829L133.703 61.23C134.347 60.9873 134.753 60.852 134.921 60.824C134.921 60.7867 134.865 58.332 134.753 53.46H133.367L133.059 54.832C132.508 54.832 132.065 54.804 131.729 54.748ZM144.484 56.232C144.465 56.1853 144.372 56.162 144.204 56.162C144.036 56.162 143.747 56.288 143.336 56.54C143.299 58.3693 143.275 59.7413 143.266 60.656L144.358 60.796C144.358 61.1973 144.251 61.5987 144.036 62H140.55L140.424 61.23C141.003 61.0153 141.423 60.8753 141.684 60.81L141.53 56.274C141.045 56.2367 140.639 56.1667 140.312 56.064L140.41 55.056C140.662 54.944 141.572 54.8693 143.14 54.832C143.224 54.916 143.266 55.0793 143.266 55.322C144.087 54.9207 144.605 54.72 144.82 54.72C145.044 54.72 145.315 54.776 145.632 54.888C145.959 54.9907 146.206 55.1027 146.374 55.224V55.462C146.374 56.2273 146.281 56.9367 146.094 57.59C145.935 57.6553 145.725 57.688 145.464 57.688C145.203 57.688 144.96 57.674 144.736 57.646C144.708 57.5247 144.624 57.0533 144.484 56.232ZM149.275 62.168C148.482 62.168 147.866 62.0047 147.427 61.678C146.998 61.3513 146.783 60.8007 146.783 60.026C146.783 59.2887 147.04 58.6867 147.553 58.22C147.852 57.9493 148.267 57.7907 148.799 57.744C149.331 57.6973 150.064 57.674 150.997 57.674V57.45C150.997 56.8807 150.904 56.4653 150.717 56.204C150.54 55.9333 150.222 55.798 149.765 55.798C149.532 55.798 149.322 55.8447 149.135 55.938L148.799 57.156L147.763 57.128C147.53 56.7733 147.404 56.2087 147.385 55.434C147.572 55.3407 148.01 55.2007 148.701 55.014C149.392 54.818 149.835 54.72 150.031 54.72C151.039 54.72 151.772 54.93 152.229 55.35C152.686 55.7607 152.915 56.4187 152.915 57.324C152.915 58.22 152.873 59.4053 152.789 60.88C153.321 60.9267 153.732 61.006 154.021 61.118C154.03 61.23 154.035 61.3653 154.035 61.524L154.021 61.832C153.349 62.056 152.672 62.168 151.991 62.168C151.814 62.168 151.683 62.1633 151.599 62.154C151.459 61.874 151.375 61.538 151.347 61.146H151.277C151.1 61.314 150.787 61.5287 150.339 61.79C149.9 62.042 149.546 62.168 149.275 62.168ZM148.575 60.11C148.575 60.418 148.668 60.6467 148.855 60.796C149.051 60.936 149.27 61.006 149.513 61.006C149.756 61.006 150.045 60.8987 150.381 60.684C150.717 60.46 150.988 60.2593 151.193 60.082L151.123 58.794C150.386 58.8313 149.83 58.9013 149.457 59.004C148.869 59.1253 148.575 59.494 148.575 60.11ZM158.054 55.882L157.83 55.868C157.307 55.868 156.887 56.05 156.57 56.414C156.262 56.7687 156.108 57.3707 156.108 58.22C156.108 59.06 156.225 59.6993 156.458 60.138C156.701 60.5767 157.163 60.796 157.844 60.796C158.161 60.796 158.833 60.5813 159.86 60.152C160.093 60.4787 160.219 60.8193 160.238 61.174C159.725 61.4913 159.221 61.7387 158.726 61.916C158.241 62.0933 157.895 62.182 157.69 62.182C156.542 62.182 155.683 61.8693 155.114 61.244C154.545 60.6093 154.26 59.7227 154.26 58.584C154.26 56.008 155.422 54.72 157.746 54.72C158.147 54.72 158.558 54.7713 158.978 54.874C159.407 54.9673 159.743 55.0887 159.986 55.238C159.958 56.1713 159.855 56.848 159.678 57.268C159.37 57.3427 158.936 57.38 158.376 57.38L158.054 55.882ZM163.593 59.578L163.579 60.656L164.671 60.782C164.671 61.1647 164.564 61.5707 164.349 62H160.863L160.737 61.23C161.316 61.0153 161.736 60.8753 161.997 60.81L161.731 53.04C161.293 52.9933 160.924 52.9233 160.625 52.83C160.625 52.4847 160.658 52.1487 160.723 51.822C161.274 51.6727 162.217 51.598 163.551 51.598C163.729 51.598 163.841 51.6027 163.887 51.612C163.887 52.0973 163.827 52.522 163.705 52.886C163.649 55.126 163.621 56.7873 163.621 57.87L165.287 56.218L164.419 56.106C164.419 55.7233 164.527 55.3173 164.741 54.888H168.227L168.353 55.658C167.775 55.8727 167.355 56.0127 167.093 56.078L165.553 57.618L167.513 60.656L168.605 60.782C168.605 61.1647 168.498 61.5707 168.283 62H166.491L164.419 58.752L163.593 59.578ZM171.977 54.832C172.154 54.832 172.266 54.8367 172.313 54.846C172.313 55.3033 172.234 55.728 172.075 56.12C172.038 58.136 172.014 59.648 172.005 60.656L173.097 60.782C173.097 61.1647 172.99 61.5707 172.775 62H169.289L169.163 61.23C169.742 61.0153 170.162 60.8753 170.423 60.81L170.269 56.274C169.718 56.218 169.312 56.148 169.051 56.064C169.051 55.8307 169.084 55.4947 169.149 55.056C169.7 54.9067 170.642 54.832 171.977 54.832ZM171.977 52.186C172.061 52.606 172.103 52.928 172.103 53.152C172.103 53.3667 172.084 53.6093 172.047 53.88C171.674 53.964 171.356 54.006 171.095 54.006C170.843 54.006 170.535 53.992 170.171 53.964C170.087 53.544 170.045 53.2267 170.045 53.012C170.045 52.788 170.064 52.5407 170.101 52.27C170.474 52.186 170.787 52.144 171.039 52.144C171.3 52.144 171.613 52.158 171.977 52.186ZM178.034 54.72C178.967 54.72 179.644 54.9487 180.064 55.406C180.484 55.8633 180.694 56.5027 180.694 57.324C180.694 58.1453 180.647 59.256 180.554 60.656L181.66 60.782C181.66 61.1647 181.552 61.5707 181.338 62H177.852L177.726 61.23C178.164 61.0527 178.57 60.9127 178.944 60.81C178.916 59.7367 178.888 58.836 178.86 58.108C178.832 57.3707 178.762 56.8713 178.65 56.61C178.538 56.3487 178.29 56.218 177.908 56.218C177.329 56.218 176.811 56.3207 176.354 56.526C176.344 56.9273 176.316 57.5853 176.27 58.5C176.232 59.4053 176.209 60.124 176.2 60.656L177.292 60.782C177.292 61.1647 177.184 61.5707 176.97 62H173.484L173.358 61.23C173.824 61.0527 174.244 60.9127 174.618 60.81C174.608 60.25 174.576 59.4753 174.52 58.486C174.473 57.4967 174.445 56.764 174.436 56.288C174.09 56.2507 173.722 56.1807 173.33 56.078L173.399 55.07C174.053 54.8927 174.79 54.804 175.612 54.804C175.714 54.8693 175.854 55.07 176.032 55.406C176.349 55.2473 176.736 55.0933 177.194 54.944C177.651 54.7947 177.931 54.72 178.034 54.72ZM187.64 59.578C187.332 59.774 187.006 59.9187 186.66 60.012C186.315 60.096 185.979 60.138 185.652 60.138C185.335 60.138 185.055 60.1053 184.812 60.04C184.71 60.2827 184.612 60.4647 184.518 60.586C184.593 60.698 185.377 60.754 186.87 60.754C187.804 60.754 188.462 60.8987 188.844 61.188C189.022 61.3093 189.176 61.5007 189.306 61.762C189.446 62.0233 189.516 62.3593 189.516 62.77C189.516 63.19 189.311 63.61 188.9 64.03C188.49 64.45 187.976 64.7813 187.36 65.024C186.744 65.2667 186.133 65.388 185.526 65.388C184.518 65.388 183.702 65.1873 183.076 64.786C182.451 64.394 182.138 63.904 182.138 63.316C182.138 63.204 182.302 62.9287 182.628 62.49C182.955 62.0607 183.17 61.8133 183.272 61.748C183.179 61.7013 183.016 61.5473 182.782 61.286C182.549 61.0153 182.418 60.824 182.39 60.712C182.512 60.376 182.885 59.956 183.51 59.452C182.782 59.0133 182.418 58.276 182.418 57.24C182.418 56.4187 182.698 55.7933 183.258 55.364C183.828 54.9347 184.574 54.72 185.498 54.72C186.432 54.72 187.136 54.846 187.612 55.098C188.406 54.958 188.966 54.888 189.292 54.888C189.628 54.888 189.848 54.8927 189.95 54.902C189.95 55.126 189.894 55.3827 189.782 55.672C189.68 55.952 189.582 56.148 189.488 56.26L188.284 55.98C188.518 56.316 188.634 56.75 188.634 57.282C188.634 57.814 188.546 58.2807 188.368 58.682C188.191 59.074 187.948 59.3727 187.64 59.578ZM187.57 63.582C187.636 63.4047 187.668 63.1993 187.668 62.966C187.668 62.7327 187.566 62.56 187.36 62.448C187.155 62.3453 186.912 62.294 186.632 62.294C185.54 62.294 184.817 62.2847 184.462 62.266C184.388 62.4247 184.294 62.6487 184.182 62.938C184.07 63.2367 184.014 63.414 184.014 63.47C184.014 63.526 184.052 63.6053 184.126 63.708C184.201 63.82 184.36 63.9367 184.602 64.058C184.854 64.1793 185.158 64.24 185.512 64.24C185.876 64.24 186.301 64.156 186.786 63.988C187.272 63.82 187.533 63.6847 187.57 63.582ZM186.436 56.148C186.222 55.896 185.918 55.77 185.526 55.77C185.134 55.77 184.826 55.896 184.602 56.148C184.388 56.4 184.28 56.7687 184.28 57.254C184.28 57.73 184.392 58.1033 184.616 58.374C184.84 58.6447 185.144 58.78 185.526 58.78C186.357 58.78 186.772 58.2667 186.772 57.24C186.772 56.764 186.66 56.4 186.436 56.148Z" fill="black"/>
<defs>
<filter id="filter0_d_379_2143" x="0" y="0" width="708" height="404" filterUnits="userSpaceOnUse" color-interpolation-filters="sRGB">
<feFlood flood-opacity="0" result="BackgroundImageFix"/>
<feColorMatrix in="SourceAlpha" type="matrix" values="0 0 0 0 0 0 0 0 0 0 0 0 0 0 0 0 0 0 127 0" result="hardAlpha"/>
<feOffset dx="5" dy="5"/>
<feGaussianBlur stdDeviation="10"/>
<feComposite in2="hardAlpha" operator="out"/>
<feColorMatrix type="matrix" values="0 0 0 0 0 0 0 0 0 0 0 0 0 0 0 0 0 0 0.25 0"/>
<feBlend mode="normal" in2="BackgroundImageFix" result="effect1_dropShadow_379_2143"/>
<feBlend mode="normal" in="SourceGraphic" in2="effect1_dropShadow_379_2143" result="shape"/>
</filter>
<filter id="filter1_i_379_2143" x="533.26" y="140.415" width="110.064" height="119.91" filterUnits="userSpaceOnUse" color-interpolation-filters="sRGB">
<feFlood flood-opacity="0" result="BackgroundImageFix"/>
<feBlend mode="normal" in="SourceGraphic" in2="BackgroundImageFix" result="shape"/>
<feColorMatrix in="SourceAlpha" type="matrix" values="0 0 0 0 0 0 0 0 0 0 0 0 0 0 0 0 0 0 127 0" result="hardAlpha"/>
<feOffset dy="-2"/>
<feGaussianBlur stdDeviation="2"/>
<feComposite in2="hardAlpha" operator="arithmetic" k2="-1" k3="1"/>
<feColorMatrix type="matrix" values="0 0 0 0 0 0 0 0 0 0.478431 0 0 0 0 0.988235 0 0 0 1 0"/>
<feBlend mode="normal" in2="shape" result="effect1_innerShadow_379_2143"/>
</filter>
<filter id="filter2_d_379_2143" x="225.363" y="225.447" width="34.4473" height="104.349" filterUnits="userSpaceOnUse" color-interpolation-filters="sRGB">
<feFlood flood-opacity="0" result="BackgroundImageFix"/>
<feColorMatrix in="SourceAlpha" type="matrix" values="0 0 0 0 0 0 0 0 0 0 0 0 0 0 0 0 0 0 127 0" result="hardAlpha"/>
<feOffset dx="2"/>
<feGaussianBlur stdDeviation="4.5"/>
<feComposite in2="hardAlpha" operator="out"/>
<feColorMatrix type="matrix" values="0 0 0 0 0 0 0 0 0 0 0 0 0 0 0 0 0 0 0.25 0"/>
<feBlend mode="normal" in2="BackgroundImageFix" result="effect1_dropShadow_379_2143"/>
<feBlend mode="normal" in="SourceGraphic" in2="effect1_dropShadow_379_2143" result="shape"/>
</filter>
<filter id="filter3_d_379_2143" x="198.639" y="260.398" width="34.4473" height="69.3984" filterUnits="userSpaceOnUse" color-interpolation-filters="sRGB">
<feFlood flood-opacity="0" result="BackgroundImageFix"/>
<feColorMatrix in="SourceAlpha" type="matrix" values="0 0 0 0 0 0 0 0 0 0 0 0 0 0 0 0 0 0 127 0" result="hardAlpha"/>
<feOffset dx="2"/>
<feGaussianBlur stdDeviation="4.5"/>
<feComposite in2="hardAlpha" operator="out"/>
<feColorMatrix type="matrix" values="0 0 0 0 0 0 0 0 0 0 0 0 0 0 0 0 0 0 0.25 0"/>
<feBlend mode="normal" in2="BackgroundImageFix" result="effect1_dropShadow_379_2143"/>
<feBlend mode="normal" in="SourceGraphic" in2="effect1_dropShadow_379_2143" result="shape"/>
</filter>
<filter id="filter4_d_379_2143" x="171.912" y="209" width="34.4473" height="120.797" filterUnits="userSpaceOnUse" color-interpolation-filters="sRGB">
<feFlood flood-opacity="0" result="BackgroundImageFix"/>
<feColorMatrix in="SourceAlpha" type="matrix" values="0 0 0 0 0 0 0 0 0 0 0 0 0 0 0 0 0 0 127 0" result="hardAlpha"/>
<feOffset dx="2"/>
<feGaussianBlur stdDeviation="4.5"/>
<feComposite in2="hardAlpha" operator="out"/>
<feColorMatrix type="matrix" values="0 0 0 0 0 0 0 0 0 0 0 0 0 0 0 0 0 0 0.25 0"/>
<feBlend mode="normal" in2="BackgroundImageFix" result="effect1_dropShadow_379_2143"/>
<feBlend mode="normal" in="SourceGraphic" in2="effect1_dropShadow_379_2143" result="shape"/>
</filter>
<filter id="filter5_d_379_2143" x="145.188" y="287.125" width="34.4473" height="42.6714" filterUnits="userSpaceOnUse" color-interpolation-filters="sRGB">
<feFlood flood-opacity="0" result="BackgroundImageFix"/>
<feColorMatrix in="SourceAlpha" type="matrix" values="0 0 0 0 0 0 0 0 0 0 0 0 0 0 0 0 0 0 127 0" result="hardAlpha"/>
<feOffset dx="2"/>
<feGaussianBlur stdDeviation="4.5"/>
<feComposite in2="hardAlpha" operator="out"/>
<feColorMatrix type="matrix" values="0 0 0 0 0 0 0 0 0 0 0 0 0 0 0 0 0 0 0.25 0"/>
<feBlend mode="normal" in2="BackgroundImageFix" result="effect1_dropShadow_379_2143"/>
<feBlend mode="normal" in="SourceGraphic" in2="effect1_dropShadow_379_2143" result="shape"/>
</filter>
<filter id="filter6_d_379_2143" x="118.451" y="248.063" width="34.4473" height="81.7339" filterUnits="userSpaceOnUse" color-interpolation-filters="sRGB">
<feFlood flood-opacity="0" result="BackgroundImageFix"/>
<feColorMatrix in="SourceAlpha" type="matrix" values="0 0 0 0 0 0 0 0 0 0 0 0 0 0 0 0 0 0 127 0" result="hardAlpha"/>
<feOffset dx="2"/>
<feGaussianBlur stdDeviation="4.5"/>
<feComposite in2="hardAlpha" operator="out"/>
<feColorMatrix type="matrix" values="0 0 0 0 0 0 0 0 0 0 0 0 0 0 0 0 0 0 0.25 0"/>
<feBlend mode="normal" in2="BackgroundImageFix" result="effect1_dropShadow_379_2143"/>
<feBlend mode="normal" in="SourceGraphic" in2="effect1_dropShadow_379_2143" result="shape"/>
</filter>
<filter id="filter7_d_379_2143" x="91.7246" y="274.79" width="34.4473" height="55.0068" filterUnits="userSpaceOnUse" color-interpolation-filters="sRGB">
<feFlood flood-opacity="0" result="BackgroundImageFix"/>
<feColorMatrix in="SourceAlpha" type="matrix" values="0 0 0 0 0 0 0 0 0 0 0 0 0 0 0 0 0 0 127 0" result="hardAlpha"/>
<feOffset dx="2"/>
<feGaussianBlur stdDeviation="4.5"/>
<feComposite in2="hardAlpha" operator="out"/>
<feColorMatrix type="matrix" values="0 0 0 0 0 0 0 0 0 0 0 0 0 0 0 0 0 0 0.25 0"/>
<feBlend mode="normal" in2="BackgroundImageFix" result="effect1_dropShadow_379_2143"/>
<feBlend mode="normal" in="SourceGraphic" in2="effect1_dropShadow_379_2143" result="shape"/>
</filter>
<filter id="filter8_d_379_2143" x="65" y="260.398" width="34.4473" height="69.3984" filterUnits="userSpaceOnUse" color-interpolation-filters="sRGB">
<feFlood flood-opacity="0" result="BackgroundImageFix"/>
<feColorMatrix in="SourceAlpha" type="matrix" values="0 0 0 0 0 0 0 0 0 0 0 0 0 0 0 0 0 0 127 0" result="hardAlpha"/>
<feOffset dx="2"/>
<feGaussianBlur stdDeviation="4.5"/>
<feComposite in2="hardAlpha" operator="out"/>
<feColorMatrix type="matrix" values="0 0 0 0 0 0 0 0 0 0 0 0 0 0 0 0 0 0 0.25 0"/>
<feBlend mode="normal" in2="BackgroundImageFix" result="effect1_dropShadow_379_2143"/>
<feBlend mode="normal" in="SourceGraphic" in2="effect1_dropShadow_379_2143" result="shape"/>
</filter>
<filter id="filter9_d_379_2143" x="412.174" y="223.447" width="34.4473" height="104.349" filterUnits="userSpaceOnUse" color-interpolation-filters="sRGB">
<feFlood flood-opacity="0" result="BackgroundImageFix"/>
<feColorMatrix in="SourceAlpha" type="matrix" values="0 0 0 0 0 0 0 0 0 0 0 0 0 0 0 0 0 0 127 0" result="hardAlpha"/>
<feOffset dx="2"/>
<feGaussianBlur stdDeviation="4.5"/>
<feComposite in2="hardAlpha" operator="out"/>
<feColorMatrix type="matrix" values="0 0 0 0 0 0 0 0 0 0 0 0 0 0 0 0 0 0 0.25 0"/>
<feBlend mode="normal" in2="BackgroundImageFix" result="effect1_dropShadow_379_2143"/>
<feBlend mode="normal" in="SourceGraphic" in2="effect1_dropShadow_379_2143" result="shape"/>
</filter>
<filter id="filter10_d_379_2143" x="385.449" y="258.398" width="34.4473" height="69.3984" filterUnits="userSpaceOnUse" color-interpolation-filters="sRGB">
<feFlood flood-opacity="0" result="BackgroundImageFix"/>
<feColorMatrix in="SourceAlpha" type="matrix" values="0 0 0 0 0 0 0 0 0 0 0 0 0 0 0 0 0 0 127 0" result="hardAlpha"/>
<feOffset dx="2"/>
<feGaussianBlur stdDeviation="4.5"/>
<feComposite in2="hardAlpha" operator="out"/>
<feColorMatrix type="matrix" values="0 0 0 0 0 0 0 0 0 0 0 0 0 0 0 0 0 0 0.25 0"/>
<feBlend mode="normal" in2="BackgroundImageFix" result="effect1_dropShadow_379_2143"/>
<feBlend mode="normal" in="SourceGraphic" in2="effect1_dropShadow_379_2143" result="shape"/>
</filter>
<filter id="filter11_d_379_2143" x="358.723" y="207" width="34.4473" height="120.797" filterUnits="userSpaceOnUse" color-interpolation-filters="sRGB">
<feFlood flood-opacity="0" result="BackgroundImageFix"/>
<feColorMatrix in="SourceAlpha" type="matrix" values="0 0 0 0 0 0 0 0 0 0 0 0 0 0 0 0 0 0 127 0" result="hardAlpha"/>
<feOffset dx="2"/>
<feGaussianBlur stdDeviation="4.5"/>
<feComposite in2="hardAlpha" operator="out"/>
<feColorMatrix type="matrix" values="0 0 0 0 0 0 0 0 0 0 0 0 0 0 0 0 0 0 0.25 0"/>
<feBlend mode="normal" in2="BackgroundImageFix" result="effect1_dropShadow_379_2143"/>
<feBlend mode="normal" in="SourceGraphic" in2="effect1_dropShadow_379_2143" result="shape"/>
</filter>
<filter id="filter12_d_379_2143" x="331.998" y="285.125" width="34.4473" height="42.6714" filterUnits="userSpaceOnUse" color-interpolation-filters="sRGB">
<feFlood flood-opacity="0" result="BackgroundImageFix"/>
<feColorMatrix in="SourceAlpha" type="matrix" values="0 0 0 0 0 0 0 0 0 0 0 0 0 0 0 0 0 0 127 0" result="hardAlpha"/>
<feOffset dx="2"/>
<feGaussianBlur stdDeviation="4.5"/>
<feComposite in2="hardAlpha" operator="out"/>
<feColorMatrix type="matrix" values="0 0 0 0 0 0 0 0 0 0 0 0 0 0 0 0 0 0 0.25 0"/>
<feBlend mode="normal" in2="BackgroundImageFix" result="effect1_dropShadow_379_2143"/>
<feBlend mode="normal" in="SourceGraphic" in2="effect1_dropShadow_379_2143" result="shape"/>
</filter>
<filter id="filter13_d_379_2143" x="305.262" y="246.063" width="34.4473" height="81.7339" filterUnits="userSpaceOnUse" color-interpolation-filters="sRGB">
<feFlood flood-opacity="0" result="BackgroundImageFix"/>
<feColorMatrix in="SourceAlpha" type="matrix" values="0 0 0 0 0 0 0 0 0 0 0 0 0 0 0 0 0 0 127 0" result="hardAlpha"/>
<feOffset dx="2"/>
<feGaussianBlur stdDeviation="4.5"/>
<feComposite in2="hardAlpha" operator="out"/>
<feColorMatrix type="matrix" values="0 0 0 0 0 0 0 0 0 0 0 0 0 0 0 0 0 0 0.25 0"/>
<feBlend mode="normal" in2="BackgroundImageFix" result="effect1_dropShadow_379_2143"/>
<feBlend mode="normal" in="SourceGraphic" in2="effect1_dropShadow_379_2143" result="shape"/>
</filter>
<filter id="filter14_d_379_2143" x="278.535" y="272.79" width="34.4473" height="55.0068" filterUnits="userSpaceOnUse" color-interpolation-filters="sRGB">
<feFlood flood-opacity="0" result="BackgroundImageFix"/>
<feColorMatrix in="SourceAlpha" type="matrix" values="0 0 0 0 0 0 0 0 0 0 0 0 0 0 0 0 0 0 127 0" result="hardAlpha"/>
<feOffset dx="2"/>
<feGaussianBlur stdDeviation="4.5"/>
<feComposite in2="hardAlpha" operator="out"/>
<feColorMatrix type="matrix" values="0 0 0 0 0 0 0 0 0 0 0 0 0 0 0 0 0 0 0.25 0"/>
<feBlend mode="normal" in2="BackgroundImageFix" result="effect1_dropShadow_379_2143"/>
<feBlend mode="normal" in="SourceGraphic" in2="effect1_dropShadow_379_2143" result="shape"/>
</filter>
<filter id="filter15_d_379_2143" x="251.811" y="258.398" width="34.4473" height="69.3984" filterUnits="userSpaceOnUse" color-interpolation-filters="sRGB">
<feFlood flood-opacity="0" result="BackgroundImageFix"/>
<feColorMatrix in="SourceAlpha" type="matrix" values="0 0 0 0 0 0 0 0 0 0 0 0 0 0 0 0 0 0 127 0" result="hardAlpha"/>
<feOffset dx="2"/>
<feGaussianBlur stdDeviation="4.5"/>
<feComposite in2="hardAlpha" operator="out"/>
<feColorMatrix type="matrix" values="0 0 0 0 0 0 0 0 0 0 0 0 0 0 0 0 0 0 0.25 0"/>
<feBlend mode="normal" in2="BackgroundImageFix" result="effect1_dropShadow_379_2143"/>
<feBlend mode="normal" in="SourceGraphic" in2="effect1_dropShadow_379_2143" result="shape"/>
</filter>
</defs>
</svg>
