<svg width="41" height="40" viewBox="0 0 41 40" fill="none" xmlns="http://www.w3.org/2000/svg">
<rect x="1.14844" y="0.5" width="38.6" height="38.6" rx="11.5" stroke="#F3F4F6"/>
<path fill-rule="evenodd" clip-rule="evenodd" d="M29.342 16.1671C29.2564 15.5157 29.0077 14.8966 28.619 14.3671C28.1373 13.8809 27.4834 13.6042 26.799 13.5971C24.263 13.4141 20.451 13.4141 20.451 13.4141C20.451 13.4141 16.641 13.4141 14.101 13.5981C13.4175 13.6054 12.7643 13.8817 12.283 14.3671C11.893 14.8961 11.643 15.5161 11.558 16.1671C11.4455 17.1432 11.3844 18.1245 11.375 19.1071V20.4821C11.3837 21.4647 11.4447 22.4444 11.558 23.4211C11.645 24.0731 11.891 24.6951 12.277 25.2281C12.8311 25.7183 13.5422 25.9943 14.282 26.0061C15.732 26.1441 20.452 26.1891 20.452 26.1891C20.452 26.1891 24.266 26.1891 26.802 26.0061C27.4864 25.9989 28.1403 25.7223 28.622 25.2361C29.01 24.7061 29.258 24.0861 29.343 23.4341C29.4563 22.4587 29.5177 21.4791 29.527 20.4951V19.1051C29.5169 18.1232 29.4551 17.1425 29.342 16.1671ZM18.624 22.1751V17.0231L23.574 19.6071L18.624 22.1751Z" fill="white"/>
</svg>
