<svg width="25" height="21" viewBox="0 0 25 21" fill="none" xmlns="http://www.w3.org/2000/svg">
<path d="M10.2836 14.1723L16.5116 10.445L10.2836 6.71775V14.1723ZM24.1556 4.44411C24.3116 5.02804 24.4196 5.81078 24.4916 6.80472C24.5756 7.79866 24.6116 8.65593 24.6116 9.40139L24.6836 10.445C24.6836 13.1659 24.4916 15.1662 24.1556 16.446C23.8556 17.5641 23.1596 18.2847 22.0796 18.5953C21.5156 18.7569 20.4836 18.8687 18.8996 18.9433C17.3396 19.0302 15.9116 19.0674 14.5916 19.0674L12.6836 19.142C7.65559 19.142 4.52359 18.9433 3.28759 18.5953C2.20759 18.2847 1.51159 17.5641 1.21159 16.446C1.05559 15.862 0.947594 15.0793 0.875594 14.0853C0.791594 13.0914 0.755594 12.2341 0.755594 11.4887L0.683594 10.445C0.683594 7.72411 0.875594 5.7238 1.21159 4.44411C1.51159 3.32593 2.20759 2.60532 3.28759 2.29471C3.85159 2.1332 4.88359 2.02138 6.46759 1.94683C8.02759 1.85987 9.45559 1.8226 10.7756 1.8226L12.6836 1.74805C17.7116 1.74805 20.8436 1.94683 22.0796 2.29471C23.1596 2.60532 23.8556 3.32593 24.1556 4.44411Z" fill="#FF0000"/>
</svg>
